<svg xmlns="http://www.w3.org/2000/svg" xmlns:xlink="http://www.w3.org/1999/xlink" width="1920" zoomAndPan="magnify" viewBox="0 0 1440 809.999993" height="1080" preserveAspectRatio="xMidYMid meet" version="1.0"><defs><g/><clipPath id="c2edf6c4a4"><path d="M 336.339844 172.132812 L 427.898438 172.132812 L 427.898438 792.355469 L 336.339844 792.355469 Z M 336.339844 172.132812 " clip-rule="nonzero"/></clipPath><clipPath id="c9c5d4886a"><path d="M 361.160156 399.554688 L 536.730469 399.554688 L 536.730469 603.511719 L 361.160156 603.511719 Z M 361.160156 399.554688 " clip-rule="nonzero"/></clipPath><clipPath id="971b8037c0"><path d="M 135.539062 328 L 349.6875 328 L 349.6875 492 L 135.539062 492 Z M 135.539062 328 " clip-rule="nonzero"/></clipPath><clipPath id="97bef6d8ad"><path d="M 208.082031 17.605469 L 517.789062 17.605469 L 517.789062 312 L 208.082031 312 Z M 208.082031 17.605469 " clip-rule="nonzero"/></clipPath></defs><rect x="-144" width="1728" fill="#ffffff" y="-80.999999" height="971.999992" fill-opacity="1"/><rect x="-144" width="1728" fill="#ffffff" y="-80.999999" height="971.999992" fill-opacity="1"/><g clip-path="url(#c2edf6c4a4)"><path fill="#7b8643" d="M 423.296875 792.355469 C 421.703125 792.355469 420.152344 791.535156 419.300781 790.058594 C 418.027344 787.875 293.261719 566.917969 352.199219 176.464844 C 352.582031 173.945312 354.929688 172.226562 357.445312 172.59375 C 359.964844 172.96875 361.695312 175.324219 361.316406 177.839844 C 302.894531 564.847656 426.019531 783.289062 427.269531 785.453125 C 428.554688 787.65625 427.796875 790.480469 425.589844 791.746094 C 424.863281 792.167969 424.074219 792.363281 423.289062 792.363281 " fill-opacity="1" fill-rule="nonzero"/></g><path fill="#ffffff" d="M 347.460938 163.457031 C 347.648438 192.886719 397.261719 201.117188 399.109375 168.570312 C 400.953125 136.019531 347.273438 134.023438 347.460938 163.457031 " fill-opacity="1" fill-rule="nonzero"/><g clip-path="url(#c9c5d4886a)"><path fill="#a0a971" d="M 361.394531 603.511719 C 361.394531 603.511719 357.132812 427.171875 536.738281 399.679688 C 536.738281 399.679688 518.679688 583.578125 361.394531 603.511719 " fill-opacity="1" fill-rule="nonzero"/><path fill="#7b8643" d="M 367.738281 602.589844 C 383.238281 581.175781 465.8125 468.871094 535.808594 406.667969 C 536.488281 402.214844 536.746094 399.679688 536.746094 399.679688 C 533.839844 400.125 530.976562 400.609375 528.160156 401.132812 C 459.34375 462.851562 379.429688 570.820312 361.597656 595.382812 C 361.339844 600.546875 361.402344 603.503906 361.402344 603.503906 C 363.546875 603.230469 365.652344 602.917969 367.746094 602.582031 " fill-opacity="1" fill-rule="nonzero"/></g><g clip-path="url(#971b8037c0)"><path fill="#a0a971" d="M 349.453125 491.289062 C 349.453125 491.289062 173.59375 505.945312 135.539062 328.367188 C 135.539062 328.367188 320.273438 335.535156 349.453125 491.289062 " fill-opacity="1" fill-rule="nonzero"/><path fill="#7b8643" d="M 348.164062 485.019531 C 325.867188 470.808594 208.828125 395.046875 142.570312 328.890625 C 138.078125 328.46875 135.539062 328.367188 135.539062 328.367188 C 136.15625 331.242188 136.8125 334.070312 137.5 336.847656 C 203.203125 401.863281 315.753906 475.234375 341.335938 491.578125 C 346.519531 491.53125 349.460938 491.289062 349.460938 491.289062 C 349.0625 489.171875 348.625 487.082031 348.171875 485.019531 " fill-opacity="1" fill-rule="nonzero"/></g><g clip-path="url(#97bef6d8ad)"><path fill="#fdc83c" d="M 450.382812 173.476562 C 444.648438 171.929688 439.027344 169.59375 432.816406 166.941406 L 431.738281 166.480469 L 431 167.628906 L 430.09375 168.375 L 430.398438 169.28125 C 430.9375 170.867188 431.167969 172.164062 431.09375 173.148438 C 431.039062 173.882812 430.796875 174.398438 430.390625 174.683594 L 426.636719 177.253906 L 431.417969 177.160156 C 435.765625 177.074219 439.957031 176.996094 443.9375 177.160156 C 447.855469 177.316406 451.570312 177.714844 455.042969 178.582031 C 458.078125 179.339844 461.230469 180.949219 464.53125 183.148438 C 467.910156 185.390625 471.445312 188.246094 475.175781 191.425781 L 475.605469 191.792969 L 476.160156 191.746094 C 479.085938 191.519531 482.125 191.167969 485.175781 190.707031 C 488.109375 190.261719 491.082031 189.699219 494.015625 189.027344 C 498.574219 187.980469 502.960938 186.671875 506.824219 185.117188 C 510.40625 183.671875 513.558594 182.007812 516.023438 180.121094 L 517.421875 179.042969 L 516.03125 177.964844 C 513.871094 176.285156 511.515625 174.472656 508.835938 172.539062 C 506.214844 170.65625 503.429688 168.765625 500.503906 167.011719 L 499.871094 166.636719 L 498.269531 167.425781 C 493.804688 169.570312 488.859375 171.421875 483.660156 172.8125 C 478.804688 174.109375 473.710938 174.996094 468.582031 175.332031 C 461.894531 175.777344 456.058594 175.003906 450.375 173.46875 Z M 466.859375 223.921875 C 472.75 224.804688 478.882812 225.203125 484.667969 225.085938 C 489.007812 225 493.113281 224.625 496.742188 223.960938 C 500.246094 223.3125 503.320312 222.390625 505.730469 221.175781 L 507.871094 220.097656 L 505.847656 218.808594 C 496.007812 212.570312 487.34375 204.988281 479.570312 198.1875 L 479.546875 198.171875 C 474.773438 193.996094 470.347656 190.128906 466.226562 187.054688 C 462.019531 183.921875 458.125 181.640625 454.519531 180.738281 C 451.179688 179.902344 447.527344 179.527344 443.632812 179.378906 C 439.800781 179.230469 435.726562 179.308594 431.488281 179.394531 L 430.09375 179.417969 L 429.8125 180.378906 C 429.710938 180.707031 429.578125 180.980469 429.390625 181.195312 C 429.226562 181.375 429.007812 181.523438 428.742188 181.625 L 427.695312 182.015625 L 427.859375 183.109375 C 428.078125 184.507812 428.085938 185.648438 427.898438 186.515625 C 427.75 187.210938 427.464844 187.710938 427.066406 187.996094 L 425.792969 188.902344 L 426.863281 190.035156 C 427.6875 190.910156 428.539062 191.855469 429.382812 192.792969 L 429.828125 193.285156 L 425.644531 189.644531 L 425.292969 192.128906 C 425.183594 192.917969 424.972656 193.527344 424.660156 193.949219 C 424.394531 194.308594 424.050781 194.546875 423.617188 194.65625 L 421.515625 195.195312 L 422.914062 196.84375 C 427.363281 202.074219 431.347656 206.746094 435.710938 210.695312 C 440.121094 214.675781 444.875 217.855469 450.8125 220.011719 C 455.621094 221.757812 461.144531 223.070312 466.851562 223.929688 Z M 463.183594 264.0625 C 466.914062 265.078125 470.433594 265.664062 473.523438 265.648438 L 475.292969 265.648438 C 475.292969 265.648438 474.84375 263.945312 474.84375 263.945312 C 473.296875 258.113281 471.4375 251.320312 468.566406 244.425781 C 465.671875 237.492188 461.753906 230.464844 456.097656 224.21875 L 455.832031 223.921875 L 455.449219 223.8125 C 454.582031 223.578125 453.652344 223.296875 452.671875 222.992188 C 451.734375 222.695312 450.867188 222.398438 450.070312 222.109375 C 445.296875 220.378906 441.308594 218.066406 437.6875 215.277344 C 434.035156 212.460938 430.734375 209.132812 427.386719 205.402344 L 427.160156 205.144531 L 423.925781 203.988281 L 421.820312 203.292969 L 418.261719 202.214844 L 417.957031 203.652344 C 417.722656 204.753906 417.347656 205.550781 416.847656 206.027344 C 416.421875 206.425781 415.851562 206.605469 415.140625 206.558594 L 414.460938 206.519531 L 413.71875 207.410156 C 413.570312 208.25 413.40625 209.046875 413.226562 209.882812 L 414.21875 210.335938 C 426.105469 215.769531 429.445312 217.542969 436.210938 224.09375 C 429 218.699219 424.308594 216.074219 413.75 211.117188 L 412.894531 210.71875 L 412.222656 211.382812 C 412.089844 211.507812 411.957031 211.617188 411.800781 211.703125 C 411.667969 211.78125 411.511719 211.84375 411.347656 211.890625 L 407.742188 212.84375 L 411.121094 214.429688 C 414.054688 215.816406 416.878906 217.472656 419.707031 219.792969 C 422.554688 222.132812 425.433594 225.164062 428.453125 229.292969 C 431.183594 233.019531 433.433594 236.945312 435.28125 240.96875 C 437.125 244.996094 438.582031 249.15625 439.707031 253.335938 L 439.855469 253.882812 L 440.347656 254.164062 C 441.964844 255.089844 443.695312 256.027344 445.5 256.949219 C 447.238281 257.839844 448.957031 258.667969 450.632812 259.425781 C 454.878906 261.351562 459.164062 262.960938 463.199219 264.0625 Z M 425.886719 279.710938 C 430.140625 283.214844 434.425781 286.597656 438.558594 289.8125 L 440.621094 291.414062 L 440.753906 288.804688 C 440.941406 285.027344 441.003906 280.90625 440.839844 276.585938 C 440.667969 272.261719 440.269531 267.734375 439.519531 263.148438 C 438.621094 257.605469 437.21875 251.960938 435.148438 246.472656 C 433.058594 240.960938 430.28125 235.585938 426.628906 230.613281 C 423.609375 226.476562 420.6875 223.476562 417.753906 221.160156 C 414.8125 218.839844 411.871094 217.222656 408.804688 215.871094 L 407.90625 215.464844 L 407.25 216.199219 C 406.945312 216.535156 406.601562 216.761719 406.234375 216.863281 C 405.835938 216.972656 405.355469 216.957031 404.816406 216.816406 L 403.542969 216.488281 L 403.175781 217.746094 C 402.972656 218.441406 402.746094 219.042969 402.480469 219.558594 C 402.246094 220.027344 401.980469 220.410156 401.703125 220.707031 L 400.609375 221.882812 L 401.941406 222.773438 C 410.386719 228.417969 414.03125 232.089844 417.535156 238.945312 C 412.9375 232.253906 408.40625 228.097656 399.132812 221.984375 L 397.777344 221.089844 L 396.941406 223.007812 C 396.425781 224.140625 395.832031 224.882812 395.191406 225.21875 C 394.652344 225.5 393.984375 225.492188 393.210938 225.179688 L 391.734375 224.539062 L 391.195312 225.789062 C 390.746094 226.828125 390.261719 227.609375 389.746094 228.136719 C 389.332031 228.550781 388.894531 228.792969 388.457031 228.839844 L 386.84375 229.027344 L 387.316406 230.582031 C 387.855469 232.378906 388.503906 234.246094 389.277344 236.210938 C 390.042969 238.171875 390.976562 240.273438 392.09375 242.566406 C 394.28125 247.027344 397.355469 251.5 401.015625 255.902344 C 404.644531 260.269531 408.875 264.609375 413.414062 268.839844 C 417.394531 272.542969 421.617188 276.1875 425.886719 279.695312 Z M 385.835938 285.738281 C 387.265625 288.109375 388.800781 290.46875 390.410156 292.757812 C 393.09375 296.574219 395.964844 300.136719 398.875 303.132812 C 401.554688 305.898438 404.292969 308.183594 406.976562 309.753906 L 408.5 310.644531 L 408.976562 308.949219 C 410.347656 304.070312 411.878906 298.488281 412.945312 292.453125 C 414.023438 286.371094 414.625 279.828125 414.140625 273.050781 L 414.101562 272.519531 L 411.886719 270.488281 C 407.453125 266.34375 403.285156 262.09375 399.65625 257.769531 C 396.050781 253.46875 392.96875 249.117188 390.683594 244.753906 L 383.105469 230.285156 L 388.183594 245.800781 C 388.636719 247.191406 389.058594 248.609375 389.550781 250.265625 L 390.292969 252.742188 L 387.980469 247.394531 C 385.882812 242.527344 383.789062 237.640625 380.761719 231.550781 L 380.582031 231.183594 L 379.1875 230.371094 L 378.453125 231.300781 C 378.15625 231.675781 377.828125 232.042969 377.484375 232.394531 C 377.140625 232.746094 376.835938 233.011719 376.539062 233.230469 L 375.582031 233.949219 L 376.167969 234.984375 C 378.007812 238.25 379.609375 241.417969 380.871094 244.785156 C 382.128906 248.148438 383.074219 251.734375 383.617188 255.855469 C 384 258.824219 384 262.140625 383.679688 265.640625 C 383.332031 269.394531 382.613281 273.371094 381.597656 277.375 L 381.480469 277.867188 L 381.714844 278.320312 C 382.996094 280.8125 384.390625 283.316406 385.851562 285.738281 Z M 354.578125 294.632812 C 356.28125 299.855469 358.222656 304.953125 360.339844 309.667969 L 361.082031 311.308594 L 362.460938 310.160156 C 364.789062 308.222656 367.167969 305.1875 369.421875 301.460938 C 371.726562 297.652344 373.925781 293.070312 375.816406 288.179688 C 378 282.542969 379.742188 276.53125 380.738281 270.832031 C 381.660156 265.539062 381.964844 260.472656 381.394531 256.160156 C 380.847656 251.976562 379.835938 248.3125 378.476562 244.847656 C 377.132812 241.417969 375.425781 238.171875 373.480469 234.789062 L 373.199219 234.292969 L 372.648438 234.152344 C 372.382812 234.082031 372.101562 233.980469 371.8125 233.847656 C 371.507812 233.707031 371.203125 233.542969 370.914062 233.363281 L 369.984375 232.769531 L 369.21875 233.566406 C 368.886719 233.902344 368.550781 234.207031 368.214844 234.480469 C 367.902344 234.734375 367.582031 234.945312 367.269531 235.125 L 366.246094 235.6875 L 366.652344 236.78125 C 369.070312 243.261719 370.273438 248.164062 370.5 253.789062 C 370.539062 254.699219 370.546875 255.621094 370.53125 256.574219 L 370.28125 254.597656 C 369.421875 248.515625 367.941406 242.964844 365.558594 236.492188 L 365.289062 235.773438 L 364.53125 235.625 C 364.117188 235.546875 363.695312 235.390625 363.289062 235.171875 C 362.859375 234.945312 362.40625 234.625 361.953125 234.214844 L 361.074219 233.449219 L 360.175781 234.199219 C 358.902344 235.265625 357.695312 235.742188 356.585938 235.648438 C 355.460938 235.554688 354.324219 234.867188 353.214844 233.582031 L 352.441406 232.691406 L 351.449219 233.339844 L 350.863281 233.691406 L 349.75 234.191406 L 349.554688 234.804688 C 348.890625 236.875 348.296875 238.929688 347.796875 240.992188 C 347.289062 243.089844 346.886719 245.183594 346.644531 247.277344 C 346.238281 250.695312 346.355469 255.238281 346.925781 260.441406 C 347.5 265.726562 348.539062 271.714844 349.96875 277.9375 C 351.222656 283.433594 352.792969 289.109375 354.601562 294.632812 Z M 313.0625 274.796875 C 312.554688 279.703125 312.53125 284.527344 312.921875 289.039062 C 313.273438 293.179688 313.96875 297.066406 314.949219 300.488281 C 315.941406 303.960938 317.222656 306.984375 318.75 309.355469 L 319.453125 310.457031 L 320.578125 309.800781 C 323.136719 308.300781 325.742188 306.054688 328.289062 303.304688 C 331.042969 300.347656 333.75 296.785156 336.269531 292.953125 C 338.292969 289.882812 340.179688 286.667969 341.867188 283.488281 C 343.621094 280.15625 345.191406 276.8125 346.496094 273.636719 L 346.652344 273.253906 L 346.574219 272.863281 C 345.542969 267.578125 344.808594 262.554688 344.441406 258.082031 C 344.082031 253.757812 344.058594 249.976562 344.402344 247.011719 C 344.644531 244.949219 345.011719 242.957031 345.464844 240.984375 C 345.917969 239.015625 346.472656 237.046875 347.09375 235.0625 L 347.382812 234.136719 L 346.589844 233.558594 C 346.324219 233.363281 346.042969 233.113281 345.769531 232.832031 C 345.488281 232.535156 345.214844 232.199219 344.933594 231.816406 L 343.457031 229.753906 L 342.546875 232.113281 C 340.671875 237 338.785156 241.339844 336.886719 245.730469 C 335.585938 248.734375 334.265625 251.765625 332.945312 254.980469 C 334.53125 249.546875 336.113281 245.839844 337.917969 241.605469 C 338.925781 239.242188 340 236.726562 341.257812 233.464844 L 341.828125 231.988281 L 340.28125 231.652344 C 339.78125 231.542969 339.285156 231.300781 338.824219 230.925781 C 338.308594 230.511719 337.808594 229.941406 337.339844 229.222656 L 336.394531 227.769531 L 335.203125 229.035156 C 334.226562 230.074219 333.273438 231.128906 332.332031 232.191406 C 331.402344 233.253906 330.511719 234.316406 329.660156 235.375 C 326.515625 239.265625 323.800781 243.261719 321.496094 247.496094 C 319.1875 251.742188 317.292969 256.214844 315.800781 261.066406 C 314.417969 265.570312 313.515625 270.214844 313.039062 274.804688 Z M 292.933594 268.886719 C 292.230469 271.644531 291.617188 274.441406 291.125 277.210938 C 290.304688 281.808594 289.78125 286.347656 289.703125 290.515625 C 289.625 294.367188 289.921875 297.910156 290.695312 300.910156 L 291.132812 302.625 L 292.675781 301.773438 C 295.339844 300.292969 298.210938 298.675781 301.144531 296.902344 C 304.101562 295.097656 307.160156 293.09375 310.183594 290.835938 L 310.796875 290.382812 L 310.695312 289.25 C 310.292969 284.574219 310.316406 279.585938 310.835938 274.550781 C 311.328125 269.832031 312.25 265.046875 313.679688 260.410156 C 314.371094 258.183594 315.144531 256.003906 316.011719 253.882812 C 316.863281 251.78125 317.808594 249.75 318.84375 247.761719 L 330.183594 225.960938 L 316.503906 246.371094 C 315.855469 247.347656 315.285156 248.101562 314.785156 248.734375 C 316.410156 245.472656 317.921875 242.980469 319.453125 240.421875 C 321.839844 236.46875 324.292969 232.386719 327.414062 225.234375 L 328.117188 223.625 L 326.375 223.351562 C 326.117188 223.3125 325.859375 223.234375 325.601562 223.117188 C 325.351562 223 325.105469 222.851562 324.886719 222.671875 L 323.597656 221.617188 L 320.023438 228.378906 C 317.875 232.480469 315.808594 236.429688 313.625 240.117188 C 311.484375 243.746094 309.246094 247.074219 306.757812 249.960938 C 305.484375 251.445312 303.890625 253.054688 302.058594 254.722656 C 300.191406 256.425781 298.078125 258.183594 295.816406 259.917969 L 295.488281 260.175781 L 295.355469 260.574219 C 294.480469 263.242188 293.660156 266.039062 292.941406 268.886719 Z M 264.855469 240.429688 C 261.882812 244.722656 259.398438 249.210938 257.449219 253.609375 C 255.652344 257.683594 254.304688 261.6875 253.46875 265.398438 C 252.617188 269.167969 252.28125 272.660156 252.507812 275.640625 L 252.609375 276.929688 L 253.898438 276.898438 C 257.058594 276.828125 260.648438 276.070312 264.441406 274.8125 C 268.5625 273.441406 272.933594 271.496094 277.257812 269.207031 C 282.835938 266.25 288.308594 262.742188 293.074219 259.191406 C 298.03125 255.503906 302.253906 251.734375 305.054688 248.484375 C 307.472656 245.675781 309.667969 242.386719 311.789062 238.773438 C 313.898438 235.203125 315.925781 231.332031 318.03125 227.3125 L 318.1875 227.015625 C 319.414062 224.671875 320.671875 222.273438 321.980469 219.863281 L 323.074219 217.855469 L 320.78125 217.855469 C 320.4375 217.855469 320.117188 217.816406 319.804688 217.722656 C 319.515625 217.636719 319.242188 217.503906 318.992188 217.324219 L 317.929688 216.589844 L 317.136719 217.605469 C 313.726562 222 310.625 225.9375 306.847656 229.238281 L 306.523438 229.503906 C 309.941406 225.859375 313.03125 221.8125 316.175781 217.675781 L 317.628906 215.769531 L 317.316406 215.042969 C 317.167969 214.707031 317.042969 214.335938 316.917969 213.960938 C 316.800781 213.578125 316.691406 213.148438 316.589844 212.679688 L 316.363281 211.632812 L 315.277344 211.609375 C 314.597656 211.59375 314 211.40625 313.523438 211.0625 C 313 210.679688 312.554688 210.085938 312.203125 209.296875 L 311.703125 208.1875 L 310.554688 208.546875 C 308.769531 209.101562 307.035156 209.679688 305.351562 210.28125 C 303.648438 210.898438 301.988281 211.53125 300.394531 212.1875 C 295.464844 214.210938 290.898438 216.550781 286.605469 219.300781 C 282.304688 222.070312 278.261719 225.265625 274.398438 229.027344 C 270.808594 232.511719 267.601562 236.382812 264.824219 240.390625 Z M 249.082031 228.324219 C 247.390625 229.972656 245.71875 231.714844 244.089844 233.503906 C 240.796875 237.140625 237.828125 240.890625 235.503906 244.535156 C 233.351562 247.902344 231.734375 251.195312 230.898438 254.226562 L 230.554688 255.472656 L 231.773438 255.878906 C 234.472656 256.785156 237.742188 257.308594 241.363281 257.449219 C 244.953125 257.582031 248.902344 257.347656 253.015625 256.722656 L 253.796875 256.605469 L 254.710938 254.289062 L 255.390625 252.703125 C 257.402344 248.171875 259.960938 243.558594 263.011719 239.140625 C 265.871094 235 269.171875 231.027344 272.847656 227.453125 C 276.8125 223.601562 280.957031 220.316406 285.378906 217.480469 C 289.804688 214.636719 294.503906 212.234375 299.566406 210.148438 C 301.019531 209.546875 302.519531 208.96875 304.078125 208.40625 C 305.625 207.84375 307.199219 207.300781 308.785156 206.792969 L 311.570312 205.902344 L 309.097656 204.355469 C 308.800781 204.167969 308.535156 203.910156 308.300781 203.597656 C 308.042969 203.253906 307.824219 202.832031 307.644531 202.324219 L 307.214844 201.140625 L 302.003906 202.519531 L 297.710938 203.574219 L 297.453125 203.808594 C 293.457031 207.480469 289.59375 210.75 285.386719 213.484375 C 281.199219 216.207031 276.625 218.433594 271.175781 220.050781 C 268.609375 220.808594 266.011719 221.4375 263.402344 221.914062 C 260.710938 222.414062 257.988281 222.773438 255.257812 223 L 254.820312 223.039062 L 254.476562 223.34375 C 252.664062 224.921875 250.839844 226.59375 249.074219 228.332031 Z M 261.898438 187.777344 C 254.273438 195.820312 244.222656 206.402344 222.238281 213.398438 L 219.039062 214.414062 L 222.042969 215.910156 C 224.492188 217.121094 227.371094 218.160156 230.5625 218.972656 C 233.679688 219.769531 237.136719 220.355469 240.796875 220.699219 C 245.601562 221.152344 250.730469 221.175781 255.933594 220.683594 C 260.8125 220.230469 265.753906 219.316406 270.550781 217.894531 C 283.53125 214.046875 291.53125 206.433594 301.714844 196.75 C 302.277344 196.34375 303.320312 195.226562 303.921875 194.664062 L 303.8125 193.957031 C 303.742188 193.503906 303.695312 193.027344 303.6875 192.542969 C 303.671875 192.035156 303.6875 191.464844 303.726562 190.863281 L 303.789062 189.933594 L 302.925781 189.542969 C 302.542969 189.371094 302.222656 189.097656 301.980469 188.746094 C 301.707031 188.363281 301.503906 187.847656 301.378906 187.21875 L 300.996094 185.289062 L 299.320312 186.328125 C 297.523438 187.445312 295.867188 188.527344 294.332031 189.550781 C 292.871094 190.527344 291.546875 191.441406 290.328125 192.292969 L 289.023438 193.199219 C 286.878906 194.703125 285.035156 195.992188 283.078125 197.179688 C 281.945312 197.875 280.769531 198.523438 279.488281 199.164062 L 277.785156 199.960938 C 281.050781 197.90625 283.992188 195.820312 287.105469 193.605469 C 291.023438 190.832031 295.230469 187.839844 300.738281 184.460938 L 301.285156 184.132812 L 301.621094 181.976562 L 300.894531 181.484375 C 300.449219 181.1875 300.136719 180.707031 299.964844 180.058594 C 299.753906 179.261719 299.738281 178.230469 299.917969 176.980469 L 300.144531 175.480469 L 296.265625 175.378906 L 293.933594 175.378906 C 292.910156 175.394531 291.90625 175.425781 290.9375 175.464844 L 287.941406 175.644531 C 287.003906 175.714844 286.011719 175.808594 284.988281 175.917969 C 283.992188 176.027344 283.015625 176.144531 282.0625 176.277344 L 279.167969 176.722656 C 278.292969 176.871094 277.335938 177.050781 276.296875 177.253906 C 270.800781 178.363281 266.890625 182.476562 261.921875 187.71875 L 261.898438 187.75 Z M 248.164062 161.058594 C 244.050781 159.085938 239.9375 156.773438 236.058594 154.238281 L 235.613281 153.941406 L 235.082031 154.042969 C 230.289062 154.90625 225.570312 156.070312 221.308594 157.453125 C 217.164062 158.796875 213.402344 160.367188 210.328125 162.105469 L 208.71875 163.011719 L 210.0625 164.269531 C 219.238281 172.867188 227.324219 178.699219 235.152344 182.320312 C 243.050781 185.96875 250.683594 187.375 258.902344 187.101562 L 259.46875 187.078125 L 260.289062 186.21875 C 265.527344 180.683594 269.65625 176.339844 275.859375 175.089844 C 279.433594 174.367188 283.109375 173.835938 286.878906 173.515625 C 290.578125 173.195312 294.316406 173.085938 298.0625 173.1875 L 299.558594 173.226562 L 299.453125 171.734375 C 299.429688 171.328125 299.445312 170.882812 299.511719 170.398438 C 299.574219 169.890625 299.699219 169.320312 299.871094 168.710938 L 300.199219 167.550781 L 292.613281 164.433594 L 292.199219 164.527344 C 286.363281 165.871094 281.011719 166.964844 275.757812 167.300781 C 270.550781 167.628906 265.394531 167.230469 259.875 165.605469 C 256.105469 164.496094 252.132812 162.933594 248.179688 161.039062 Z M 269.734375 128.085938 C 265.300781 127.511719 260.195312 127.238281 254.726562 127.230469 C 249.027344 127.214844 242.988281 127.472656 236.917969 127.945312 C 230.375 128.445312 223.742188 129.1875 217.429688 130.078125 L 215.632812 130.335938 L 216.375 131.984375 C 217.46875 134.410156 219.347656 137.019531 221.777344 139.667969 C 224.304688 142.414062 227.457031 145.21875 230.984375 147.933594 C 235.441406 151.355469 240.492188 154.585938 245.632812 157.289062 C 250.605469 159.914062 255.699219 162.066406 260.46875 163.472656 C 272.246094 166.933594 282.59375 164.496094 295.769531 161.394531 C 297.609375 160.945312 299.460938 160.507812 301.316406 160.09375 C 301.910156 158.914062 302.519531 157.765625 303.136719 156.59375 L 297.179688 156.578125 C 284.796875 156.570312 275.898438 156.554688 266.425781 153.941406 C 275.976562 155.710938 285.222656 155.71875 296.429688 155.71875 L 302.128906 155.71875 C 302.128906 155.71875 302.457031 154.828125 302.457031 154.828125 C 302.667969 154.246094 302.988281 153.597656 303.4375 152.902344 C 303.859375 152.238281 304.398438 151.511719 305.0625 150.761719 L 305.4375 150.332031 L 305.398438 149.769531 L 305.398438 149.199219 L 305.484375 148.605469 L 305.671875 147.746094 L 304.960938 147.21875 C 303.128906 145.867188 301.292969 144.460938 299.5 143.085938 L 299.023438 142.726562 C 293.207031 138.277344 287.785156 134.132812 282.335938 131.5 C 281.664062 131.226562 280.925781 130.8125 280.261719 130.578125 C 277.460938 129.4375 273.863281 128.609375 269.710938 128.070312 Z M 291.117188 91.085938 C 287.019531 89.09375 282.195312 87.332031 276.96875 85.808594 C 271.675781 84.269531 265.980469 82.972656 260.21875 81.949219 C 253.976562 80.828125 247.6875 80.007812 241.777344 79.484375 L 239.664062 79.304688 L 240.367188 81.300781 C 242.269531 86.644531 244.074219 91.46875 246.109375 95.894531 C 248.15625 100.347656 250.425781 104.359375 253.210938 108.042969 C 256.167969 111.933594 259.742188 115.515625 264.316406 118.90625 C 268.851562 122.269531 274.367188 125.449219 281.25 128.585938 C 281.851562 128.898438 282.640625 129.210938 283.273438 129.492188 C 290.515625 132.671875 295.652344 134.777344 299.675781 136.175781 C 303.75 137.597656 306.679688 138.308594 309.480469 138.691406 L 310.953125 138.894531 L 311.023438 137.402344 C 311.054688 136.714844 311.15625 136.097656 311.320312 135.574219 C 311.476562 135.082031 311.679688 134.667969 311.9375 134.339844 L 312.960938 133 L 311.445312 132.28125 C 308.199219 130.734375 304.945312 129.320312 301.246094 127.71875 L 299.730469 127.058594 C 305.335938 128.84375 308.941406 130.007812 313.09375 131.921875 L 313.664062 132.179688 L 314.996094 131.578125 L 315.050781 130.757812 C 315.121094 129.554688 315.363281 128.578125 315.753906 127.84375 C 316.097656 127.191406 316.574219 126.722656 317.183594 126.433594 L 317.480469 126.300781 L 317.675781 126.042969 C 317.820312 125.871094 317.984375 125.699219 318.171875 125.550781 C 318.335938 125.410156 318.539062 125.292969 318.765625 125.191406 L 320.226562 124.535156 L 319.34375 123.199219 C 318.023438 121.207031 316.886719 119.460938 315.785156 117.757812 L 315.441406 117.226562 C 312.984375 113.425781 310.625 109.777344 308.167969 106.375 C 305.71875 102.984375 303.234375 99.910156 300.574219 97.332031 C 298.203125 95.042969 294.964844 92.953125 291.132812 91.09375 Z M 294.964844 80.25 C 294.191406 77.007812 293.675781 73.753906 293.433594 70.574219 L 293.386719 69.980469 L 292.917969 69.613281 C 291.125 68.191406 289.21875 66.75 287.214844 65.335938 C 285.277344 63.960938 283.328125 62.664062 281.40625 61.476562 C 277.257812 58.886719 273.035156 56.636719 269.015625 54.988281 C 265.324219 53.46875 261.796875 52.460938 258.644531 52.179688 L 257.363281 52.0625 L 257.175781 53.335938 C 256.738281 56.316406 256.832031 59.816406 257.410156 63.625 C 257.980469 67.367188 259.042969 71.449219 260.5625 75.648438 L 261.257812 77.515625 L 262.296875 80.0625 L 263.019531 80.203125 C 265.535156 80.6875 268.070312 81.238281 270.574219 81.832031 C 272.941406 82.394531 275.289062 83.011719 277.582031 83.675781 C 281.226562 84.738281 284.695312 85.917969 287.871094 87.214844 C 290.875 88.445312 293.628906 89.78125 296.046875 91.21875 L 299.589844 93.320312 L 298 89.53125 C 296.71875 86.472656 295.707031 83.347656 294.957031 80.257812 Z M 324.152344 92.523438 C 322.183594 89.6875 319.8125 86.839844 316.488281 83.238281 C 325.367188 89.640625 327.34375 94.101562 331.292969 103.0625 C 332.058594 104.804688 332.90625 106.71875 333.921875 108.933594 L 334.359375 109.886719 L 335.390625 109.699219 C 335.71875 109.644531 336.097656 109.628906 336.503906 109.660156 C 336.933594 109.691406 337.386719 109.769531 337.847656 109.902344 L 338.011719 109.949219 L 339.238281 109.964844 L 339.597656 109.152344 C 339.90625 108.496094 340.242188 107.941406 340.617188 107.5 C 340.960938 107.09375 341.335938 106.78125 341.742188 106.570312 L 342.59375 106.117188 L 342.453125 105.171875 C 341.921875 101.476562 341.398438 97.910156 340.695312 94.519531 C 339.992188 91.109375 339.105469 87.9375 337.894531 85.113281 C 336.691406 82.339844 334.398438 79.8125 331.464844 77.367188 C 328.617188 74.984375 325.179688 72.667969 321.542969 70.222656 C 317.8125 67.707031 313.875 65.054688 310.175781 62.085938 C 306.492188 59.128906 302.996094 55.816406 300.089844 51.953125 L 298.609375 50 L 297.726562 52.28125 C 296.8125 54.652344 296.171875 57.378906 295.800781 60.347656 C 295.449219 63.273438 295.371094 66.453125 295.589844 69.761719 C 295.867188 73.902344 296.617188 78.226562 297.875 82.519531 C 299.046875 86.535156 300.667969 90.515625 302.769531 94.253906 C 305.429688 98.996094 308.761719 102.679688 312.6875 105.921875 C 316.566406 109.128906 321.007812 111.917969 325.960938 114.90625 L 326.742188 115.375 L 327.476562 114.828125 C 327.765625 114.609375 328.085938 114.453125 328.4375 114.351562 C 328.816406 114.238281 329.238281 114.183594 329.699219 114.191406 L 329.917969 114.191406 C 329.917969 114.191406 330.558594 114.027344 330.558594 114.027344 L 331.972656 113.902344 L 332.261719 113.042969 C 332.386719 112.675781 332.539062 112.316406 332.703125 111.980469 C 332.835938 111.699219 333.007812 111.417969 333.195312 111.160156 L 333.65625 110.519531 L 333.320312 109.792969 C 329.605469 101.851562 327.421875 97.222656 324.144531 92.515625 Z M 341.453125 81.316406 C 341 79.414062 340.492188 77.523438 339.945312 75.640625 C 340.648438 77.695312 341.28125 79.703125 341.875 81.730469 L 348.53125 104.164062 L 344.527344 81.121094 L 344.316406 79.796875 L 344.144531 78.492188 C 343.769531 75.25 343.957031 71.339844 344.566406 67.054688 C 345.253906 62.335938 346.449219 57.167969 348.007812 51.921875 L 348.382812 50.671875 L 346.925781 47.757812 L 345.589844 45.277344 C 343.394531 41.339844 340.796875 37.242188 337.777344 32.933594 C 334.757812 28.628906 331.332031 24.132812 327.484375 19.410156 L 326.03125 17.621094 L 325.171875 19.761719 C 322.714844 25.84375 320.117188 32.597656 318.414062 39.960938 C 316.707031 47.371094 315.902344 55.386719 317.074219 63.929688 L 317.152344 64.523438 C 319.039062 65.84375 320.945312 67.117188 322.839844 68.417969 C 329.675781 73.019531 335.851562 77.1875 338.957031 82.332031 L 343.464844 89.789062 L 341.453125 81.324219 Z M 375.363281 54.535156 C 374.597656 50.007812 373.527344 45.691406 372.234375 41.699219 C 371.125 38.25 369.859375 35.046875 368.496094 32.128906 C 367.066406 29.082031 365.519531 26.335938 363.921875 23.992188 L 362.648438 22.109375 L 361.589844 24.117188 C 359.417969 28.269531 357.25 32.972656 355.28125 37.882812 C 353.363281 42.644531 351.605469 47.632812 350.15625 52.523438 C 348.648438 57.605469 347.484375 62.570312 346.808594 67.0625 C 346.183594 71.246094 345.996094 75.054688 346.363281 78.203125 C 346.769531 81.683594 347.648438 85.292969 348.78125 89.039062 C 349.898438 92.734375 351.285156 96.605469 352.722656 100.621094 L 354.121094 104.53125 L 356.25 105.640625 L 356.898438 104.507812 C 357.21875 103.953125 357.585938 103.492188 357.984375 103.171875 C 358.308594 102.90625 358.644531 102.734375 358.996094 102.679688 L 360.050781 102.507812 L 360.121094 101.4375 C 360.246094 99.691406 360.324219 97.917969 360.394531 96.121094 L 360.566406 92.53125 C 360.824219 95.824219 360.988281 98.847656 360.800781 102.375 L 360.761719 103.0625 L 362.804688 104.734375 L 363.648438 103.539062 C 363.796875 103.328125 363.953125 103.140625 364.09375 102.992188 C 364.507812 102.570312 364.945312 102.34375 365.394531 102.34375 C 365.917969 102.335938 366.535156 102.578125 367.238281 103.078125 C 367.613281 103.335938 368.003906 103.671875 368.394531 104.046875 L 369.445312 105.070312 C 369.984375 104.421875 370.4375 103.875 371.03125 103.296875 L 372.101562 100.152344 L 372.972656 97.316406 C 374.394531 92.390625 375.386719 87.527344 375.980469 82.636719 C 376.578125 77.757812 376.78125 72.824219 376.648438 67.746094 C 376.523438 63.179688 376.066406 58.738281 375.347656 54.527344 Z M 412.417969 73.042969 C 412.417969 68.910156 411.957031 64.296875 411.472656 59.425781 C 410.980469 54.488281 410.457031 49.28125 410.355469 43.957031 C 410.253906 38.671875 410.566406 33.238281 411.722656 27.777344 L 412.269531 25.21875 L 409.871094 26.234375 C 406.601562 27.621094 402.988281 29.636719 399.429688 32.269531 C 396.324219 34.578125 393.242188 37.359375 390.480469 40.59375 C 387.605469 43.957031 385.054688 47.828125 383.144531 52.179688 C 381.433594 56.082031 380.222656 60.371094 379.742188 65.039062 C 378.203125 80.015625 379.117188 90.492188 380.292969 103.875 C 380.347656 104.0625 380.363281 104.609375 380.386719 104.828125 L 380.785156 105.1875 L 381.355469 105.75 L 381.957031 106.445312 L 382.824219 107.523438 L 383.890625 106.632812 C 384.171875 106.398438 384.453125 106.226562 384.726562 106.125 C 384.960938 106.039062 385.1875 106 385.421875 106.015625 L 386.78125 106.085938 L 387.023438 101.4375 C 387.582031 90.65625 388.519531 72.425781 393.265625 60.636719 C 392.601562 63.554688 391.992188 66.796875 391.453125 70.191406 C 389.167969 84.457031 387.902344 101.382812 387.597656 106.742188 L 387.566406 107.273438 C 388.230469 108.066406 388.746094 108.800781 389.339844 109.660156 L 390.449219 108.894531 C 390.886719 108.589844 391.304688 108.441406 391.6875 108.433594 C 392.054688 108.417969 392.445312 108.550781 392.835938 108.808594 L 393.914062 109.503906 C 394.964844 108.089844 396.058594 106.671875 397.082031 105.242188 C 402.535156 97.925781 407.5625 91.1875 410.527344 84.417969 C 411.949219 81.167969 412.433594 77.3125 412.433594 73.035156 Z M 430.179688 70.144531 C 435.125 67.4375 440.316406 65.265625 445.304688 63.429688 L 445.949219 63.195312 L 446.144531 62.539062 C 447.199219 59.003906 448.011719 55.550781 448.480469 52.3125 C 448.917969 49.28125 449.058594 46.425781 448.832031 43.886719 L 448.675781 42.136719 L 447.019531 42.738281 C 442.195312 44.480469 436.695312 46.503906 431.046875 49.21875 C 425.386719 51.9375 419.621094 55.332031 414.34375 59.785156 L 413.796875 60.246094 L 413.867188 60.960938 C 414.195312 64.257812 414.484375 67.429688 414.601562 70.449219 C 414.71875 73.425781 414.65625 76.25 414.296875 78.882812 L 413.757812 82.855469 L 416.613281 80.03125 C 420.59375 76.085938 425.269531 72.855469 430.1875 70.167969 Z M 446.230469 97.519531 C 449.789062 92.585938 453.355469 86.996094 456.308594 81.449219 C 458.296875 77.71875 460 74.003906 461.246094 70.535156 C 462.386719 67.34375 463.128906 64.351562 463.332031 61.710938 L 463.488281 59.675781 L 457.179688 61.757812 C 444.320312 65.9375 426.730469 71.660156 416.078125 83.808594 C 412.832031 87.503906 410.105469 91.34375 407.789062 95.402344 C 405.472656 99.449219 403.558594 103.734375 401.941406 108.316406 L 401.195312 110.503906 L 400.328125 113.300781 C 400.789062 114.105469 401.210938 114.898438 401.648438 115.71875 L 402.808594 115.203125 C 403.425781 114.9375 403.988281 114.945312 404.488281 115.234375 C 405.152344 115.609375 405.796875 116.429688 406.40625 117.65625 L 407.359375 119.570312 L 408.6875 117.898438 C 409.808594 116.492188 411.003906 115.320312 413.203125 113.269531 C 411.707031 115.195312 410.753906 116.445312 409.871094 117.679688 L 409.132812 118.710938 L 410.121094 119.515625 C 410.449219 119.78125 410.769531 120.1875 411.082031 120.71875 C 411.417969 121.285156 411.738281 122.011719 412.027344 122.871094 L 412.410156 124.003906 L 413.585938 123.769531 C 413.78125 123.730469 413.96875 123.722656 414.148438 123.746094 C 414.304688 123.761719 414.460938 123.816406 414.617188 123.902344 L 415.289062 124.261719 C 415.703125 124.011719 416.125 123.746094 416.542969 123.519531 C 420.210938 121.347656 423.726562 119.265625 427.003906 117.085938 L 427.113281 117.015625 C 428.5625 115.828125 429.929688 114.734375 431.199219 113.746094 C 432.511719 112.714844 433.824219 111.714844 435.140625 110.761719 L 435.28125 110.644531 C 438.335938 107.714844 442.273438 103.039062 446.230469 97.542969 Z M 429.570312 131.421875 C 442.914062 126.222656 447.238281 124.542969 458.09375 117.109375 C 454.308594 120.75 451.601562 123.089844 448.816406 124.871094 C 444.648438 127.527344 440.113281 129.078125 431.363281 132.054688 L 423.140625 134.878906 L 423.609375 136.175781 C 423.757812 136.582031 423.886719 137.042969 423.988281 137.574219 C 424.089844 138.113281 424.167969 138.730469 424.230469 139.410156 L 424.308594 140.378906 L 425.246094 140.621094 C 425.449219 140.675781 425.628906 140.800781 425.800781 140.988281 C 426.027344 141.25 426.222656 141.617188 426.378906 142.101562 L 426.730469 143.195312 L 429.828125 142.726562 L 431.769531 142.390625 C 437.007812 141.445312 441.964844 140.113281 446.753906 138.316406 C 451.546875 136.511719 456.167969 134.234375 460.746094 131.367188 C 464.984375 128.710938 468.925781 125.613281 472.492188 122.261719 C 476.300781 118.679688 479.679688 114.820312 482.503906 110.917969 C 484.933594 107.5625 486.976562 104.179688 488.539062 100.925781 C 490.128906 97.628906 491.222656 94.472656 491.753906 91.617188 L 492.128906 89.609375 L 490.128906 90.03125 C 485.222656 91.070312 479.84375 92.8125 474.421875 94.816406 C 469.035156 96.808594 463.589844 99.066406 458.523438 101.171875 L 458.40625 101.226562 C 454.941406 102.65625 451.65625 104.023438 448.613281 105.203125 C 446.949219 105.84375 445.09375 106.804688 443.09375 108.019531 C 441.105469 109.222656 438.988281 110.660156 436.78125 112.269531 L 436.648438 112.386719 C 435.445312 113.527344 434.152344 114.625 432.785156 115.679688 C 431.402344 116.75 429.9375 117.78125 428.421875 118.796875 L 428.3125 118.875 C 426.964844 119.976562 425.363281 121.316406 423.609375 122.808594 L 417.472656 128.09375 L 418.980469 129.078125 C 419.332031 129.304688 419.652344 129.71875 419.941406 130.320312 C 420.289062 131.03125 420.570312 131.960938 420.773438 133.109375 L 421.070312 134.746094 L 429.546875 131.421875 Z M 462.074219 136.082031 C 468.402344 136.410156 475.363281 139.003906 482.972656 141.835938 L 487.570312 143.539062 L 488.132812 143.195312 C 492.097656 140.769531 495.8125 138.152344 498.964844 135.464844 C 501.882812 132.96875 504.332031 130.40625 506.050781 127.867188 L 507.035156 126.410156 L 505.363281 125.824219 C 501.71875 124.542969 497.699219 123.160156 493.445312 121.949219 C 489.117188 120.71875 484.472656 119.648438 479.59375 119.007812 L 478.890625 118.921875 L 478.410156 119.445312 C 476.011719 122.066406 473.359375 124.613281 470.511719 127.003906 C 467.816406 129.265625 464.9375 131.375 461.933594 133.265625 L 457.75 135.871094 L 462.082031 136.097656 Z M 439.621094 157.234375 C 448.386719 159.09375 455.519531 160.601562 463.339844 161.230469 C 455.488281 161.347656 448.980469 159.992188 439.324219 157.984375 L 429.945312 156.070312 L 430.539062 158.203125 C 430.726562 158.875 430.796875 159.453125 430.757812 159.90625 C 430.726562 160.25 430.625 160.523438 430.453125 160.726562 L 429.921875 161.371094 L 430.890625 163.714844 C 431.167969 163.832031 431.589844 164.050781 431.847656 164.128906 C 444.773438 169.679688 454.917969 174.039062 468.410156 173.148438 C 473.40625 172.820312 478.347656 171.953125 483.082031 170.695312 C 488.117188 169.351562 492.925781 167.542969 497.285156 165.457031 C 500.710938 163.808594 503.84375 161.980469 506.589844 160.0625 C 509.367188 158.125 511.746094 156.078125 513.613281 154.011719 L 515.53125 151.894531 L 512.675781 151.746094 C 507.144531 151.457031 501.84375 150.371094 496.773438 148.933594 C 491.652344 147.476562 486.835938 145.679688 482.257812 143.984375 L 482.1875 143.953125 C 472.929688 140.503906 464.671875 137.433594 457.742188 138.511719 C 450.421875 139.652344 442.617188 142.789062 434.152344 146.1875 C 432.253906 146.929688 430.359375 147.703125 428.460938 148.472656 C 428.570312 149.300781 428.664062 150.066406 428.6875 150.902344 L 428.773438 151.121094 C 428.984375 151.660156 429.117188 152.152344 429.171875 152.574219 C 429.21875 152.925781 429.210938 153.222656 429.140625 153.464844 L 428.992188 154.003906 L 429.65625 155.171875 L 430.265625 155.296875 C 433.308594 155.90625 436.570312 156.601562 439.621094 157.242188 Z M 439.621094 157.234375 " fill-opacity="1" fill-rule="evenodd"/></g><path fill="#774e32" d="M 379.515625 232.152344 C 382.074219 233.949219 384.296875 233.066406 386.054688 229.566406 C 388.707031 231.082031 390.878906 229.988281 392.445312 226.335938 C 395.160156 227.578125 397.261719 226.28125 398.617188 222.515625 C 401.359375 223.484375 403.363281 221.992188 404.472656 218.144531 C 407.226562 218.847656 409.101562 217.183594 409.972656 213.265625 C 412.675781 213.703125 414.390625 211.914062 415 208.007812 L 415.054688 207.9375 C 417.691406 208.101562 419.214844 206.136719 419.527344 202.191406 C 422.09375 202.128906 423.421875 200.039062 423.453125 196.070312 C 425.878906 195.765625 426.988281 193.574219 426.707031 189.636719 C 428.960938 189.105469 429.8125 186.820312 429.21875 182.929688 C 431.253906 182.171875 431.832031 179.808594 430.90625 175.988281 C 432.691406 175.019531 432.964844 172.59375 431.707031 168.867188 C 433.183594 167.699219 433.128906 165.222656 431.535156 161.605469 C 432.503906 160.445312 432.339844 158.4375 431.054688 155.6875 C 430.953125 154.929688 430.765625 154.292969 430.484375 153.816406 C 430.710938 152.980469 430.570312 151.910156 430.070312 150.621094 C 430.007812 148.136719 429.390625 146.570312 428.242188 145.984375 C 428.257812 142.03125 427.363281 139.753906 425.628906 139.300781 C 425.308594 135.386719 424.144531 133.289062 422.226562 133.140625 C 421.578125 129.28125 420.167969 127.363281 418.105469 127.519531 C 417.152344 123.730469 415.53125 122.003906 413.359375 122.441406 C 412.105469 118.734375 410.300781 117.195312 408.0625 117.914062 C 406.53125 114.308594 404.566406 112.964844 402.300781 113.957031 C 400.507812 110.472656 398.414062 109.316406 396.152344 110.582031 C 394.117188 107.21875 391.921875 106.273438 389.707031 107.800781 C 387.457031 104.585938 385.179688 103.84375 383.042969 105.617188 C 380.597656 102.570312 378.28125 102.03125 376.238281 104.039062 C 373.628906 101.171875 371.289062 100.847656 369.390625 103.09375 C 366.636719 100.417969 364.3125 100.308594 362.570312 102.78125 C 359.699219 100.308594 357.296875 101.179688 355.75 103.859375 C 351.832031 101.71875 348.742188 102.304688 346.675781 105.554688 C 342.835938 103.953125 340.023438 105.015625 338.394531 108.652344 C 334.65625 107.554688 332.113281 109.042969 330.925781 112.980469 C 327.328125 112.371094 325.066406 114.222656 324.300781 118.398438 C 320.851562 118.242188 318.898438 120.398438 318.546875 124.738281 C 315.292969 124.996094 313.632812 127.417969 313.695312 131.835938 C 310.65625 132.46875 309.324219 135.097656 309.777344 139.542969 C 307.582031 140.300781 306.601562 141.421875 306.640625 144.304688 C 304.78125 146.195312 303.96875 148.105469 304.09375 149.902344 C 301.097656 153.308594 300.394531 156.117188 301.011719 157.84375 C 298.9375 161.660156 298.398438 164.449219 299.390625 166.035156 C 297.773438 170.078125 297.695312 172.914062 299.140625 174.351562 C 297.96875 178.582031 298.328125 181.414062 300.175781 182.65625 C 299.4375 187.015625 300.207031 189.800781 302.394531 190.800781 C 302.097656 195.257812 303.234375 197.945312 305.726562 198.664062 C 305.851562 203.167969 307.332031 205.707031 310.058594 206.113281 C 310.601562 210.59375 312.398438 212.945312 315.316406 213.007812 C 316.261719 217.417969 318.335938 219.535156 321.398438 219.214844 C 322.738281 223.492188 325.058594 225.335938 328.21875 224.601562 C 329.933594 228.691406 332.476562 230.207031 335.6875 229.035156 C 337.761719 232.863281 340.492188 234.003906 343.714844 232.378906 C 346.113281 235.882812 349.007812 236.609375 352.199219 234.496094 C 354.914062 237.601562 357.9375 237.867188 361.058594 235.257812 C 364.070312 237.898438 367.183594 237.65625 370.210938 234.519531 C 373.480469 236.617188 376.671875 235.828125 379.546875 232.167969 Z M 379.515625 232.152344 " fill-opacity="1" fill-rule="evenodd"/><path fill="#2b2a29" d="M 418.667969 163.410156 C 417.660156 174.964844 388.582031 164.433594 416.125 158.351562 C 417.738281 158.078125 419.269531 159.164062 419.535156 160.773438 C 419.707031 161.777344 419.347656 162.753906 418.667969 163.402344 Z M 418.667969 163.410156 " fill-opacity="1" fill-rule="evenodd"/><path fill="#2b2a29" d="M 407.492188 190.675781 C 384.242188 179.285156 416.644531 176.285156 412.652344 187.933594 C 412.308594 188.925781 411.714844 189.503906 410.980469 189.800781 C 410.167969 190.824219 408.742188 191.214844 407.492188 190.675781 Z M 407.492188 190.675781 " fill-opacity="1" fill-rule="evenodd"/><path fill="#2b2a29" d="M 389.207031 205.753906 C 377.507812 182.59375 409.09375 205.394531 393.9375 207.851562 C 393.179688 207.976562 392.429688 207.691406 391.75 207.300781 C 390.714844 207.277344 389.730469 206.722656 389.207031 205.753906 Z M 389.207031 205.753906 " fill-opacity="1" fill-rule="evenodd"/><path fill="#2b2a29" d="M 373.472656 221.632812 C 361.726562 224.585938 370.898438 195.671875 377.054688 217.324219 C 377.460938 218.910156 376.5 220.519531 374.917969 220.917969 C 374.800781 220.949219 374.683594 220.972656 374.566406 220.988281 C 374.261719 221.273438 373.894531 221.492188 373.472656 221.625 Z M 373.472656 221.632812 " fill-opacity="1" fill-rule="evenodd"/><path fill="#2b2a29" d="M 345.972656 219.050781 C 332.453125 224.773438 349.4375 191.167969 350.703125 213.757812 C 350.71875 214.878906 350.109375 215.847656 349.203125 216.363281 C 348.257812 217.402344 347.304688 218.480469 345.964844 219.042969 Z M 345.972656 219.050781 " fill-opacity="1" fill-rule="evenodd"/><path fill="#2b2a29" d="M 331.261719 203.691406 C 330.917969 204.910156 329.808594 205.816406 328.460938 205.839844 L 328.21875 205.855469 C 327.492188 206.300781 326.507812 206.589844 325.664062 206.503906 C 312.1875 205.128906 343.714844 183.664062 331.324219 203.589844 L 331.253906 203.691406 Z M 331.261719 203.691406 " fill-opacity="1" fill-rule="evenodd"/><path fill="#2b2a29" d="M 314.464844 186.21875 C 331.933594 179.707031 321.375 198.4375 313.664062 192.691406 C 312.851562 191.949219 312.554688 190.855469 312.78125 189.847656 C 312.3125 188.402344 313.03125 186.8125 314.457031 186.210938 Z M 314.464844 186.21875 " fill-opacity="1" fill-rule="evenodd"/><path fill="#2b2a29" d="M 312.820312 165.644531 C 335.0625 164.941406 309.261719 183.921875 309.425781 169.109375 C 309.488281 168.390625 309.800781 167.765625 310.269531 167.285156 C 310.734375 166.347656 311.695312 165.683594 312.820312 165.644531 Z M 312.820312 165.644531 " fill-opacity="1" fill-rule="evenodd"/><path fill="#2b2a29" d="M 312.0625 153.332031 C 306.765625 140.871094 340.8125 158.117188 317.347656 156.890625 L 317.222656 156.875 C 315.988281 157.15625 314.652344 156.625 313.984375 155.460938 L 313.859375 155.25 C 313.117188 154.835938 312.382812 154.105469 312.054688 153.324219 Z M 312.0625 153.332031 " fill-opacity="1" fill-rule="evenodd"/><path fill="#2b2a29" d="M 331.464844 140.644531 C 316.730469 135.996094 327.492188 121.808594 335.789062 136.222656 C 336.644531 137.621094 336.207031 139.433594 334.804688 140.285156 C 334.257812 140.621094 333.648438 140.753906 333.054688 140.707031 C 332.546875 140.832031 331.996094 140.816406 331.464844 140.644531 Z M 331.464844 140.644531 " fill-opacity="1" fill-rule="evenodd"/><path fill="#2b2a29" d="M 358.324219 122.894531 C 356.53125 143.015625 342.234375 116.84375 354.136719 116.46875 C 355.296875 116.429688 356.125 116.882812 356.742188 117.585938 C 357.734375 118.03125 358.441406 119.015625 358.480469 120.179688 C 358.472656 120.523438 358.457031 120.851562 358.441406 121.183594 C 358.574219 121.777344 358.527344 122.371094 358.324219 122.902344 Z M 358.324219 122.894531 " fill-opacity="1" fill-rule="evenodd"/><path fill="#2b2a29" d="M 381.683594 117.507812 C 394.414062 112.878906 375.402344 145.929688 377.851562 122.597656 L 377.867188 122.480469 C 377.648438 121.230469 378.25 119.921875 379.453125 119.320312 L 379.664062 119.203125 C 380.121094 118.484375 380.886719 117.796875 381.683594 117.5 Z M 381.683594 117.507812 " fill-opacity="1" fill-rule="evenodd"/><path fill="#2b2a29" d="M 399.210938 140.519531 C 405.230469 126.308594 418.363281 138.347656 403.214844 145.242188 C 401.742188 145.960938 399.96875 145.34375 399.257812 143.875 C 398.976562 143.304688 398.898438 142.679688 399 142.09375 C 398.929688 141.578125 399 141.039062 399.21875 140.519531 Z M 399.210938 140.519531 " fill-opacity="1" fill-rule="evenodd"/><path fill="#2b2a29" d="M 392.484375 152.691406 C 393.210938 152.863281 393.8125 153.292969 394.210938 153.855469 C 394.539062 154.113281 394.808594 154.453125 395.003906 154.851562 C 395.722656 156.320312 395.121094 158.09375 393.648438 158.8125 C 377.382812 167.480469 382.753906 149.785156 392.484375 152.691406 Z M 392.484375 152.691406 " fill-opacity="1" fill-rule="evenodd"/><path fill="#2b2a29" d="M 382.988281 147.15625 C 368.925781 166.183594 374.605469 132.84375 382.464844 143.023438 C 382.519531 143.09375 382.574219 143.164062 382.613281 143.226562 C 382.660156 143.257812 382.714844 143.289062 382.753906 143.320312 C 383.8125 144.09375 383.914062 145.8125 382.988281 147.15625 Z M 382.988281 147.15625 " fill-opacity="1" fill-rule="evenodd"/><path fill="#2b2a29" d="M 370.65625 144.351562 C 370.375 145.695312 369.226562 146.632812 367.910156 146.710938 C 367.042969 147.117188 365.503906 147.886719 364.90625 146.84375 C 359.542969 137.480469 374.324219 126.636719 370.65625 144.351562 Z M 370.65625 144.351562 " fill-opacity="1" fill-rule="evenodd"/><path fill="#2b2a29" d="M 351.582031 140.496094 C 359.738281 150.300781 351.886719 152.574219 347.179688 147.546875 C 344.714844 144.882812 344.949219 141.054688 348.015625 140.253906 C 348.046875 140.207031 348.085938 140.160156 348.125 140.113281 C 349.007812 139.105469 350.546875 139.277344 351.582031 140.496094 Z M 351.582031 140.496094 " fill-opacity="1" fill-rule="evenodd"/><path fill="#2b2a29" d="M 343.273438 155.460938 C 345.542969 156.640625 347.242188 160.03125 344.363281 160.789062 C 336.433594 162.886719 334.335938 159.367188 334.640625 156.390625 C 334.914062 153.738281 336.769531 151.410156 343.273438 155.453125 Z M 343.273438 155.460938 " fill-opacity="1" fill-rule="evenodd"/><path fill="#2b2a29" d="M 345.027344 173.921875 C 336.488281 184.070312 324.113281 170.679688 342.789062 168.25 C 344.402344 167.984375 345.925781 169.078125 346.191406 170.6875 C 346.347656 171.625 346.042969 172.53125 345.449219 173.179688 C 345.347656 173.4375 345.207031 173.6875 345.027344 173.921875 Z M 345.027344 173.921875 " fill-opacity="1" fill-rule="evenodd"/><path fill="#2b2a29" d="M 343.636719 189.792969 C 333.132812 181.1875 363.414062 171.429688 348.789062 190.003906 C 347.742188 191.253906 345.871094 191.425781 344.621094 190.378906 C 344.527344 190.300781 344.441406 190.222656 344.363281 190.136719 C 344.113281 190.058594 343.871094 189.949219 343.636719 189.792969 Z M 343.636719 189.792969 " fill-opacity="1" fill-rule="evenodd"/><path fill="#2b2a29" d="M 356.476562 197.054688 C 349.984375 190.761719 364.304688 171.617188 363.820312 194.65625 C 363.710938 196.289062 362.296875 197.515625 360.660156 197.40625 C 360.285156 197.375 359.925781 197.28125 359.597656 197.132812 C 358.589844 197.5 357.328125 197.875 356.476562 197.054688 Z M 356.476562 197.054688 " fill-opacity="1" fill-rule="evenodd"/><path fill="#2b2a29" d="M 375.082031 192.144531 C 366.425781 199.953125 368.574219 170.617188 376.703125 188.980469 C 377.171875 190.128906 376.617188 191.449219 375.457031 191.917969 C 375.386719 191.949219 375.308594 191.972656 375.230469 191.996094 C 375.183594 192.042969 375.128906 192.097656 375.074219 192.144531 Z M 375.082031 192.144531 " fill-opacity="1" fill-rule="evenodd"/><path fill="#2b2a29" d="M 382.839844 186.585938 C 369.796875 171.765625 396.667969 176.636719 387.808594 185.867188 C 387.371094 186.320312 386.914062 186.601562 386.453125 186.75 C 385.414062 187.777344 383.828125 187.710938 382.832031 186.585938 Z M 382.839844 186.585938 " fill-opacity="1" fill-rule="evenodd"/><path fill="#2b2a29" d="M 387.792969 174.816406 C 373.183594 168.984375 402.003906 162.457031 394.667969 173.96875 C 394.054688 174.933594 393.3125 175.402344 392.46875 175.582031 C 391.9375 175.855469 391.304688 175.941406 390.636719 175.785156 C 390.332031 175.699219 390.042969 175.605469 389.761719 175.519531 C 389.488281 175.472656 389.207031 175.417969 388.917969 175.371094 C 388.496094 175.269531 388.113281 175.074219 387.785156 174.824219 Z M 387.792969 174.816406 " fill-opacity="1" fill-rule="evenodd"/><g fill="#7b8643" fill-opacity="0.7686"><g transform="translate(538.845863, 386.427224)"><g><path d="M 142.632812 -101.019531 C 135.492188 -66.828125 122.101562 -50.777344 109.933594 -48.992188 C 104.796875 -48.238281 101.113281 -50.738281 100.519531 -54.792969 C 100.359375 -55.875 100.433594 -57.265625 100.816406 -58.425781 L 113.75 -124.683594 C 114.886719 -130.097656 114.714844 -135.042969 114.042969 -139.640625 C 110.871094 -161.273438 91.375 -175.539062 69.472656 -172.328125 C 62.984375 -171.378906 58.003906 -169.542969 52.683594 -166.277344 L 62.421875 -218.527344 C 63.140625 -223.054688 63.894531 -227.308594 63.378906 -230.824219 C 61.714844 -242.179688 51.839844 -247.359375 42.917969 -246.050781 C 32.371094 -244.503906 26.792969 -237.335938 23.757812 -222.25 L -14.175781 -28.859375 C -14.972656 -24.875 -14.996094 -21.28125 -14.523438 -18.035156 C -12.738281 -5.867188 -2.703125 0.398438 6.488281 -0.953125 C 14.332031 -2.101562 21.730469 -8.160156 24.121094 -20.109375 L 43.277344 -117.386719 C 47.449219 -128.496094 55.492188 -137.683594 63.875 -138.914062 C 69.285156 -139.707031 73.664062 -136.207031 74.378906 -131.339844 C 74.617188 -129.714844 74.582031 -128.054688 74.011719 -126.3125 L 62.558594 -66.902344 C 61.347656 -60.097656 61.136719 -53.988281 61.929688 -48.582031 C 65.65625 -23.164062 89.234375 -13.085938 112.21875 -16.457031 C 137.90625 -20.222656 165.042969 -40.5 176.261719 -99.597656 C 176.527344 -101.570312 176.558594 -103.234375 176.320312 -104.855469 C 175.089844 -113.238281 166.1875 -117.457031 157.53125 -116.1875 C 150.773438 -115.195312 144.027344 -110.339844 142.632812 -101.019531 Z M 142.632812 -101.019531 "/></g></g></g><g fill="#7b8643" fill-opacity="0.7686"><g transform="translate(683.77937, 365.173571)"><g><path d="M 125.644531 -96.320312 C 118.34375 -63.207031 91.816406 -46.335938 68.832031 -42.964844 C 49.09375 -40.070312 35.265625 -47.710938 33.441406 -60.148438 C 33.085938 -62.582031 32.996094 -65.054688 33.683594 -67.917969 L 35.09375 -73.371094 C 43.648438 -69.65625 53.859375 -67.835938 64.675781 -69.425781 C 89.28125 -73.03125 108.652344 -91.617188 112.386719 -117.023438 C 112.984375 -122.359375 113.042969 -127.617188 112.367188 -132.214844 C 108.601562 -157.902344 85.425781 -174.667969 54.871094 -170.1875 C 30.804688 -166.660156 9.339844 -149.148438 3.84375 -120.71875 L -5.332031 -72.140625 C -6.542969 -65.332031 -6.941406 -58.644531 -6.03125 -52.425781 C -1.3125 -20.246094 31.90625 -4.679688 71.386719 -10.46875 C 108.972656 -15.980469 149 -40.632812 159.273438 -94.898438 C 159.769531 -97.179688 159.761719 -99.113281 159.523438 -100.734375 C 158.292969 -109.117188 150.046875 -112.605469 141.9375 -111.414062 C 134.363281 -110.304688 126.847656 -105.058594 125.644531 -96.320312 Z M 58.738281 -138.160156 C 66.308594 -139.269531 72.089844 -133.765625 73.238281 -125.921875 C 73.554688 -123.761719 73.601562 -121.558594 73.109375 -119.273438 C 71.714844 -109.957031 64.078125 -105.519531 55.964844 -104.332031 C 50.828125 -103.578125 45.53125 -103.90625 41.429688 -105.515625 L 44.726562 -122.570312 C 46.472656 -131.390625 52.519531 -137.25 58.738281 -138.160156 Z M 58.738281 -138.160156 "/></g></g></g><g fill="#7b8643" fill-opacity="0.7686"><g transform="translate(811.948176, 346.378363)"><g><path d="M 30.496094 -51.980469 L 48.019531 -141.5625 C 48.664062 -144.695312 48.808594 -147.476562 48.414062 -150.179688 C 46.785156 -161.269531 35.941406 -167.410156 25.9375 -165.945312 C 18.367188 -164.835938 10.929688 -159.046875 8.726562 -147.675781 L -10.351562 -49.859375 C -11.488281 -44.445312 -11.546875 -39.1875 -10.832031 -34.320312 C -8.136719 -15.933594 6.785156 -4.585938 24.878906 -3.648438 C -7.042969 8.492188 -37.777344 26.808594 -32.902344 60.070312 C -29.054688 86.296875 -2.179688 100.035156 24.320312 96.148438 C 51.089844 92.222656 74.136719 74.203125 80.894531 41.171875 C 83.011719 29.257812 85.59375 16.726562 88.023438 5.046875 C 124.910156 -12.792969 161.566406 -39.714844 171.894531 -99.234375 C 172.390625 -101.515625 172.34375 -103.71875 172.066406 -105.613281 C 170.71875 -114.804688 162.894531 -119.183594 154.78125 -117.992188 C 147.480469 -116.921875 140.3125 -111.175781 138.074219 -100.074219 C 132.113281 -71.027344 116.375 -52.144531 96.871094 -38.238281 L 118.859375 -153.882812 C 119.3125 -156.433594 119.265625 -158.636719 118.988281 -160.53125 C 117.363281 -171.617188 106.519531 -177.761719 96.511719 -176.292969 C 88.941406 -175.183594 81.503906 -169.398438 79.304688 -158.027344 L 61.609375 -62.070312 C 55.097656 -46.199219 46.425781 -39.402344 39.125 -38.332031 C 34.257812 -37.617188 30.847656 -40.15625 30.136719 -45.023438 C 29.855469 -46.917969 30.042969 -49.429688 30.496094 -51.980469 Z M 40.367188 24.742188 L 36.570312 44.082031 C 34.253906 54.640625 26.625 61.007812 18.511719 62.195312 C 12.292969 63.109375 9.035156 59.71875 8.320312 54.851562 C 8.082031 53.230469 8.035156 51.027344 8.570312 49.015625 C 10.964844 38.996094 23.464844 31.914062 40.367188 24.742188 Z M 40.367188 24.742188 "/></g></g></g><g fill="#e9edc9" fill-opacity="1"><g transform="translate(531.183573, 379.115867)"><g><path d="M 142.632812 -101.019531 C 135.492188 -66.828125 122.101562 -50.777344 109.933594 -48.992188 C 104.796875 -48.238281 101.113281 -50.738281 100.519531 -54.792969 C 100.359375 -55.875 100.433594 -57.265625 100.816406 -58.425781 L 113.75 -124.683594 C 114.886719 -130.097656 114.714844 -135.042969 114.042969 -139.640625 C 110.871094 -161.273438 91.375 -175.539062 69.472656 -172.328125 C 62.984375 -171.378906 58.003906 -169.542969 52.683594 -166.277344 L 62.421875 -218.527344 C 63.140625 -223.054688 63.894531 -227.308594 63.378906 -230.824219 C 61.714844 -242.179688 51.839844 -247.359375 42.917969 -246.050781 C 32.371094 -244.503906 26.792969 -237.335938 23.757812 -222.25 L -14.175781 -28.859375 C -14.972656 -24.875 -14.996094 -21.28125 -14.523438 -18.035156 C -12.738281 -5.867188 -2.703125 0.398438 6.488281 -0.953125 C 14.332031 -2.101562 21.730469 -8.160156 24.121094 -20.109375 L 43.277344 -117.386719 C 47.449219 -128.496094 55.492188 -137.683594 63.875 -138.914062 C 69.285156 -139.707031 73.664062 -136.207031 74.378906 -131.339844 C 74.617188 -129.714844 74.582031 -128.054688 74.011719 -126.3125 L 62.558594 -66.902344 C 61.347656 -60.097656 61.136719 -53.988281 61.929688 -48.582031 C 65.65625 -23.164062 89.234375 -13.085938 112.21875 -16.457031 C 137.90625 -20.222656 165.042969 -40.5 176.261719 -99.597656 C 176.527344 -101.570312 176.558594 -103.234375 176.320312 -104.855469 C 175.089844 -113.238281 166.1875 -117.457031 157.53125 -116.1875 C 150.773438 -115.195312 144.027344 -110.339844 142.632812 -101.019531 Z M 142.632812 -101.019531 "/></g></g></g><g fill="#e9edc9" fill-opacity="1"><g transform="translate(676.11708, 357.862213)"><g><path d="M 125.644531 -96.320312 C 118.34375 -63.207031 91.816406 -46.335938 68.832031 -42.964844 C 49.09375 -40.070312 35.265625 -47.710938 33.441406 -60.148438 C 33.085938 -62.582031 32.996094 -65.054688 33.683594 -67.917969 L 35.09375 -73.371094 C 43.648438 -69.65625 53.859375 -67.835938 64.675781 -69.425781 C 89.28125 -73.03125 108.652344 -91.617188 112.386719 -117.023438 C 112.984375 -122.359375 113.042969 -127.617188 112.367188 -132.214844 C 108.601562 -157.902344 85.425781 -174.667969 54.871094 -170.1875 C 30.804688 -166.660156 9.339844 -149.148438 3.84375 -120.71875 L -5.332031 -72.140625 C -6.542969 -65.332031 -6.941406 -58.644531 -6.03125 -52.425781 C -1.3125 -20.246094 31.90625 -4.679688 71.386719 -10.46875 C 108.972656 -15.980469 149 -40.632812 159.273438 -94.898438 C 159.769531 -97.179688 159.761719 -99.113281 159.523438 -100.734375 C 158.292969 -109.117188 150.046875 -112.605469 141.9375 -111.414062 C 134.363281 -110.304688 126.847656 -105.058594 125.644531 -96.320312 Z M 58.738281 -138.160156 C 66.308594 -139.269531 72.089844 -133.765625 73.238281 -125.921875 C 73.554688 -123.761719 73.601562 -121.558594 73.109375 -119.273438 C 71.714844 -109.957031 64.078125 -105.519531 55.964844 -104.332031 C 50.828125 -103.578125 45.53125 -103.90625 41.429688 -105.515625 L 44.726562 -122.570312 C 46.472656 -131.390625 52.519531 -137.25 58.738281 -138.160156 Z M 58.738281 -138.160156 "/></g></g></g><g fill="#e9edc9" fill-opacity="1"><g transform="translate(804.285886, 339.067005)"><g><path d="M 30.496094 -51.980469 L 48.019531 -141.5625 C 48.664062 -144.695312 48.808594 -147.476562 48.414062 -150.179688 C 46.785156 -161.269531 35.941406 -167.410156 25.9375 -165.945312 C 18.367188 -164.835938 10.929688 -159.046875 8.726562 -147.675781 L -10.351562 -49.859375 C -11.488281 -44.445312 -11.546875 -39.1875 -10.832031 -34.320312 C -8.136719 -15.933594 6.785156 -4.585938 24.878906 -3.648438 C -7.042969 8.492188 -37.777344 26.808594 -32.902344 60.070312 C -29.054688 86.296875 -2.179688 100.035156 24.320312 96.148438 C 51.089844 92.222656 74.136719 74.203125 80.894531 41.171875 C 83.011719 29.257812 85.59375 16.726562 88.023438 5.046875 C 124.910156 -12.792969 161.566406 -39.714844 171.894531 -99.234375 C 172.390625 -101.515625 172.34375 -103.71875 172.066406 -105.613281 C 170.71875 -114.804688 162.894531 -119.183594 154.78125 -117.992188 C 147.480469 -116.921875 140.3125 -111.175781 138.074219 -100.074219 C 132.113281 -71.027344 116.375 -52.144531 96.871094 -38.238281 L 118.859375 -153.882812 C 119.3125 -156.433594 119.265625 -158.636719 118.988281 -160.53125 C 117.363281 -171.617188 106.519531 -177.761719 96.511719 -176.292969 C 88.941406 -175.183594 81.503906 -169.398438 79.304688 -158.027344 L 61.609375 -62.070312 C 55.097656 -46.199219 46.425781 -39.402344 39.125 -38.332031 C 34.257812 -37.617188 30.847656 -40.15625 30.136719 -45.023438 C 29.855469 -46.917969 30.042969 -49.429688 30.496094 -51.980469 Z M 40.367188 24.742188 L 36.570312 44.082031 C 34.253906 54.640625 26.625 61.007812 18.511719 62.195312 C 12.292969 63.109375 9.035156 59.71875 8.320312 54.851562 C 8.082031 53.230469 8.035156 51.027344 8.570312 49.015625 C 10.964844 38.996094 23.464844 31.914062 40.367188 24.742188 Z M 40.367188 24.742188 "/></g></g></g><g fill="#7b8643" fill-opacity="0.7686"><g transform="translate(393.517367, 647.334852)"><g><path d="M 7.941406 -130.433594 L -34.4375 83.496094 C -35.082031 86.628906 -35.1875 89.683594 -34.789062 92.386719 C -33.125 103.746094 -22.589844 109.65625 -12.585938 108.191406 C -4.203125 106.960938 3.695312 100.554688 6.160156 87.210938 L 49.585938 -136.542969 L 69.285156 -139.707031 C 81.953125 -141.839844 86.554688 -151.90625 85.402344 -159.75 C 84.292969 -167.320312 77.585938 -173.519531 67.578125 -172.050781 L 56.492188 -170.425781 L 65.410156 -215.097656 C 66.621094 -221.90625 71.164062 -226.714844 75.761719 -227.390625 C 81.441406 -228.222656 84.078125 -225.296875 84.753906 -220.699219 C 84.992188 -219.074219 84.957031 -217.414062 84.695312 -215.441406 C 83.738281 -212.539062 83.554688 -210.027344 83.914062 -207.59375 C 85.300781 -198.128906 95.445312 -192.988281 104.910156 -194.375 C 113.5625 -195.644531 121.695312 -202.359375 122.726562 -216.046875 C 122.980469 -219.949219 123.007812 -223.546875 122.492188 -227.0625 C 119 -250.855469 97.996094 -266.007812 74.472656 -262.558594 C 51.488281 -259.1875 30.40625 -242.835938 24.523438 -213.246094 L 14.851562 -164.320312 L 7.820312 -163.289062 C -8.945312 -160.828125 -14.585938 -150.335938 -13.320312 -141.679688 C -12.207031 -134.109375 -6.117188 -128.375 2.261719 -129.601562 Z M 7.941406 -130.433594 "/></g></g></g><g fill="#7b8643" fill-opacity="0.7686"><g transform="translate(480.044839, 634.646103)"><g><path d="M 125.597656 -98.523438 C 119.207031 -70.515625 108.308594 -48.753906 96.953125 -47.085938 C 93.167969 -46.53125 90.757812 -49.769531 90.203125 -53.554688 C 89.964844 -55.179688 89.917969 -57.382812 90.414062 -59.664062 L 99.863281 -106.347656 C 100.695312 -111.996094 101.0625 -117.019531 100.386719 -121.617188 C 96.621094 -147.308594 62.585938 -153.363281 46.769531 -155.742188 C 47.261719 -158.023438 47.175781 -160.496094 46.859375 -162.660156 C 45.035156 -175.097656 32.402344 -184.019531 20.234375 -182.234375 C 4.28125 -179.894531 -3.121094 -164.445312 -0.863281 -149.03125 C 0.128906 -142.273438 3.59375 -135.597656 8.714844 -130.824219 L -3.214844 -74.660156 C -3.4375 -72.417969 -3.390625 -70.214844 -3.152344 -68.59375 C -1.84375 -59.667969 5.859375 -56.101562 13.429688 -57.214844 C 21.003906 -58.324219 28.210938 -63.800781 30.1875 -72.929688 L 39.378906 -115.710938 C 47.308594 -114.386719 57.589844 -113.960938 58.941406 -104.769531 C 59.136719 -103.414062 59.105469 -101.753906 58.84375 -99.78125 L 51.78125 -65.046875 C 50.53125 -58.511719 50.28125 -52.671875 51.074219 -47.265625 C 54.523438 -23.742188 75.441406 -11.0625 97.886719 -14.355469 C 127.359375 -18.675781 150.285156 -48.832031 159.535156 -96.871094 C 159.839844 -98.570312 159.910156 -99.964844 159.714844 -101.316406 C 158.523438 -109.425781 148.808594 -113.527344 140.15625 -112.257812 C 133.125 -111.226562 126.839844 -106.992188 125.597656 -98.523438 Z M 125.597656 -98.523438 "/></g></g></g><g fill="#7b8643" fill-opacity="0.7686"><g transform="translate(607.943248, 615.890547)"><g><path d="M 45.8125 -194.273438 C 57.984375 -196.054688 66.519531 -207.527344 64.695312 -219.964844 C 62.910156 -232.136719 51.480469 -240.402344 39.3125 -238.617188 C 27.144531 -236.832031 18.566406 -225.632812 20.351562 -213.464844 C 22.175781 -201.023438 33.644531 -192.488281 45.8125 -194.273438 Z M 29.53125 -51.011719 L 46.828125 -140.28125 C 47.390625 -143.953125 48.1875 -147.9375 47.792969 -150.644531 C 46.046875 -162.539062 36.210938 -167.453125 27.019531 -166.101562 C 18.636719 -164.875 10.585938 -157.617188 8.121094 -144.273438 C 3.195312 -117.585938 -3.441406 -83.742188 -8.40625 -57.324219 C -9.234375 -51.679688 -10.328125 -44.0625 -9.65625 -39.464844 C -5.925781 -14.046875 17.304688 -2.539062 42.183594 -6.1875 C 68.683594 -10.070312 95.507812 -30.578125 106.226562 -89.328125 C 106.53125 -91.03125 106.5625 -92.691406 106.324219 -94.316406 C 105.09375 -102.695312 96.230469 -106.644531 88.117188 -105.457031 C 80.816406 -104.386719 74.070312 -99.527344 72.054688 -90.671875 C 64.5 -53.652344 51.796875 -40.464844 40.980469 -38.878906 C 34.761719 -37.96875 30.109375 -41.429688 29.355469 -46.566406 C 29.15625 -47.917969 29.230469 -49.308594 29.53125 -51.011719 Z M 29.53125 -51.011719 "/></g></g></g><g fill="#7b8643" fill-opacity="0.7686"><g transform="translate(682.573195, 604.9465)"><g><path d="M 125.644531 -96.320312 C 118.34375 -63.207031 91.816406 -46.335938 68.832031 -42.964844 C 49.09375 -40.070312 35.265625 -47.710938 33.441406 -60.148438 C 33.085938 -62.582031 32.996094 -65.054688 33.683594 -67.917969 L 35.09375 -73.371094 C 43.648438 -69.65625 53.859375 -67.835938 64.675781 -69.425781 C 89.28125 -73.03125 108.652344 -91.617188 112.386719 -117.023438 C 112.984375 -122.359375 113.042969 -127.617188 112.367188 -132.214844 C 108.601562 -157.902344 85.425781 -174.667969 54.871094 -170.1875 C 30.804688 -166.660156 9.339844 -149.148438 3.84375 -120.71875 L -5.332031 -72.140625 C -6.542969 -65.332031 -6.941406 -58.644531 -6.03125 -52.425781 C -1.3125 -20.246094 31.90625 -4.679688 71.386719 -10.46875 C 108.972656 -15.980469 149 -40.632812 159.273438 -94.898438 C 159.769531 -97.179688 159.761719 -99.113281 159.523438 -100.734375 C 158.292969 -109.117188 150.046875 -112.605469 141.9375 -111.414062 C 134.363281 -110.304688 126.847656 -105.058594 125.644531 -96.320312 Z M 58.738281 -138.160156 C 66.308594 -139.269531 72.089844 -133.765625 73.238281 -125.921875 C 73.554688 -123.761719 73.601562 -121.558594 73.109375 -119.273438 C 71.714844 -109.957031 64.078125 -105.519531 55.964844 -104.332031 C 50.828125 -103.578125 45.53125 -103.90625 41.429688 -105.515625 L 44.726562 -122.570312 C 46.472656 -131.390625 52.519531 -137.25 58.738281 -138.160156 Z M 58.738281 -138.160156 "/></g></g></g><g fill="#7b8643" fill-opacity="0.7686"><g transform="translate(810.742001, 586.151292)"><g><path d="M 139.464844 -100.003906 C 132.328125 -65.808594 119.398438 -50.378906 106.6875 -48.515625 C 101.820312 -47.800781 98.761719 -49.839844 98.085938 -54.4375 C 97.808594 -56.328125 98.03125 -58.570312 98.445312 -61.394531 L 110.734375 -124.515625 C 111.835938 -130.203125 112.203125 -135.226562 111.527344 -139.824219 C 108.355469 -161.457031 87.589844 -174.984375 65.957031 -171.8125 C 55.410156 -170.265625 47.386719 -166.605469 41.109375 -160.433594 C 38.773438 -165.066406 31.617188 -166.777344 24.316406 -165.707031 C 16.742188 -164.597656 9.957031 -160.011719 8.363281 -152.042969 L -18.273438 -19.140625 C -18.730469 -16.589844 -18.683594 -14.386719 -18.367188 -12.222656 C -16.898438 -2.21875 -8.304688 1.769531 0.351562 0.5 C 9.8125 -0.886719 19.757812 -8.421875 22.03125 -21.183594 C 27.648438 -48.800781 35.195312 -87.75 40.582031 -115.058594 C 45.898438 -129.648438 54.410156 -137.527344 61.984375 -138.636719 C 66.851562 -139.351562 70.839844 -136.621094 71.59375 -131.484375 C 71.871094 -129.589844 71.6875 -127.078125 71.234375 -124.523438 L 59.664062 -65.925781 C 58.414062 -59.390625 57.933594 -53.242188 58.765625 -47.566406 C 62.414062 -22.6875 84.90625 -12.449219 107.890625 -15.820312 C 135.472656 -19.867188 162.210938 -42.847656 173.136719 -98.3125 C 173.628906 -100.59375 173.855469 -102.835938 173.578125 -104.730469 C 172.308594 -113.382812 163.792969 -116.828125 155.679688 -115.640625 C 148.378906 -114.570312 140.859375 -109.324219 139.464844 -100.003906 Z M 139.464844 -100.003906 "/></g></g></g><g fill="#7b8643" fill-opacity="0.7686"><g transform="translate(952.70115, 565.333811)"><g><path d="M 158.652344 -116.074219 C 151.351562 -115.003906 144.335938 -110.109375 143.171875 -101.097656 C 135.761719 -66.867188 123.183594 -50.933594 111.015625 -49.148438 C 105.605469 -48.355469 102.078125 -51.707031 101.441406 -56.03125 C 101.203125 -57.65625 101.238281 -59.316406 101.84375 -62.71875 L 133.648438 -230.078125 C 134.253906 -233.480469 134.933594 -238.277344 134.496094 -241.25 C 132.792969 -252.878906 122.414062 -257.710938 112.953125 -256.324219 C 104.570312 -255.09375 97.640625 -247.722656 94.832031 -232.949219 L 80.457031 -159.578125 C 71.035156 -167.308594 58.386719 -170.703125 45.675781 -168.839844 C 28.101562 -166.261719 10.601562 -153.75 6.3125 -132.128906 L -8.667969 -55.355469 C -9.808594 -49.9375 -9.828125 -44.410156 -9.113281 -39.542969 C -5.625 -15.75 15.953125 -2.339844 39.207031 -5.75 C 51.917969 -7.613281 65.34375 -14 74.613281 -26.132812 C 84.34375 -18.167969 98.15625 -14.394531 111.675781 -16.375 C 138.445312 -20.300781 166.457031 -44.023438 176.804688 -99.679688 C 177.066406 -101.648438 177.328125 -103.621094 177.089844 -105.246094 C 175.863281 -113.628906 167.035156 -117.304688 158.652344 -116.074219 Z M 39.050781 -48.265625 C 33.714844 -48.863281 31.769531 -52.722656 31.132812 -57.046875 C 30.617188 -60.5625 30.953125 -63.925781 31.40625 -66.480469 L 40.199219 -113.898438 C 43.265625 -130.644531 50.171875 -134.417969 54.5 -135.054688 C 59.636719 -135.804688 66.066406 -131.5 67.417969 -122.308594 C 68.011719 -118.25 67.953125 -112.996094 66.511719 -105.878906 L 59.984375 -73.15625 C 54.804688 -51.957031 44.347656 -47.9375 39.050781 -48.265625 Z M 39.050781 -48.265625 "/></g></g></g><g fill="#e9edc9" fill-opacity="1"><g transform="translate(385.855077, 640.023492)"><g><path d="M 7.941406 -130.433594 L -34.4375 83.496094 C -35.082031 86.628906 -35.1875 89.683594 -34.789062 92.386719 C -33.125 103.746094 -22.589844 109.65625 -12.585938 108.191406 C -4.203125 106.960938 3.695312 100.554688 6.160156 87.210938 L 49.585938 -136.542969 L 69.285156 -139.707031 C 81.953125 -141.839844 86.554688 -151.90625 85.402344 -159.75 C 84.292969 -167.320312 77.585938 -173.519531 67.578125 -172.050781 L 56.492188 -170.425781 L 65.410156 -215.097656 C 66.621094 -221.90625 71.164062 -226.714844 75.761719 -227.390625 C 81.441406 -228.222656 84.078125 -225.296875 84.753906 -220.699219 C 84.992188 -219.074219 84.957031 -217.414062 84.695312 -215.441406 C 83.738281 -212.539062 83.554688 -210.027344 83.914062 -207.59375 C 85.300781 -198.128906 95.445312 -192.988281 104.910156 -194.375 C 113.5625 -195.644531 121.695312 -202.359375 122.726562 -216.046875 C 122.980469 -219.949219 123.007812 -223.546875 122.492188 -227.0625 C 119 -250.855469 97.996094 -266.007812 74.472656 -262.558594 C 51.488281 -259.1875 30.40625 -242.835938 24.523438 -213.246094 L 14.851562 -164.320312 L 7.820312 -163.289062 C -8.945312 -160.828125 -14.585938 -150.335938 -13.320312 -141.679688 C -12.207031 -134.109375 -6.117188 -128.375 2.261719 -129.601562 Z M 7.941406 -130.433594 "/></g></g></g><g fill="#e9edc9" fill-opacity="1"><g transform="translate(472.382549, 627.334743)"><g><path d="M 125.597656 -98.523438 C 119.207031 -70.515625 108.308594 -48.753906 96.953125 -47.085938 C 93.167969 -46.53125 90.757812 -49.769531 90.203125 -53.554688 C 89.964844 -55.179688 89.917969 -57.382812 90.414062 -59.664062 L 99.863281 -106.347656 C 100.695312 -111.996094 101.0625 -117.019531 100.386719 -121.617188 C 96.621094 -147.308594 62.585938 -153.363281 46.769531 -155.742188 C 47.261719 -158.023438 47.175781 -160.496094 46.859375 -162.660156 C 45.035156 -175.097656 32.402344 -184.019531 20.234375 -182.234375 C 4.28125 -179.894531 -3.121094 -164.445312 -0.863281 -149.03125 C 0.128906 -142.273438 3.59375 -135.597656 8.714844 -130.824219 L -3.214844 -74.660156 C -3.4375 -72.417969 -3.390625 -70.214844 -3.152344 -68.59375 C -1.84375 -59.667969 5.859375 -56.101562 13.429688 -57.214844 C 21.003906 -58.324219 28.210938 -63.800781 30.1875 -72.929688 L 39.378906 -115.710938 C 47.308594 -114.386719 57.589844 -113.960938 58.941406 -104.769531 C 59.136719 -103.414062 59.105469 -101.753906 58.84375 -99.78125 L 51.78125 -65.046875 C 50.53125 -58.511719 50.28125 -52.671875 51.074219 -47.265625 C 54.523438 -23.742188 75.441406 -11.0625 97.886719 -14.355469 C 127.359375 -18.675781 150.285156 -48.832031 159.535156 -96.871094 C 159.839844 -98.570312 159.910156 -99.964844 159.714844 -101.316406 C 158.523438 -109.425781 148.808594 -113.527344 140.15625 -112.257812 C 133.125 -111.226562 126.839844 -106.992188 125.597656 -98.523438 Z M 125.597656 -98.523438 "/></g></g></g><g fill="#e9edc9" fill-opacity="1"><g transform="translate(600.280958, 608.579187)"><g><path d="M 45.8125 -194.273438 C 57.984375 -196.054688 66.519531 -207.527344 64.695312 -219.964844 C 62.910156 -232.136719 51.480469 -240.402344 39.3125 -238.617188 C 27.144531 -236.832031 18.566406 -225.632812 20.351562 -213.464844 C 22.175781 -201.023438 33.644531 -192.488281 45.8125 -194.273438 Z M 29.53125 -51.011719 L 46.828125 -140.28125 C 47.390625 -143.953125 48.1875 -147.9375 47.792969 -150.644531 C 46.046875 -162.539062 36.210938 -167.453125 27.019531 -166.101562 C 18.636719 -164.875 10.585938 -157.617188 8.121094 -144.273438 C 3.195312 -117.585938 -3.441406 -83.742188 -8.40625 -57.324219 C -9.234375 -51.679688 -10.328125 -44.0625 -9.65625 -39.464844 C -5.925781 -14.046875 17.304688 -2.539062 42.183594 -6.1875 C 68.683594 -10.070312 95.507812 -30.578125 106.226562 -89.328125 C 106.53125 -91.03125 106.5625 -92.691406 106.324219 -94.316406 C 105.09375 -102.695312 96.230469 -106.644531 88.117188 -105.457031 C 80.816406 -104.386719 74.070312 -99.527344 72.054688 -90.671875 C 64.5 -53.652344 51.796875 -40.464844 40.980469 -38.878906 C 34.761719 -37.96875 30.109375 -41.429688 29.355469 -46.566406 C 29.15625 -47.917969 29.230469 -49.308594 29.53125 -51.011719 Z M 29.53125 -51.011719 "/></g></g></g><g fill="#e9edc9" fill-opacity="1"><g transform="translate(674.910905, 597.635141)"><g><path d="M 125.644531 -96.320312 C 118.34375 -63.207031 91.816406 -46.335938 68.832031 -42.964844 C 49.09375 -40.070312 35.265625 -47.710938 33.441406 -60.148438 C 33.085938 -62.582031 32.996094 -65.054688 33.683594 -67.917969 L 35.09375 -73.371094 C 43.648438 -69.65625 53.859375 -67.835938 64.675781 -69.425781 C 89.28125 -73.03125 108.652344 -91.617188 112.386719 -117.023438 C 112.984375 -122.359375 113.042969 -127.617188 112.367188 -132.214844 C 108.601562 -157.902344 85.425781 -174.667969 54.871094 -170.1875 C 30.804688 -166.660156 9.339844 -149.148438 3.84375 -120.71875 L -5.332031 -72.140625 C -6.542969 -65.332031 -6.941406 -58.644531 -6.03125 -52.425781 C -1.3125 -20.246094 31.90625 -4.679688 71.386719 -10.46875 C 108.972656 -15.980469 149 -40.632812 159.273438 -94.898438 C 159.769531 -97.179688 159.761719 -99.113281 159.523438 -100.734375 C 158.292969 -109.117188 150.046875 -112.605469 141.9375 -111.414062 C 134.363281 -110.304688 126.847656 -105.058594 125.644531 -96.320312 Z M 58.738281 -138.160156 C 66.308594 -139.269531 72.089844 -133.765625 73.238281 -125.921875 C 73.554688 -123.761719 73.601562 -121.558594 73.109375 -119.273438 C 71.714844 -109.957031 64.078125 -105.519531 55.964844 -104.332031 C 50.828125 -103.578125 45.53125 -103.90625 41.429688 -105.515625 L 44.726562 -122.570312 C 46.472656 -131.390625 52.519531 -137.25 58.738281 -138.160156 Z M 58.738281 -138.160156 "/></g></g></g><g fill="#e9edc9" fill-opacity="1"><g transform="translate(803.079711, 578.839933)"><g><path d="M 139.464844 -100.003906 C 132.328125 -65.808594 119.398438 -50.378906 106.6875 -48.515625 C 101.820312 -47.800781 98.761719 -49.839844 98.085938 -54.4375 C 97.808594 -56.328125 98.03125 -58.570312 98.445312 -61.394531 L 110.734375 -124.515625 C 111.835938 -130.203125 112.203125 -135.226562 111.527344 -139.824219 C 108.355469 -161.457031 87.589844 -174.984375 65.957031 -171.8125 C 55.410156 -170.265625 47.386719 -166.605469 41.109375 -160.433594 C 38.773438 -165.066406 31.617188 -166.777344 24.316406 -165.707031 C 16.742188 -164.597656 9.957031 -160.011719 8.363281 -152.042969 L -18.273438 -19.140625 C -18.730469 -16.589844 -18.683594 -14.386719 -18.367188 -12.222656 C -16.898438 -2.21875 -8.304688 1.769531 0.351562 0.5 C 9.8125 -0.886719 19.757812 -8.421875 22.03125 -21.183594 C 27.648438 -48.800781 35.195312 -87.75 40.582031 -115.058594 C 45.898438 -129.648438 54.410156 -137.527344 61.984375 -138.636719 C 66.851562 -139.351562 70.839844 -136.621094 71.59375 -131.484375 C 71.871094 -129.589844 71.6875 -127.078125 71.234375 -124.523438 L 59.664062 -65.925781 C 58.414062 -59.390625 57.933594 -53.242188 58.765625 -47.566406 C 62.414062 -22.6875 84.90625 -12.449219 107.890625 -15.820312 C 135.472656 -19.867188 162.210938 -42.847656 173.136719 -98.3125 C 173.628906 -100.59375 173.855469 -102.835938 173.578125 -104.730469 C 172.308594 -113.382812 163.792969 -116.828125 155.679688 -115.640625 C 148.378906 -114.570312 140.859375 -109.324219 139.464844 -100.003906 Z M 139.464844 -100.003906 "/></g></g></g><g fill="#e9edc9" fill-opacity="1"><g transform="translate(945.03886, 558.022451)"><g><path d="M 158.652344 -116.074219 C 151.351562 -115.003906 144.335938 -110.109375 143.171875 -101.097656 C 135.761719 -66.867188 123.183594 -50.933594 111.015625 -49.148438 C 105.605469 -48.355469 102.078125 -51.707031 101.441406 -56.03125 C 101.203125 -57.65625 101.238281 -59.316406 101.84375 -62.71875 L 133.648438 -230.078125 C 134.253906 -233.480469 134.933594 -238.277344 134.496094 -241.25 C 132.792969 -252.878906 122.414062 -257.710938 112.953125 -256.324219 C 104.570312 -255.09375 97.640625 -247.722656 94.832031 -232.949219 L 80.457031 -159.578125 C 71.035156 -167.308594 58.386719 -170.703125 45.675781 -168.839844 C 28.101562 -166.261719 10.601562 -153.75 6.3125 -132.128906 L -8.667969 -55.355469 C -9.808594 -49.9375 -9.828125 -44.410156 -9.113281 -39.542969 C -5.625 -15.75 15.953125 -2.339844 39.207031 -5.75 C 51.917969 -7.613281 65.34375 -14 74.613281 -26.132812 C 84.34375 -18.167969 98.15625 -14.394531 111.675781 -16.375 C 138.445312 -20.300781 166.457031 -44.023438 176.804688 -99.679688 C 177.066406 -101.648438 177.328125 -103.621094 177.089844 -105.246094 C 175.863281 -113.628906 167.035156 -117.304688 158.652344 -116.074219 Z M 39.050781 -48.265625 C 33.714844 -48.863281 31.769531 -52.722656 31.132812 -57.046875 C 30.617188 -60.5625 30.953125 -63.925781 31.40625 -66.480469 L 40.199219 -113.898438 C 43.265625 -130.644531 50.171875 -134.417969 54.5 -135.054688 C 59.636719 -135.804688 66.066406 -131.5 67.417969 -122.308594 C 68.011719 -118.25 67.953125 -112.996094 66.511719 -105.878906 L 59.984375 -73.15625 C 54.804688 -51.957031 44.347656 -47.9375 39.050781 -48.265625 Z M 39.050781 -48.265625 "/></g></g></g></svg>