<svg xmlns="http://www.w3.org/2000/svg" xmlns:xlink="http://www.w3.org/1999/xlink" width="1920" zoomAndPan="magnify" viewBox="0 0 1440 809.999993" height="1080" preserveAspectRatio="xMidYMid meet" version="1.0"><defs><g/></defs><rect x="-144" width="1728" fill="#ffffff" y="-80.999999" height="971.999992" fill-opacity="1"/><rect x="-144" width="1728" fill="#ffffff" y="-80.999999" height="971.999992" fill-opacity="1"/><g fill="#7b8643" fill-opacity="0.7686"><g transform="translate(498.070703, 339.037009)"><g><path d="M 174.734375 -123.757812 C 165.988281 -81.867188 149.585938 -62.203125 134.675781 -60.019531 C 128.382812 -59.09375 123.875 -62.15625 123.144531 -67.125 C 122.949219 -68.449219 123.039062 -70.15625 123.507812 -71.578125 L 139.351562 -152.746094 C 140.75 -159.382812 140.535156 -165.441406 139.710938 -171.074219 C 135.824219 -197.574219 111.941406 -215.050781 85.109375 -211.117188 C 77.160156 -209.953125 71.058594 -207.703125 64.539062 -203.703125 L 76.472656 -267.714844 C 77.351562 -273.257812 78.277344 -278.472656 77.648438 -282.777344 C 75.605469 -296.691406 63.507812 -303.039062 52.578125 -301.433594 C 39.65625 -299.539062 32.824219 -290.753906 29.105469 -272.273438 L -17.367188 -35.351562 C -18.34375 -30.472656 -18.375 -26.070312 -17.789062 -22.09375 C -15.605469 -7.1875 -3.3125 0.484375 7.949219 -1.164062 C 17.558594 -2.574219 26.621094 -9.996094 29.550781 -24.636719 L 53.019531 -143.808594 C 58.128906 -157.417969 67.984375 -168.675781 78.253906 -170.179688 C 84.878906 -171.152344 90.246094 -166.863281 91.121094 -160.902344 C 91.410156 -158.914062 91.371094 -156.878906 90.667969 -154.746094 L 76.640625 -81.960938 C 75.15625 -73.625 74.898438 -66.140625 75.871094 -59.515625 C 80.4375 -28.375 109.320312 -16.03125 137.476562 -20.160156 C 168.945312 -24.773438 202.1875 -49.613281 215.9375 -122.015625 C 216.257812 -124.433594 216.296875 -126.46875 216.007812 -128.457031 C 214.5 -138.726562 203.589844 -143.894531 192.992188 -142.339844 C 184.710938 -141.125 176.445312 -135.175781 174.734375 -123.757812 Z M 174.734375 -123.757812 "/></g></g></g><g fill="#7b8643" fill-opacity="0.7686"><g transform="translate(675.626623, 312.999469)"><g><path d="M 153.921875 -118 C 144.980469 -77.433594 112.480469 -56.761719 84.324219 -52.632812 C 60.140625 -49.089844 43.203125 -58.449219 40.96875 -73.6875 C 40.53125 -76.667969 40.425781 -79.699219 41.265625 -83.203125 L 42.992188 -89.886719 C 53.472656 -85.332031 65.980469 -83.105469 79.230469 -85.050781 C 109.378906 -89.472656 133.109375 -112.238281 137.683594 -143.367188 C 138.414062 -149.902344 138.488281 -156.34375 137.660156 -161.972656 C 133.046875 -193.445312 104.65625 -213.984375 67.222656 -208.492188 C 37.738281 -204.171875 11.445312 -182.71875 4.707031 -147.890625 L -6.53125 -88.378906 C -8.015625 -80.039062 -8.503906 -71.84375 -7.386719 -64.226562 C -1.605469 -24.804688 39.089844 -5.730469 87.453125 -12.824219 C 133.5 -19.578125 182.539062 -49.777344 195.125 -116.257812 C 195.730469 -119.054688 195.71875 -121.421875 195.429688 -123.410156 C 193.921875 -133.679688 183.820312 -137.949219 173.882812 -136.492188 C 164.609375 -135.132812 155.398438 -128.707031 153.921875 -118 Z M 71.960938 -169.257812 C 81.234375 -170.617188 88.316406 -163.875 89.722656 -154.265625 C 90.113281 -151.617188 90.171875 -148.917969 89.566406 -146.121094 C 87.855469 -134.703125 78.5 -129.273438 68.5625 -127.816406 C 62.269531 -126.890625 55.78125 -127.292969 50.753906 -129.265625 L 54.796875 -150.160156 C 56.933594 -160.964844 64.339844 -168.140625 71.960938 -169.257812 Z M 71.960938 -169.257812 "/></g></g></g><g fill="#7b8643" fill-opacity="0.7686"><g transform="translate(832.644353, 289.973736)"><g><path d="M 37.359375 -63.683594 L 58.828125 -173.425781 C 59.617188 -177.261719 59.796875 -180.671875 59.308594 -183.984375 C 57.316406 -197.566406 44.03125 -205.09375 31.773438 -203.296875 C 22.5 -201.9375 13.386719 -194.847656 10.691406 -180.917969 L -12.679688 -61.082031 C -14.074219 -54.449219 -14.144531 -48.007812 -13.273438 -42.042969 C -9.96875 -19.519531 8.3125 -5.617188 30.476562 -4.46875 C -8.625 10.402344 -46.28125 32.84375 -40.304688 73.589844 C -35.59375 105.722656 -2.671875 122.550781 29.792969 117.789062 C 62.589844 112.980469 90.824219 90.90625 99.101562 50.4375 C 101.699219 35.84375 104.859375 20.492188 107.839844 6.179688 C 153.023438 -15.671875 197.929688 -48.652344 210.585938 -121.570312 C 211.191406 -124.367188 211.136719 -127.066406 210.796875 -129.382812 C 209.144531 -140.648438 199.558594 -146.007812 189.621094 -144.550781 C 180.675781 -143.242188 171.894531 -136.199219 169.152344 -122.601562 C 161.851562 -87.015625 142.570312 -63.882812 118.675781 -46.84375 L 145.613281 -188.519531 C 146.167969 -191.644531 146.109375 -194.34375 145.769531 -196.664062 C 143.78125 -210.246094 130.492188 -217.773438 118.238281 -215.976562 C 108.960938 -214.613281 99.847656 -207.527344 97.152344 -193.59375 L 75.476562 -76.039062 C 67.5 -56.597656 56.878906 -48.269531 47.933594 -46.960938 C 41.96875 -46.085938 37.792969 -49.195312 36.917969 -55.15625 C 36.578125 -57.476562 36.804688 -60.554688 37.359375 -63.683594 Z M 49.449219 30.308594 L 44.804688 54.003906 C 41.964844 66.9375 32.617188 74.738281 22.679688 76.195312 C 15.058594 77.3125 11.066406 73.160156 10.191406 67.199219 C 9.902344 65.210938 9.84375 62.511719 10.496094 60.046875 C 13.433594 47.773438 28.746094 39.097656 49.449219 30.308594 Z M 49.449219 30.308594 "/></g></g></g><g fill="#e9edc9" fill-opacity="1"><g transform="translate(488.683732, 330.079979)"><g><path d="M 174.734375 -123.757812 C 165.988281 -81.867188 149.585938 -62.203125 134.675781 -60.019531 C 128.382812 -59.09375 123.875 -62.15625 123.144531 -67.125 C 122.949219 -68.449219 123.039062 -70.15625 123.507812 -71.578125 L 139.351562 -152.746094 C 140.75 -159.382812 140.535156 -165.441406 139.710938 -171.074219 C 135.824219 -197.574219 111.941406 -215.050781 85.109375 -211.117188 C 77.160156 -209.953125 71.058594 -207.703125 64.539062 -203.703125 L 76.472656 -267.714844 C 77.351562 -273.257812 78.277344 -278.472656 77.648438 -282.777344 C 75.605469 -296.691406 63.507812 -303.039062 52.578125 -301.433594 C 39.65625 -299.539062 32.824219 -290.753906 29.105469 -272.273438 L -17.367188 -35.351562 C -18.34375 -30.472656 -18.375 -26.070312 -17.789062 -22.09375 C -15.605469 -7.1875 -3.3125 0.484375 7.949219 -1.164062 C 17.558594 -2.574219 26.621094 -9.996094 29.550781 -24.636719 L 53.019531 -143.808594 C 58.128906 -157.417969 67.984375 -168.675781 78.253906 -170.179688 C 84.878906 -171.152344 90.246094 -166.863281 91.121094 -160.902344 C 91.410156 -158.914062 91.371094 -156.878906 90.667969 -154.746094 L 76.640625 -81.960938 C 75.15625 -73.625 74.898438 -66.140625 75.871094 -59.515625 C 80.4375 -28.375 109.320312 -16.03125 137.476562 -20.160156 C 168.945312 -24.773438 202.1875 -49.613281 215.9375 -122.015625 C 216.257812 -124.433594 216.296875 -126.46875 216.007812 -128.457031 C 214.5 -138.726562 203.589844 -143.894531 192.992188 -142.339844 C 184.710938 -141.125 176.445312 -135.175781 174.734375 -123.757812 Z M 174.734375 -123.757812 "/></g></g></g><g fill="#e9edc9" fill-opacity="1"><g transform="translate(666.239653, 304.042439)"><g><path d="M 153.921875 -118 C 144.980469 -77.433594 112.480469 -56.761719 84.324219 -52.632812 C 60.140625 -49.089844 43.203125 -58.449219 40.96875 -73.6875 C 40.53125 -76.667969 40.425781 -79.699219 41.265625 -83.203125 L 42.992188 -89.886719 C 53.472656 -85.332031 65.980469 -83.105469 79.230469 -85.050781 C 109.378906 -89.472656 133.109375 -112.238281 137.683594 -143.367188 C 138.414062 -149.902344 138.488281 -156.34375 137.660156 -161.972656 C 133.046875 -193.445312 104.65625 -213.984375 67.222656 -208.492188 C 37.738281 -204.171875 11.445312 -182.71875 4.707031 -147.890625 L -6.53125 -88.378906 C -8.015625 -80.039062 -8.503906 -71.84375 -7.386719 -64.226562 C -1.605469 -24.804688 39.089844 -5.730469 87.453125 -12.824219 C 133.5 -19.578125 182.539062 -49.777344 195.125 -116.257812 C 195.730469 -119.054688 195.71875 -121.421875 195.429688 -123.410156 C 193.921875 -133.679688 183.820312 -137.949219 173.882812 -136.492188 C 164.609375 -135.132812 155.398438 -128.707031 153.921875 -118 Z M 71.960938 -169.257812 C 81.234375 -170.617188 88.316406 -163.875 89.722656 -154.265625 C 90.113281 -151.617188 90.171875 -148.917969 89.566406 -146.121094 C 87.855469 -134.703125 78.5 -129.273438 68.5625 -127.816406 C 62.269531 -126.890625 55.78125 -127.292969 50.753906 -129.265625 L 54.796875 -150.160156 C 56.933594 -160.964844 64.339844 -168.140625 71.960938 -169.257812 Z M 71.960938 -169.257812 "/></g></g></g><g fill="#e9edc9" fill-opacity="1"><g transform="translate(823.257382, 281.016706)"><g><path d="M 37.359375 -63.683594 L 58.828125 -173.425781 C 59.617188 -177.261719 59.796875 -180.671875 59.308594 -183.984375 C 57.316406 -197.566406 44.03125 -205.09375 31.773438 -203.296875 C 22.5 -201.9375 13.386719 -194.847656 10.691406 -180.917969 L -12.679688 -61.082031 C -14.074219 -54.449219 -14.144531 -48.007812 -13.273438 -42.042969 C -9.96875 -19.519531 8.3125 -5.617188 30.476562 -4.46875 C -8.625 10.402344 -46.28125 32.84375 -40.304688 73.589844 C -35.59375 105.722656 -2.671875 122.550781 29.792969 117.789062 C 62.589844 112.980469 90.824219 90.90625 99.101562 50.4375 C 101.699219 35.84375 104.859375 20.492188 107.839844 6.179688 C 153.023438 -15.671875 197.929688 -48.652344 210.585938 -121.570312 C 211.191406 -124.367188 211.136719 -127.066406 210.796875 -129.382812 C 209.144531 -140.648438 199.558594 -146.007812 189.621094 -144.550781 C 180.675781 -143.242188 171.894531 -136.199219 169.152344 -122.601562 C 161.851562 -87.015625 142.570312 -63.882812 118.675781 -46.84375 L 145.613281 -188.519531 C 146.167969 -191.644531 146.109375 -194.34375 145.769531 -196.664062 C 143.78125 -210.246094 130.492188 -217.773438 118.238281 -215.976562 C 108.960938 -214.613281 99.847656 -207.527344 97.152344 -193.59375 L 75.476562 -76.039062 C 67.5 -56.597656 56.878906 -48.269531 47.933594 -46.960938 C 41.96875 -46.085938 37.792969 -49.195312 36.917969 -55.15625 C 36.578125 -57.476562 36.804688 -60.554688 37.359375 -63.683594 Z M 49.449219 30.308594 L 44.804688 54.003906 C 41.964844 66.9375 32.617188 74.738281 22.679688 76.195312 C 15.058594 77.3125 11.066406 73.160156 10.191406 67.199219 C 9.902344 65.210938 9.84375 62.511719 10.496094 60.046875 C 13.433594 47.773438 28.746094 39.097656 49.449219 30.308594 Z M 49.449219 30.308594 "/></g></g></g><g fill="#7b8643" fill-opacity="0.7686"><g transform="translate(320.030888, 658.671049)"><g><path d="M 9.730469 -159.792969 L -42.1875 102.289062 C -42.980469 106.128906 -43.105469 109.871094 -42.621094 113.183594 C -40.582031 127.09375 -27.675781 134.339844 -15.417969 132.542969 C -5.148438 131.035156 4.527344 123.1875 7.546875 106.839844 L 60.746094 -167.277344 L 84.878906 -171.152344 C 100.398438 -173.769531 106.035156 -186.097656 104.628906 -195.707031 C 103.265625 -204.980469 95.046875 -212.574219 82.789062 -210.777344 L 69.207031 -208.785156 L 80.132812 -263.515625 C 81.617188 -271.855469 87.183594 -277.746094 92.8125 -278.570312 C 99.769531 -279.59375 103.003906 -276.003906 103.828125 -270.375 C 104.121094 -268.386719 104.082031 -266.351562 103.757812 -263.933594 C 102.589844 -260.378906 102.363281 -257.300781 102.800781 -254.320312 C 104.5 -242.722656 116.929688 -236.425781 128.523438 -238.125 C 139.125 -239.679688 149.085938 -247.910156 150.347656 -264.675781 C 150.664062 -269.457031 150.691406 -273.863281 150.0625 -278.167969 C 145.785156 -307.320312 120.054688 -325.882812 91.234375 -321.65625 C 63.074219 -317.527344 37.25 -297.496094 30.046875 -261.246094 L 18.191406 -201.304688 L 9.582031 -200.042969 C -10.957031 -197.03125 -17.871094 -184.171875 -16.316406 -173.570312 C -14.957031 -164.296875 -7.496094 -157.269531 2.773438 -158.773438 Z M 9.730469 -159.792969 "/></g></g></g><g fill="#7b8643" fill-opacity="0.7686"><g transform="translate(426.034429, 643.126249)"><g><path d="M 153.867188 -120.699219 C 146.039062 -86.386719 132.691406 -59.726562 118.777344 -57.6875 C 114.136719 -57.007812 111.1875 -60.972656 110.507812 -65.609375 C 110.214844 -67.597656 110.160156 -70.296875 110.765625 -73.09375 L 122.34375 -130.289062 C 123.359375 -137.203125 123.808594 -143.359375 122.984375 -148.992188 C 118.367188 -180.464844 76.671875 -187.882812 57.296875 -190.796875 C 57.902344 -193.589844 57.796875 -196.621094 57.40625 -199.273438 C 55.171875 -214.511719 39.695312 -225.4375 24.789062 -223.25 C 5.242188 -220.386719 -3.824219 -201.460938 -1.054688 -182.578125 C 0.160156 -174.296875 4.402344 -166.121094 10.675781 -160.273438 L -3.9375 -91.464844 C -4.210938 -88.71875 -4.15625 -86.019531 -3.863281 -84.03125 C -2.261719 -73.101562 7.179688 -68.730469 16.453125 -70.089844 C 25.730469 -71.453125 34.558594 -78.160156 36.980469 -89.34375 L 48.246094 -141.753906 C 57.957031 -140.132812 70.554688 -139.613281 72.207031 -128.347656 C 72.449219 -126.691406 72.410156 -124.65625 72.085938 -122.242188 L 63.4375 -79.6875 C 61.90625 -71.679688 61.597656 -64.53125 62.570312 -57.902344 C 66.796875 -29.082031 92.425781 -13.554688 119.917969 -17.585938 C 156.027344 -22.878906 184.109375 -59.824219 195.445312 -118.671875 C 195.816406 -120.757812 195.90625 -122.464844 195.664062 -124.121094 C 194.207031 -134.058594 182.300781 -139.078125 171.703125 -137.523438 C 163.089844 -136.261719 155.390625 -131.074219 153.867188 -120.699219 Z M 153.867188 -120.699219 "/></g></g></g><g fill="#7b8643" fill-opacity="0.7686"><g transform="translate(582.7209, 620.149093)"><g><path d="M 56.125 -238 C 71.035156 -240.183594 81.492188 -254.238281 79.257812 -269.476562 C 77.074219 -284.386719 63.066406 -294.511719 48.160156 -292.328125 C 33.253906 -290.140625 22.746094 -276.417969 24.929688 -261.511719 C 27.164062 -246.273438 41.21875 -235.8125 56.125 -238 Z M 36.179688 -62.492188 L 57.367188 -171.855469 C 58.058594 -176.355469 59.035156 -181.238281 58.550781 -184.550781 C 56.414062 -199.125 44.363281 -205.140625 33.101562 -203.492188 C 22.832031 -201.984375 12.96875 -193.09375 9.949219 -176.746094 C 3.917969 -144.054688 -4.214844 -102.589844 -10.296875 -70.230469 C -11.316406 -63.3125 -12.652344 -53.980469 -11.828125 -48.347656 C -7.261719 -17.207031 21.203125 -3.109375 51.679688 -7.578125 C 84.140625 -12.339844 117.003906 -37.460938 130.136719 -109.433594 C 130.507812 -111.519531 130.546875 -113.554688 130.257812 -115.542969 C 128.75 -125.8125 117.890625 -130.648438 107.953125 -129.191406 C 99.007812 -127.878906 90.742188 -121.929688 88.273438 -111.078125 C 79.019531 -65.730469 63.453125 -49.574219 50.203125 -47.628906 C 42.585938 -46.511719 36.886719 -50.753906 35.964844 -57.046875 C 35.722656 -58.703125 35.808594 -60.410156 36.179688 -62.492188 Z M 36.179688 -62.492188 "/></g></g></g><g fill="#7b8643" fill-opacity="0.7686"><g transform="translate(674.148955, 606.741702)"><g><path d="M 153.921875 -118 C 144.980469 -77.433594 112.480469 -56.761719 84.324219 -52.632812 C 60.140625 -49.089844 43.203125 -58.449219 40.96875 -73.6875 C 40.53125 -76.667969 40.425781 -79.699219 41.265625 -83.203125 L 42.992188 -89.886719 C 53.472656 -85.332031 65.980469 -83.105469 79.230469 -85.050781 C 109.378906 -89.472656 133.109375 -112.238281 137.683594 -143.367188 C 138.414062 -149.902344 138.488281 -156.34375 137.660156 -161.972656 C 133.046875 -193.445312 104.65625 -213.984375 67.222656 -208.492188 C 37.738281 -204.171875 11.445312 -182.71875 4.707031 -147.890625 L -6.53125 -88.378906 C -8.015625 -80.039062 -8.503906 -71.84375 -7.386719 -64.226562 C -1.605469 -24.804688 39.089844 -5.730469 87.453125 -12.824219 C 133.5 -19.578125 182.539062 -49.777344 195.125 -116.257812 C 195.730469 -119.054688 195.71875 -121.421875 195.429688 -123.410156 C 193.921875 -133.679688 183.820312 -137.949219 173.882812 -136.492188 C 164.609375 -135.132812 155.398438 -128.707031 153.921875 -118 Z M 71.960938 -169.257812 C 81.234375 -170.617188 88.316406 -163.875 89.722656 -154.265625 C 90.113281 -151.617188 90.171875 -148.917969 89.566406 -146.121094 C 87.855469 -134.703125 78.5 -129.273438 68.5625 -127.816406 C 62.269531 -126.890625 55.78125 -127.292969 50.753906 -129.265625 L 54.796875 -150.160156 C 56.933594 -160.964844 64.339844 -168.140625 71.960938 -169.257812 Z M 71.960938 -169.257812 "/></g></g></g><g fill="#7b8643" fill-opacity="0.7686"><g transform="translate(831.166685, 583.715968)"><g><path d="M 170.855469 -122.511719 C 162.109375 -80.621094 146.273438 -61.71875 130.703125 -59.433594 C 124.738281 -58.5625 120.988281 -61.054688 120.164062 -66.6875 C 119.824219 -69.007812 120.097656 -71.753906 120.605469 -75.210938 L 135.660156 -152.542969 C 137.007812 -159.507812 137.457031 -165.667969 136.632812 -171.296875 C 132.746094 -197.800781 107.304688 -214.371094 80.804688 -210.484375 C 67.882812 -208.589844 58.050781 -204.105469 50.363281 -196.546875 C 47.5 -202.21875 38.730469 -204.316406 29.789062 -203.003906 C 20.511719 -201.644531 12.199219 -196.027344 10.246094 -186.265625 L -22.390625 -23.449219 C -22.945312 -20.324219 -22.886719 -17.625 -22.5 -14.972656 C -20.703125 -2.71875 -10.171875 2.167969 0.429688 0.613281 C 12.023438 -1.085938 24.203125 -10.316406 26.988281 -25.953125 C 33.871094 -59.785156 43.117188 -107.503906 49.714844 -140.957031 C 56.230469 -158.832031 66.660156 -168.480469 75.933594 -169.839844 C 81.898438 -170.714844 86.785156 -167.371094 87.710938 -161.078125 C 88.050781 -158.757812 87.824219 -155.679688 87.269531 -152.554688 L 73.09375 -80.765625 C 71.558594 -72.757812 70.972656 -65.226562 71.992188 -58.269531 C 76.460938 -27.792969 104.019531 -15.253906 132.175781 -19.382812 C 165.964844 -24.339844 198.722656 -52.492188 212.105469 -120.441406 C 212.710938 -123.234375 212.984375 -125.984375 212.644531 -128.300781 C 211.089844 -138.902344 200.660156 -143.125 190.71875 -141.667969 C 181.777344 -140.355469 172.566406 -133.929688 170.855469 -122.511719 Z M 170.855469 -122.511719 "/></g></g></g><g fill="#7b8643" fill-opacity="0.7686"><g transform="translate(1005.078762, 558.212778)"><g><path d="M 194.363281 -142.203125 C 185.421875 -140.890625 176.824219 -134.894531 175.398438 -123.855469 C 166.320312 -81.917969 150.910156 -62.398438 136.003906 -60.210938 C 129.375 -59.242188 125.054688 -63.34375 124.277344 -68.644531 C 123.984375 -70.632812 124.023438 -72.667969 124.765625 -76.839844 L 163.730469 -281.867188 C 164.472656 -286.035156 165.304688 -291.910156 164.769531 -295.554688 C 162.679688 -309.796875 149.96875 -315.71875 138.375 -314.015625 C 128.105469 -312.511719 119.617188 -303.484375 116.179688 -285.382812 L 98.566406 -195.496094 C 87.027344 -204.96875 71.527344 -209.125 55.957031 -206.84375 C 34.425781 -203.683594 12.984375 -188.359375 7.734375 -161.871094 L -10.621094 -67.8125 C -12.015625 -61.179688 -12.039062 -54.40625 -11.164062 -48.445312 C -6.890625 -19.292969 19.542969 -2.867188 48.035156 -7.042969 C 63.605469 -9.328125 80.050781 -17.152344 91.410156 -32.015625 C 103.328125 -22.257812 120.25 -17.632812 136.8125 -20.0625 C 169.609375 -24.871094 203.925781 -53.929688 216.597656 -122.113281 C 216.921875 -124.53125 217.242188 -126.945312 216.953125 -128.933594 C 215.445312 -139.203125 204.632812 -143.707031 194.363281 -142.203125 Z M 47.839844 -59.128906 C 41.304688 -59.863281 38.917969 -64.585938 38.140625 -69.886719 C 37.511719 -74.195312 37.921875 -78.316406 38.476562 -81.441406 L 49.246094 -139.535156 C 53.007812 -160.050781 61.464844 -164.675781 66.765625 -165.453125 C 73.058594 -166.375 80.9375 -161.101562 82.589844 -149.835938 C 83.320312 -144.867188 83.25 -138.429688 81.480469 -129.710938 L 73.484375 -89.621094 C 67.144531 -63.652344 54.328125 -58.726562 47.839844 -59.128906 Z M 47.839844 -59.128906 "/></g></g></g><g fill="#e9edc9" fill-opacity="1"><g transform="translate(310.643918, 649.714031)"><g><path d="M 9.730469 -159.792969 L -42.1875 102.289062 C -42.980469 106.128906 -43.105469 109.871094 -42.621094 113.183594 C -40.582031 127.09375 -27.675781 134.339844 -15.417969 132.542969 C -5.148438 131.035156 4.527344 123.1875 7.546875 106.839844 L 60.746094 -167.277344 L 84.878906 -171.152344 C 100.398438 -173.769531 106.035156 -186.097656 104.628906 -195.707031 C 103.265625 -204.980469 95.046875 -212.574219 82.789062 -210.777344 L 69.207031 -208.785156 L 80.132812 -263.515625 C 81.617188 -271.855469 87.183594 -277.746094 92.8125 -278.570312 C 99.769531 -279.59375 103.003906 -276.003906 103.828125 -270.375 C 104.121094 -268.386719 104.082031 -266.351562 103.757812 -263.933594 C 102.589844 -260.378906 102.363281 -257.300781 102.800781 -254.320312 C 104.5 -242.722656 116.929688 -236.425781 128.523438 -238.125 C 139.125 -239.679688 149.085938 -247.910156 150.347656 -264.675781 C 150.664062 -269.457031 150.691406 -273.863281 150.0625 -278.167969 C 145.785156 -307.320312 120.054688 -325.882812 91.234375 -321.65625 C 63.074219 -317.527344 37.25 -297.496094 30.046875 -261.246094 L 18.191406 -201.304688 L 9.582031 -200.042969 C -10.957031 -197.03125 -17.871094 -184.171875 -16.316406 -173.570312 C -14.957031 -164.296875 -7.496094 -157.269531 2.773438 -158.773438 Z M 9.730469 -159.792969 "/></g></g></g><g fill="#e9edc9" fill-opacity="1"><g transform="translate(416.647458, 634.169231)"><g><path d="M 153.867188 -120.699219 C 146.039062 -86.386719 132.691406 -59.726562 118.777344 -57.6875 C 114.136719 -57.007812 111.1875 -60.972656 110.507812 -65.609375 C 110.214844 -67.597656 110.160156 -70.296875 110.765625 -73.09375 L 122.34375 -130.289062 C 123.359375 -137.203125 123.808594 -143.359375 122.984375 -148.992188 C 118.367188 -180.464844 76.671875 -187.882812 57.296875 -190.796875 C 57.902344 -193.589844 57.796875 -196.621094 57.40625 -199.273438 C 55.171875 -214.511719 39.695312 -225.4375 24.789062 -223.25 C 5.242188 -220.386719 -3.824219 -201.460938 -1.054688 -182.578125 C 0.160156 -174.296875 4.402344 -166.121094 10.675781 -160.273438 L -3.9375 -91.464844 C -4.210938 -88.71875 -4.15625 -86.019531 -3.863281 -84.03125 C -2.261719 -73.101562 7.179688 -68.730469 16.453125 -70.089844 C 25.730469 -71.453125 34.558594 -78.160156 36.980469 -89.34375 L 48.246094 -141.753906 C 57.957031 -140.132812 70.554688 -139.613281 72.207031 -128.347656 C 72.449219 -126.691406 72.410156 -124.65625 72.085938 -122.242188 L 63.4375 -79.6875 C 61.90625 -71.679688 61.597656 -64.53125 62.570312 -57.902344 C 66.796875 -29.082031 92.425781 -13.554688 119.917969 -17.585938 C 156.027344 -22.878906 184.109375 -59.824219 195.445312 -118.671875 C 195.816406 -120.757812 195.90625 -122.464844 195.664062 -124.121094 C 194.207031 -134.058594 182.300781 -139.078125 171.703125 -137.523438 C 163.089844 -136.261719 155.390625 -131.074219 153.867188 -120.699219 Z M 153.867188 -120.699219 "/></g></g></g><g fill="#e9edc9" fill-opacity="1"><g transform="translate(573.333929, 611.192075)"><g><path d="M 56.125 -238 C 71.035156 -240.183594 81.492188 -254.238281 79.257812 -269.476562 C 77.074219 -284.386719 63.066406 -294.511719 48.160156 -292.328125 C 33.253906 -290.140625 22.746094 -276.417969 24.929688 -261.511719 C 27.164062 -246.273438 41.21875 -235.8125 56.125 -238 Z M 36.179688 -62.492188 L 57.367188 -171.855469 C 58.058594 -176.355469 59.035156 -181.238281 58.550781 -184.550781 C 56.414062 -199.125 44.363281 -205.140625 33.101562 -203.492188 C 22.832031 -201.984375 12.96875 -193.09375 9.949219 -176.746094 C 3.917969 -144.054688 -4.214844 -102.589844 -10.296875 -70.230469 C -11.316406 -63.3125 -12.652344 -53.980469 -11.828125 -48.347656 C -7.261719 -17.207031 21.203125 -3.109375 51.679688 -7.578125 C 84.140625 -12.339844 117.003906 -37.460938 130.136719 -109.433594 C 130.507812 -111.519531 130.546875 -113.554688 130.257812 -115.542969 C 128.75 -125.8125 117.890625 -130.648438 107.953125 -129.191406 C 99.007812 -127.878906 90.742188 -121.929688 88.273438 -111.078125 C 79.019531 -65.730469 63.453125 -49.574219 50.203125 -47.628906 C 42.585938 -46.511719 36.886719 -50.753906 35.964844 -57.046875 C 35.722656 -58.703125 35.808594 -60.410156 36.179688 -62.492188 Z M 36.179688 -62.492188 "/></g></g></g><g fill="#e9edc9" fill-opacity="1"><g transform="translate(664.761985, 597.784684)"><g><path d="M 153.921875 -118 C 144.980469 -77.433594 112.480469 -56.761719 84.324219 -52.632812 C 60.140625 -49.089844 43.203125 -58.449219 40.96875 -73.6875 C 40.53125 -76.667969 40.425781 -79.699219 41.265625 -83.203125 L 42.992188 -89.886719 C 53.472656 -85.332031 65.980469 -83.105469 79.230469 -85.050781 C 109.378906 -89.472656 133.109375 -112.238281 137.683594 -143.367188 C 138.414062 -149.902344 138.488281 -156.34375 137.660156 -161.972656 C 133.046875 -193.445312 104.65625 -213.984375 67.222656 -208.492188 C 37.738281 -204.171875 11.445312 -182.71875 4.707031 -147.890625 L -6.53125 -88.378906 C -8.015625 -80.039062 -8.503906 -71.84375 -7.386719 -64.226562 C -1.605469 -24.804688 39.089844 -5.730469 87.453125 -12.824219 C 133.5 -19.578125 182.539062 -49.777344 195.125 -116.257812 C 195.730469 -119.054688 195.71875 -121.421875 195.429688 -123.410156 C 193.921875 -133.679688 183.820312 -137.949219 173.882812 -136.492188 C 164.609375 -135.132812 155.398438 -128.707031 153.921875 -118 Z M 71.960938 -169.257812 C 81.234375 -170.617188 88.316406 -163.875 89.722656 -154.265625 C 90.113281 -151.617188 90.171875 -148.917969 89.566406 -146.121094 C 87.855469 -134.703125 78.5 -129.273438 68.5625 -127.816406 C 62.269531 -126.890625 55.78125 -127.292969 50.753906 -129.265625 L 54.796875 -150.160156 C 56.933594 -160.964844 64.339844 -168.140625 71.960938 -169.257812 Z M 71.960938 -169.257812 "/></g></g></g><g fill="#e9edc9" fill-opacity="1"><g transform="translate(821.779714, 574.758951)"><g><path d="M 170.855469 -122.511719 C 162.109375 -80.621094 146.273438 -61.71875 130.703125 -59.433594 C 124.738281 -58.5625 120.988281 -61.054688 120.164062 -66.6875 C 119.824219 -69.007812 120.097656 -71.753906 120.605469 -75.210938 L 135.660156 -152.542969 C 137.007812 -159.507812 137.457031 -165.667969 136.632812 -171.296875 C 132.746094 -197.800781 107.304688 -214.371094 80.804688 -210.484375 C 67.882812 -208.589844 58.050781 -204.105469 50.363281 -196.546875 C 47.5 -202.21875 38.730469 -204.316406 29.789062 -203.003906 C 20.511719 -201.644531 12.199219 -196.027344 10.246094 -186.265625 L -22.390625 -23.449219 C -22.945312 -20.324219 -22.886719 -17.625 -22.5 -14.972656 C -20.703125 -2.71875 -10.171875 2.167969 0.429688 0.613281 C 12.023438 -1.085938 24.203125 -10.316406 26.988281 -25.953125 C 33.871094 -59.785156 43.117188 -107.503906 49.714844 -140.957031 C 56.230469 -158.832031 66.660156 -168.480469 75.933594 -169.839844 C 81.898438 -170.714844 86.785156 -167.371094 87.710938 -161.078125 C 88.050781 -158.757812 87.824219 -155.679688 87.269531 -152.554688 L 73.09375 -80.765625 C 71.558594 -72.757812 70.972656 -65.226562 71.992188 -58.269531 C 76.460938 -27.792969 104.019531 -15.253906 132.175781 -19.382812 C 165.964844 -24.339844 198.722656 -52.492188 212.105469 -120.441406 C 212.710938 -123.234375 212.984375 -125.984375 212.644531 -128.300781 C 211.089844 -138.902344 200.660156 -143.125 190.71875 -141.667969 C 181.777344 -140.355469 172.566406 -133.929688 170.855469 -122.511719 Z M 170.855469 -122.511719 "/></g></g></g><g fill="#e9edc9" fill-opacity="1"><g transform="translate(995.691791, 549.25576)"><g><path d="M 194.363281 -142.203125 C 185.421875 -140.890625 176.824219 -134.894531 175.398438 -123.855469 C 166.320312 -81.917969 150.910156 -62.398438 136.003906 -60.210938 C 129.375 -59.242188 125.054688 -63.34375 124.277344 -68.644531 C 123.984375 -70.632812 124.023438 -72.667969 124.765625 -76.839844 L 163.730469 -281.867188 C 164.472656 -286.035156 165.304688 -291.910156 164.769531 -295.554688 C 162.679688 -309.796875 149.96875 -315.71875 138.375 -314.015625 C 128.105469 -312.511719 119.617188 -303.484375 116.179688 -285.382812 L 98.566406 -195.496094 C 87.027344 -204.96875 71.527344 -209.125 55.957031 -206.84375 C 34.425781 -203.683594 12.984375 -188.359375 7.734375 -161.871094 L -10.621094 -67.8125 C -12.015625 -61.179688 -12.039062 -54.40625 -11.164062 -48.445312 C -6.890625 -19.292969 19.542969 -2.867188 48.035156 -7.042969 C 63.605469 -9.328125 80.050781 -17.152344 91.410156 -32.015625 C 103.328125 -22.257812 120.25 -17.632812 136.8125 -20.0625 C 169.609375 -24.871094 203.925781 -53.929688 216.597656 -122.113281 C 216.921875 -124.53125 217.242188 -126.945312 216.953125 -128.933594 C 215.445312 -139.203125 204.632812 -143.707031 194.363281 -142.203125 Z M 47.839844 -59.128906 C 41.304688 -59.863281 38.917969 -64.585938 38.140625 -69.886719 C 37.511719 -74.195312 37.921875 -78.316406 38.476562 -81.441406 L 49.246094 -139.535156 C 53.007812 -160.050781 61.464844 -164.675781 66.765625 -165.453125 C 73.058594 -166.375 80.9375 -161.101562 82.589844 -149.835938 C 83.320312 -144.867188 83.25 -138.429688 81.480469 -129.710938 L 73.484375 -89.621094 C 67.144531 -63.652344 54.328125 -58.726562 47.839844 -59.128906 Z M 47.839844 -59.128906 "/></g></g></g></svg>