<?xml version="1.0" encoding="UTF-8"?>
<svg id="Layer_2" data-name="Layer 2" xmlns="http://www.w3.org/2000/svg" xmlns:xlink="http://www.w3.org/1999/xlink" viewBox="0 0 512.98 991.1">
  <defs>
    <style>
      .cls-1 {
        fill: #fdc83c;
      }

      .cls-1, .cls-2, .cls-3 {
        fill-rule: evenodd;
      }

      .cls-4 {
        fill: #fff;
      }

      .cls-5 {
        fill: #7b8643;
      }

      .cls-2 {
        fill: #2b2a29;
      }

      .cls-6 {
        clip-path: url(#clippath-2);
      }

      .cls-7 {
        clip-path: url(#clippath-1);
      }

      .cls-3 {
        fill: #774e32;
      }

      .cls-8 {
        fill: #a0a971;
      }

      .cls-9 {
        clip-path: url(#clippath);
      }

      .cls-10 {
        fill: none;
      }

      .cls-11 {
        clip-path: url(#clippath-3);
      }
    </style>
    <clipPath id="clippath">
      <rect class="cls-10" x="256.75" y="197.68" width="117.07" height="793.42"/>
    </clipPath>
    <clipPath id="clippath-1">
      <rect class="cls-10" x="288.49" y="488.61" width="224.49" height="260.91"/>
    </clipPath>
    <clipPath id="clippath-2">
      <rect class="cls-10" y="396.88" width="273.82" height="210.67"/>
    </clipPath>
    <clipPath id="clippath-3">
      <rect class="cls-10" x="92.76" width="396" height="376.69"/>
    </clipPath>
  </defs>
  <g id="Layer_1-2" data-name="Layer 1">
    <g>
      <g class="cls-9">
        <path class="cls-5" d="m367.94,991.1c-2.04,0-4.02-1.05-5.11-2.94-1.63-2.79-161.16-285.45-85.8-784.94.49-3.22,3.49-5.42,6.71-4.95,3.22.48,5.43,3.49,4.95,6.71-74.7,495.08,82.73,774.52,84.33,777.29,1.64,2.82.67,6.43-2.15,8.05-.93.54-1.94.79-2.94.79"/>
      </g>
      <path class="cls-4" d="m270.97,186.58c.24,37.65,63.68,48.18,66.04,6.54,2.36-41.64-66.28-44.19-66.04-6.54"/>
      <g class="cls-7">
        <g>
          <path class="cls-8" d="m288.79,749.52s-5.45-225.58,224.2-260.75c0,0-23.09,235.25-224.2,260.75"/>
          <path class="cls-5" d="m296.9,748.34c19.82-27.39,125.4-171.06,214.9-250.63.87-5.7,1.2-8.94,1.2-8.94-3.72.57-7.38,1.19-10.98,1.86-87.99,78.95-190.17,217.07-212.97,248.49-.33,6.61-.25,10.39-.25,10.39,2.74-.35,5.43-.75,8.11-1.18"/>
        </g>
      </g>
      <g class="cls-6">
        <g>
          <path class="cls-8" d="m273.52,605.96S48.66,624.71,0,397.54c0,0,236.21,9.17,273.52,208.42"/>
          <path class="cls-5" d="m271.87,597.94c-28.51-18.18-178.16-115.1-262.88-199.73-5.74-.54-8.99-.67-8.99-.67.79,3.68,1.63,7.3,2.51,10.85,84.01,83.17,227.92,177.03,260.63,197.94,6.63-.06,10.39-.37,10.39-.37-.51-2.71-1.07-5.38-1.65-8.02"/>
        </g>
      </g>
      <g>
        <g class="cls-11">
          <path class="cls-1" d="m402.57,199.4c-7.33-1.98-14.52-4.97-22.46-8.36l-1.38-.59-.94,1.47-1.16.95.39,1.16c.69,2.03.98,3.69.89,4.95-.07.94-.38,1.6-.9,1.96l-4.8,3.29,6.11-.12c5.56-.11,10.92-.21,16.01,0,5.01.2,9.76.71,14.2,1.82,3.88.97,7.91,3.03,12.13,5.84,4.32,2.87,8.84,6.52,13.61,10.59l.55.47.71-.06c3.74-.29,7.63-.74,11.53-1.33,3.75-.57,7.55-1.29,11.3-2.15,5.83-1.34,11.44-3.01,16.38-5,4.58-1.85,8.61-3.98,11.76-6.39l1.79-1.38-1.78-1.38c-2.76-2.15-5.77-4.47-9.2-6.94-3.35-2.41-6.91-4.83-10.65-7.07l-.81-.48-2.05,1.01c-5.71,2.74-12.03,5.11-18.68,6.89-6.21,1.66-12.72,2.79-19.28,3.22-8.55.57-16.01-.42-23.28-2.38Zm21.07,64.53c7.53,1.13,15.37,1.64,22.77,1.49,5.55-.11,10.8-.59,15.44-1.44,4.48-.83,8.41-2.01,11.49-3.56l2.74-1.38-2.59-1.65c-12.58-7.98-23.66-17.68-33.6-26.38l-.03-.02c-6.1-5.34-11.76-10.29-17.03-14.22-5.38-4.01-10.36-6.93-14.97-8.08-4.27-1.07-8.94-1.55-13.92-1.74-4.9-.19-10.11-.09-15.53.02l-1.78.03-.36,1.23c-.13.42-.3.77-.54,1.04-.21.23-.49.42-.83.55l-1.34.5.21,1.4c.28,1.79.29,3.25.05,4.36-.19.89-.55,1.53-1.06,1.89l-1.63,1.16,1.37,1.45c1.05,1.12,2.14,2.33,3.22,3.53l.57.63-5.35-4.66-.45,3.18c-.14,1.01-.41,1.79-.81,2.33-.34.46-.78.76-1.33.9l-2.69.69,1.79,2.11c5.69,6.69,10.78,12.67,16.36,17.72,5.64,5.09,11.72,9.16,19.31,11.92,6.15,2.23,13.21,3.91,20.51,5.01Zm-4.7,51.35c4.77,1.3,9.27,2.05,13.22,2.03h2.26s-.57-2.18-.57-2.18c-1.98-7.46-4.36-16.15-8.03-24.97-3.7-8.87-8.71-17.86-15.94-25.85l-.34-.38-.49-.14c-1.11-.3-2.3-.66-3.55-1.05-1.2-.38-2.31-.76-3.33-1.13-6.1-2.21-11.2-5.17-15.83-8.74-4.67-3.6-8.89-7.86-13.17-12.63l-.29-.33-4.14-1.48-2.69-.89-4.55-1.38-.39,1.84c-.3,1.41-.78,2.43-1.42,3.04-.54.51-1.27.74-2.18.68l-.87-.05-.95,1.14c-.19,1.07-.4,2.09-.63,3.16l1.27.58c15.2,6.95,19.47,9.22,28.12,17.6-9.22-6.9-15.22-10.26-28.72-16.6l-1.09-.51-.86.85c-.17.16-.34.3-.54.41-.17.1-.37.18-.58.24l-4.61,1.22,4.32,2.03c3.75,1.77,7.36,3.89,10.98,6.86,3.64,2.99,7.32,6.87,11.18,12.15,3.49,4.77,6.37,9.79,8.73,14.94s4.22,10.47,5.66,15.82l.19.7.63.36c2.07,1.18,4.28,2.38,6.59,3.56,2.22,1.14,4.42,2.2,6.56,3.17,5.43,2.46,10.91,4.52,16.07,5.93Zm-47.69,20.02c5.44,4.48,10.92,8.81,16.2,12.92l2.64,2.05.17-3.34c.24-4.83.32-10.1.11-15.63-.22-5.53-.73-11.32-1.69-17.19-1.15-7.09-2.94-14.31-5.59-21.33-2.67-7.05-6.22-13.93-10.89-20.29-3.86-5.29-7.6-9.13-11.35-12.09-3.76-2.97-7.52-5.04-11.44-6.77l-1.15-.52-.84.94c-.39.43-.83.72-1.3.85-.51.14-1.12.12-1.81-.06l-1.63-.42-.47,1.61c-.26.89-.55,1.66-.89,2.32-.3.6-.64,1.09-.99,1.47l-1.4,1.5,1.7,1.14c10.8,7.22,15.46,11.92,19.94,20.69-5.88-8.56-11.67-13.88-23.53-21.7l-1.73-1.14-1.07,2.45c-.66,1.45-1.42,2.4-2.24,2.83-.69.36-1.54.35-2.53-.05l-1.89-.82-.69,1.6c-.57,1.33-1.19,2.33-1.85,3-.53.53-1.09.84-1.65.9l-2.06.24.6,1.99c.69,2.3,1.52,4.69,2.51,7.2.98,2.51,2.17,5.2,3.6,8.13,2.8,5.71,6.73,11.43,11.41,17.06,4.64,5.59,10.05,11.14,15.85,16.55,5.09,4.74,10.49,9.4,15.95,13.89Zm-51.21,7.71c1.83,3.03,3.79,6.05,5.85,8.98,3.43,4.88,7.1,9.44,10.82,13.27,3.43,3.54,6.93,6.46,10.36,8.47l1.95,1.14.61-2.17c1.75-6.24,3.71-13.38,5.07-21.1,1.38-7.78,2.15-16.15,1.53-24.82l-.05-.68-2.83-2.6c-5.67-5.3-11-10.74-15.64-16.27-4.61-5.5-8.55-11.07-11.47-16.65l-9.69-18.51,6.49,19.85c.58,1.78,1.12,3.59,1.75,5.71l.95,3.17-2.96-6.84c-2.68-6.23-5.36-12.48-9.23-20.27l-.23-.47-1.78-1.04-.94,1.19c-.38.48-.8.95-1.24,1.4s-.83.79-1.21,1.07l-1.22.92.75,1.32c2.35,4.18,4.4,8.23,6.01,12.54,1.61,4.3,2.82,8.89,3.51,14.16.49,3.8.49,8.04.08,12.52-.44,4.8-1.36,9.89-2.66,15.01l-.15.63.3.58c1.64,3.19,3.42,6.39,5.29,9.49Zm-39.97,11.38c2.18,6.68,4.66,13.2,7.37,19.23l.95,2.1,1.76-1.47c2.98-2.48,6.02-6.36,8.9-11.13,2.95-4.87,5.76-10.73,8.18-16.99,2.79-7.21,5.02-14.9,6.29-22.19,1.18-6.77,1.57-13.25.84-18.77-.7-5.35-1.99-10.04-3.73-14.47-1.72-4.39-3.9-8.54-6.39-12.87l-.36-.63-.7-.18c-.34-.09-.7-.22-1.07-.39-.39-.18-.78-.39-1.15-.62l-1.19-.76-.98,1.02c-.42.43-.85.82-1.28,1.17-.4.32-.81.59-1.21.82l-1.31.72.52,1.4c3.09,8.29,4.63,14.56,4.92,21.76.05,1.16.06,2.34.04,3.56l-.32-2.53c-1.1-7.78-2.99-14.88-6.04-23.16l-.34-.92-.97-.19c-.53-.1-1.07-.3-1.59-.58-.55-.29-1.13-.7-1.71-1.22l-1.12-.98-1.15.96c-1.63,1.36-3.17,1.97-4.59,1.85-1.44-.12-2.89-1-4.31-2.64l-.99-1.14-1.27.83-.75.45-1.42.64-.25.78c-.85,2.65-1.61,5.28-2.25,7.92-.65,2.68-1.16,5.36-1.47,8.04-.52,4.37-.37,10.18.36,16.84.73,6.76,2.06,14.42,3.89,22.38,1.6,7.03,3.61,14.29,5.92,21.36Zm-53.08-25.38c-.65,6.28-.68,12.45-.18,18.22.45,5.3,1.34,10.27,2.59,14.65,1.27,4.44,2.91,8.31,4.86,11.34l.9,1.41,1.44-.84c3.27-1.92,6.6-4.79,9.86-8.31,3.52-3.78,6.98-8.34,10.2-13.24,2.59-3.93,5-8.04,7.16-12.11,2.24-4.26,4.25-8.54,5.92-12.6l.2-.49-.1-.5c-1.32-6.76-2.26-13.19-2.73-18.91-.46-5.53-.49-10.37-.05-14.16.31-2.64.78-5.19,1.36-7.71s1.29-5.04,2.08-7.58l.37-1.18-1.01-.74c-.34-.25-.7-.57-1.05-.93-.36-.38-.71-.81-1.07-1.3l-1.89-2.64-1.16,3.02c-2.4,6.25-4.81,11.8-7.24,17.42-1.66,3.84-3.35,7.72-5.04,11.83,2.03-6.95,4.05-11.69,6.36-17.11,1.29-3.02,2.66-6.24,4.27-10.41l.73-1.89-1.98-.43c-.64-.14-1.27-.45-1.86-.93-.66-.53-1.3-1.26-1.9-2.18l-1.21-1.86-1.52,1.62c-1.25,1.33-2.47,2.68-3.67,4.04-1.19,1.36-2.33,2.72-3.42,4.07-4.02,4.98-7.49,10.09-10.44,15.51-2.95,5.43-5.37,11.15-7.28,17.36-1.77,5.76-2.92,11.7-3.53,17.57Zm-25.74-7.56c-.9,3.53-1.68,7.11-2.31,10.65-1.05,5.88-1.72,11.69-1.82,17.02-.1,4.93.28,9.46,1.27,13.3l.56,2.19,1.97-1.09c3.41-1.89,7.08-3.96,10.83-6.23,3.78-2.31,7.69-4.87,11.56-7.76l.78-.58-.13-1.45c-.51-5.98-.48-12.36.18-18.8.63-6.04,1.81-12.16,3.64-18.09.88-2.85,1.87-5.64,2.98-8.35,1.09-2.69,2.3-5.29,3.62-7.83l14.5-27.89-17.49,26.11c-.83,1.25-1.56,2.21-2.2,3.02,2.08-4.17,4.01-7.36,5.97-10.63,3.05-5.06,6.19-10.28,10.18-19.43l.9-2.06-2.23-.35c-.33-.05-.66-.15-.99-.3-.32-.15-.63-.34-.91-.57l-1.65-1.35-4.57,8.65c-2.75,5.25-5.39,10.3-8.18,15.02-2.74,4.64-5.6,8.9-8.78,12.59-1.63,1.9-3.67,3.96-6.01,6.09-2.39,2.18-5.09,4.43-7.98,6.65l-.42.33-.17.51c-1.12,3.41-2.17,6.99-3.09,10.63Zm-35.9-36.4c-3.8,5.49-6.98,11.23-9.47,16.86-2.3,5.21-4.02,10.33-5.09,15.08-1.09,4.82-1.52,9.29-1.23,13.1l.13,1.65,1.65-.04c4.04-.09,8.63-1.06,13.48-2.67,5.27-1.75,10.86-4.24,16.39-7.17,7.13-3.78,14.13-8.27,20.22-12.81,6.34-4.72,11.74-9.54,15.32-13.7,3.09-3.59,5.9-7.8,8.61-12.42,2.7-4.57,5.29-9.52,7.98-14.66l.2-.38c1.57-3,3.18-6.07,4.85-9.15l1.4-2.57h-2.93c-.44,0-.85-.05-1.25-.17-.37-.11-.72-.28-1.04-.51l-1.36-.94-1.01,1.3c-4.36,5.62-8.33,10.66-13.16,14.88l-.41.34c4.37-4.66,8.32-9.84,12.34-15.13l1.86-2.44-.4-.93c-.19-.43-.35-.9-.51-1.38-.15-.49-.29-1.04-.42-1.64l-.29-1.34-1.39-.03c-.87-.02-1.63-.26-2.24-.7-.67-.49-1.24-1.25-1.69-2.26l-.64-1.42-1.47.46c-2.28.71-4.5,1.45-6.65,2.22-2.18.79-4.3,1.6-6.34,2.44-6.3,2.59-12.14,5.58-17.63,9.1-5.5,3.54-10.67,7.63-15.61,12.44-4.59,4.46-8.69,9.41-12.24,14.54Zm-20.17-15.49c-2.16,2.11-4.3,4.34-6.38,6.63-4.21,4.65-8.01,9.45-10.98,14.11-2.75,4.31-4.82,8.52-5.89,12.4l-.44,1.59,1.56.52c3.45,1.16,7.63,1.83,12.26,2.01,4.59.17,9.64-.13,14.9-.93l1-.15,1.17-2.96.87-2.03c2.57-5.8,5.84-11.7,9.74-17.35,3.66-5.3,7.88-10.38,12.58-14.95,5.07-4.93,10.37-9.13,16.02-12.76,5.66-3.64,11.67-6.71,18.14-9.38,1.86-.77,3.78-1.51,5.77-2.23,1.98-.72,3.99-1.41,6.02-2.06l3.56-1.14-3.16-1.98c-.38-.24-.72-.57-1.02-.97-.33-.44-.61-.98-.84-1.63l-.55-1.51-6.66,1.76-5.49,1.35-.33.3c-5.11,4.7-10.05,8.88-15.43,12.38-5.35,3.48-11.2,6.33-18.17,8.4-3.28.97-6.6,1.77-9.94,2.38-3.44.64-6.92,1.1-10.41,1.39l-.56.05-.44.39c-2.32,2.02-4.65,4.16-6.91,6.38Zm16.39-51.87c-9.75,10.29-22.6,23.83-50.71,32.78l-4.09,1.3,3.84,1.91c3.13,1.55,6.81,2.88,10.89,3.92,3.99,1.02,8.41,1.77,13.09,2.21,6.14.58,12.7.61,19.35-.02,6.24-.58,12.56-1.75,18.69-3.57,16.6-4.92,26.83-14.66,39.85-27.05.72-.52,2.05-1.95,2.82-2.67l-.14-.9c-.09-.58-.15-1.19-.16-1.81-.02-.65,0-1.38.05-2.15l.08-1.19-1.1-.5c-.49-.22-.9-.57-1.21-1.02-.35-.49-.61-1.15-.77-1.95l-.49-2.47-2.14,1.33c-2.3,1.43-4.42,2.81-6.38,4.12-1.87,1.25-3.56,2.42-5.12,3.51l-1.67,1.16c-2.74,1.92-5.1,3.57-7.6,5.09-1.45.89-2.95,1.72-4.59,2.54l-2.18,1.02c4.18-2.63,7.94-5.3,11.92-8.13,5.01-3.55,10.39-7.38,17.43-11.7l.7-.42.43-2.76-.93-.63c-.57-.38-.97-.99-1.19-1.82-.27-1.02-.29-2.34-.06-3.94l.29-1.92-4.96-.13h-2.98c-1.31.02-2.59.06-3.83.11l-3.83.23c-1.2.09-2.47.21-3.78.35-1.27.14-2.52.29-3.74.46l-3.7.57c-1.12.19-2.34.42-3.67.68-7.03,1.42-12.03,6.68-18.38,13.39l-.03.04Zm-17.56-34.18c-5.26-2.52-10.52-5.48-15.48-8.72l-.57-.38-.68.13c-6.13,1.1-12.16,2.59-17.61,4.36-5.3,1.72-10.11,3.73-14.04,5.95l-2.06,1.16,1.72,1.61c11.73,11,22.07,18.46,32.08,23.09,10.1,4.67,19.86,6.47,30.37,6.12l.72-.03,1.05-1.1c6.7-7.08,11.98-12.64,19.91-14.24,4.57-.92,9.27-1.6,14.09-2.01,4.73-.41,9.51-.55,14.3-.42l1.91.05-.13-1.91c-.03-.52-.01-1.09.07-1.71.08-.65.24-1.38.46-2.16l.42-1.48-9.7-3.99-.53.12c-7.46,1.72-14.3,3.12-21.02,3.55-6.66.42-13.25-.09-20.31-2.17-4.82-1.42-9.9-3.42-14.95-5.84Zm27.58-42.18c-5.67-.73-12.2-1.08-19.19-1.09-7.29-.02-15.01.31-22.77.91-8.37.64-16.85,1.59-24.92,2.73l-2.3.33.95,2.11c1.4,3.1,3.8,6.44,6.91,9.83,3.23,3.51,7.26,7.1,11.77,10.57,5.7,4.38,12.16,8.51,18.73,11.97,6.36,3.36,12.87,6.11,18.97,7.91,15.06,4.43,28.29,1.31,45.14-2.66,2.35-.57,4.72-1.13,7.09-1.66.76-1.51,1.54-2.98,2.33-4.48l-7.62-.02c-15.83-.01-27.21-.03-39.32-3.37,12.21,2.26,24.03,2.27,38.36,2.27h7.29s.42-1.14.42-1.14c.27-.74.68-1.57,1.25-2.46.54-.85,1.23-1.78,2.08-2.74l.48-.55-.05-.72v-.73l.11-.76.24-1.1-.91-.67c-2.34-1.73-4.69-3.53-6.98-5.29l-.61-.46c-7.44-5.69-14.37-10.99-21.34-14.36-.86-.35-1.8-.88-2.65-1.18-3.58-1.46-8.18-2.52-13.49-3.21Zm27.34-47.33c-5.24-2.55-11.41-4.8-18.09-6.75-6.77-1.97-14.05-3.63-21.42-4.94-7.98-1.43-16.02-2.48-23.58-3.15l-2.7-.23.9,2.55c2.43,6.84,4.74,13.01,7.34,18.67,2.62,5.7,5.52,10.83,9.08,15.54,3.78,4.98,8.35,9.56,14.2,13.9,5.8,4.3,12.85,8.37,21.65,12.38.77.4,1.78.8,2.59,1.16,9.26,4.07,15.83,6.76,20.97,8.55,5.21,1.82,8.96,2.73,12.54,3.22l1.88.26.09-1.91c.04-.88.17-1.67.38-2.34.2-.63.46-1.16.79-1.58l1.31-1.71-1.94-.92c-4.15-1.98-8.31-3.79-13.04-5.84l-1.94-.84c7.17,2.28,11.78,3.77,17.09,6.22l.73.33,1.7-.77.07-1.05c.09-1.54.4-2.79.9-3.73.44-.83,1.05-1.43,1.83-1.8l.38-.17.25-.33c.18-.22.39-.44.63-.63.21-.18.47-.33.76-.46l1.87-.84-1.13-1.71c-1.69-2.55-3.14-4.78-4.55-6.96l-.44-.68c-3.14-4.86-6.16-9.53-9.3-13.88-3.13-4.34-6.31-8.27-9.71-11.57-3.03-2.93-7.17-5.6-12.07-7.98Zm4.92-13.86c-.99-4.15-1.65-8.31-1.96-12.38l-.06-.76-.6-.47c-2.29-1.82-4.73-3.66-7.29-5.47-2.48-1.76-4.97-3.42-7.43-4.94-5.3-3.31-10.7-6.19-15.84-8.3-4.72-1.94-9.23-3.23-13.26-3.59l-1.64-.15-.24,1.63c-.56,3.81-.44,8.29.3,13.16.73,4.79,2.09,10.01,4.03,15.38l.89,2.39,1.33,3.26.92.18c3.22.62,6.46,1.32,9.66,2.08,3.03.72,6.03,1.51,8.96,2.36,4.66,1.36,9.1,2.87,13.16,4.53,3.84,1.57,7.36,3.28,10.45,5.12l4.53,2.69-2.03-4.85c-1.64-3.91-2.93-7.91-3.89-11.86Zm37.32,15.7c-2.52-3.63-5.55-7.27-9.8-11.88,11.35,8.19,13.88,13.9,18.93,25.36.98,2.23,2.06,4.68,3.36,7.51l.56,1.22,1.32-.24c.42-.07.9-.09,1.42-.05.55.04,1.13.14,1.72.31l.21.06,1.57.02.46-1.04c.39-.84.82-1.55,1.3-2.11.44-.52.92-.92,1.44-1.19l1.09-.58-.18-1.21c-.68-4.73-1.35-9.29-2.25-13.63-.9-4.36-2.03-8.42-3.58-12.03-1.54-3.55-4.47-6.78-8.22-9.91-3.64-3.05-8.04-6.01-12.69-9.14-4.77-3.22-9.8-6.61-14.53-10.41-4.71-3.78-9.18-8.02-12.9-12.96l-1.89-2.5-1.13,2.92c-1.17,3.03-1.99,6.52-2.46,10.32-.45,3.74-.55,7.81-.27,12.04.35,5.3,1.31,10.83,2.92,16.32,1.5,5.14,3.57,10.23,6.26,15.01,3.4,6.07,7.66,10.78,12.68,14.93,4.96,4.1,10.64,7.67,16.97,11.49l1,.6.94-.7c.37-.28.78-.48,1.23-.61.48-.14,1.02-.21,1.61-.2h.28s.82-.21.82-.21l1.81-.16.37-1.1c.16-.47.35-.93.56-1.36.17-.36.39-.72.63-1.05l.59-.82-.43-.93c-4.75-10.16-7.54-16.08-11.73-22.1Zm22.12-14.34c-.58-2.43-1.23-4.85-1.93-7.26.9,2.63,1.71,5.2,2.47,7.79l8.51,28.7-5.12-29.48-.27-1.69-.22-1.67c-.48-4.15-.24-9.15.54-14.63.88-6.04,2.41-12.65,4.4-19.36l.48-1.6-1.86-3.73-1.71-3.17c-2.81-5.04-6.13-10.28-9.99-15.79s-8.24-11.26-13.16-17.3l-1.86-2.29-1.1,2.74c-3.14,7.78-6.46,16.42-8.64,25.84-2.18,9.48-3.21,19.73-1.71,30.66l.1.76c2.41,1.69,4.85,3.32,7.27,4.98,8.74,5.89,16.64,11.22,20.61,17.8l5.76,9.54-2.57-10.83Zm43.36-34.26c-.98-5.79-2.35-11.31-4-16.42-1.42-4.41-3.04-8.51-4.78-12.24-1.83-3.9-3.81-7.41-5.85-10.41l-1.63-2.41-1.35,2.57c-2.78,5.31-5.55,11.33-8.07,17.61-2.45,6.09-4.7,12.47-6.55,18.73-1.93,6.5-3.42,12.85-4.28,18.6-.8,5.35-1.04,10.22-.57,14.25.52,4.45,1.64,9.07,3.09,13.86,1.43,4.73,3.2,9.68,5.04,14.82l1.79,5,2.72,1.42.83-1.45c.41-.71.88-1.3,1.39-1.71.41-.34.84-.56,1.29-.63l1.35-.22.09-1.37c.16-2.23.26-4.5.35-6.8l.22-4.59c.33,4.21.54,8.08.3,12.59l-.05.88,2.61,2.14,1.08-1.53c.19-.27.39-.51.57-.7.53-.54,1.09-.83,1.66-.83.67-.01,1.46.3,2.36.94.48.33.98.76,1.48,1.24l1.34,1.31c.69-.83,1.27-1.53,2.03-2.27l1.37-4.02,1.11-3.63c1.82-6.3,3.09-12.52,3.85-18.78.76-6.24,1.02-12.55.85-19.05-.16-5.84-.74-11.52-1.66-16.91Zm47.38,23.68c0-5.29-.59-11.19-1.21-17.42-.63-6.32-1.3-12.98-1.43-19.79-.13-6.76.27-13.71,1.75-20.7l.7-3.27-3.07,1.3c-4.18,1.77-8.8,4.35-13.35,7.72-3.97,2.95-7.91,6.51-11.44,10.65-3.68,4.3-6.94,9.25-9.38,14.82-2.19,4.99-3.74,10.48-4.35,16.45-1.97,19.16-.8,32.56.7,49.68.07.24.09.94.12,1.22l.51.46.73.72.77.89,1.11,1.38,1.36-1.14c.36-.3.72-.52,1.07-.65.3-.11.59-.16.89-.14l1.74.09.31-5.95c.71-13.79,1.91-37.11,7.98-52.19-.85,3.73-1.63,7.88-2.32,12.22-2.92,18.25-4.54,39.9-4.93,46.76l-.04.68c.85,1.01,1.51,1.95,2.27,3.05l1.42-.98c.56-.39,1.09-.58,1.58-.59.47-.02.97.15,1.47.48l1.38.89c1.34-1.81,2.74-3.62,4.05-5.45,6.97-9.36,13.4-17.98,17.19-26.64,1.82-4.16,2.44-9.09,2.44-14.56Zm22.71-3.71c6.32-3.46,12.96-6.24,19.34-8.59l.82-.3.25-.84c1.35-4.52,2.39-8.94,2.99-13.08.56-3.88.74-7.53.45-10.78l-.2-2.24-2.12.77c-6.17,2.23-13.2,4.82-20.42,8.29-7.24,3.48-14.61,7.82-21.36,13.52l-.7.59.09.91c.42,4.22.79,8.28.94,12.14.15,3.81.07,7.42-.39,10.79l-.69,5.08,3.65-3.61c5.09-5.05,11.07-9.18,17.36-12.62Zm20.52,35.02c4.55-6.31,9.11-13.46,12.89-20.56,2.54-4.77,4.72-9.52,6.31-13.96,1.46-4.08,2.41-7.91,2.67-11.29l.2-2.6-8.07,2.66c-16.44,5.35-38.93,12.67-52.55,28.21-4.15,4.73-7.64,9.64-10.6,14.83-2.96,5.18-5.41,10.66-7.48,16.52l-.95,2.8-1.11,3.58c.59,1.03,1.13,2.04,1.69,3.09l1.48-.66c.79-.34,1.51-.33,2.15.04.85.48,1.67,1.53,2.45,3.1l1.22,2.45,1.7-2.14c1.43-1.8,2.96-3.3,5.77-5.92-1.91,2.46-3.13,4.06-4.26,5.64l-.94,1.32,1.26,1.03c.42.34.83.86,1.23,1.54.43.72.84,1.65,1.21,2.75l.49,1.45,1.5-.3c.25-.05.49-.06.72-.03.2.02.4.09.6.2l.86.46c.53-.32,1.07-.66,1.6-.95,4.69-2.78,9.19-5.44,13.38-8.23l.14-.09c1.85-1.52,3.6-2.92,5.22-4.18,1.68-1.32,3.36-2.6,5.04-3.82l.18-.15c3.91-3.75,8.94-9.73,14-16.76Zm-21.3,43.37c17.06-6.65,22.59-8.8,36.47-18.31-4.84,4.66-8.3,7.65-11.86,9.93-5.33,3.4-11.13,5.38-22.32,9.19l-10.51,3.61.6,1.66c.19.52.35,1.11.48,1.79.13.69.23,1.48.31,2.35l.1,1.24,1.2.31c.26.07.49.23.71.47.29.33.54.8.74,1.42l.45,1.4,3.96-.6,2.48-.43c6.7-1.21,13.04-2.91,19.16-5.21,6.13-2.31,12.04-5.22,17.89-8.89,5.42-3.4,10.46-7.36,15.02-11.65,4.87-4.58,9.19-9.52,12.8-14.51,3.11-4.29,5.72-8.62,7.72-12.78,2.03-4.22,3.43-8.26,4.11-11.91l.48-2.57-2.56.54c-6.27,1.33-13.15,3.56-20.08,6.12-6.89,2.55-13.85,5.44-20.33,8.13l-.15.07c-4.43,1.83-8.63,3.58-12.52,5.09-2.13.82-4.5,2.05-7.06,3.6-2.54,1.54-5.25,3.38-8.07,5.44l-.17.15c-1.54,1.46-3.19,2.86-4.94,4.21-1.77,1.37-3.64,2.69-5.58,3.99l-.14.1c-1.72,1.41-3.77,3.12-6.01,5.03l-7.85,6.76,1.93,1.26c.45.29.86.82,1.23,1.59.44.91.8,2.1,1.06,3.57l.38,2.09,10.84-4.25Zm41.56,5.96c8.09.42,16.99,3.74,26.72,7.36l5.88,2.18.72-.44c5.07-3.1,9.82-6.45,13.85-9.89,3.73-3.19,6.86-6.47,9.06-9.72l1.26-1.86-2.14-.75c-4.66-1.64-9.8-3.41-15.24-4.96-5.53-1.57-11.47-2.94-17.71-3.76l-.9-.11-.61.67c-3.07,3.35-6.46,6.61-10.1,9.67-3.45,2.89-7.13,5.59-10.97,8.01l-5.35,3.33,5.54.29Zm-28.71,27.06c11.21,2.38,20.33,4.31,30.33,5.11-10.04.15-18.36-1.58-30.71-4.15l-11.99-2.45.76,2.73c.24.86.33,1.6.28,2.18-.04.44-.17.79-.39,1.05l-.68.82,1.24,3c.35.15.89.43,1.22.53,16.53,7.1,29.5,12.68,46.75,11.54,6.39-.42,12.71-1.53,18.76-3.14,6.44-1.72,12.59-4.03,18.16-6.7,4.38-2.11,8.39-4.45,11.9-6.9,3.55-2.48,6.59-5.1,8.98-7.74l2.45-2.71-3.65-.19c-7.07-.37-13.85-1.76-20.33-3.6-6.55-1.86-12.71-4.16-18.56-6.33l-.09-.04c-11.84-4.41-22.4-8.34-31.26-6.96-9.36,1.46-19.34,5.47-30.16,9.82-2.43.95-4.85,1.94-7.28,2.92.14,1.06.26,2.04.29,3.11l.11.28c.27.69.44,1.32.51,1.86.06.45.05.83-.04,1.14l-.19.69.85,1.49.78.16c3.89.78,8.06,1.67,11.96,2.49Z"/>
        </g>
        <path class="cls-3" d="m311.96,274.46c3.27,2.3,6.11,1.17,8.36-3.31,3.39,1.94,6.17.54,8.17-4.13,3.47,1.59,6.16-.07,7.89-4.89,3.51,1.24,6.07-.67,7.49-5.59,3.52.9,5.92-1.23,7.03-6.24,3.46.56,5.65-1.73,6.43-6.73l.07-.09c3.37.21,5.32-2.3,5.72-7.35,3.28-.08,4.98-2.75,5.02-7.83,3.1-.39,4.52-3.19,4.16-8.23,2.88-.68,3.97-3.6,3.21-8.58,2.6-.97,3.34-3.99,2.16-8.88,2.28-1.24,2.63-4.34,1.02-9.11,1.89-1.49,1.82-4.66-.22-9.29,1.24-1.48,1.03-4.05-.61-7.57-.13-.97-.37-1.78-.73-2.39.29-1.07.11-2.44-.53-4.09-.08-3.18-.87-5.18-2.34-5.93.02-5.06-1.12-7.97-3.34-8.55-.41-5.01-1.9-7.69-4.35-7.88-.83-4.94-2.63-7.39-5.27-7.19-1.22-4.85-3.29-7.06-6.07-6.5-1.6-4.74-3.91-6.71-6.77-5.79-1.96-4.61-4.47-6.33-7.37-5.06-2.29-4.46-4.97-5.94-7.86-4.32-2.6-4.3-5.41-5.51-8.24-3.56-2.88-4.11-5.79-5.06-8.52-2.79-3.13-3.9-6.09-4.59-8.7-2.02-3.34-3.67-6.33-4.08-8.76-1.21-3.52-3.42-6.49-3.56-8.72-.4-3.67-3.16-6.74-2.05-8.72,1.38-5.01-2.74-8.96-1.99-11.6,2.17-4.91-2.05-8.51-.69-10.59,3.96-4.78-1.4-8.03.5-9.55,5.54-4.6-.78-7.49,1.59-8.47,6.93-4.41-.2-6.91,2.56-7.36,8.11-4.16.33-6.28,3.43-6.2,9.08-3.89.81-5.59,4.17-5.01,9.86-2.81.97-4.06,2.4-4.01,6.09-2.38,2.42-3.42,4.86-3.26,7.16-3.83,4.36-4.73,7.95-3.94,10.16-2.65,4.88-3.34,8.45-2.07,10.48-2.07,5.17-2.17,8.8-.32,10.64-1.5,5.41-1.04,9.03,1.32,10.62-.94,5.58.04,9.14,2.84,10.42-.38,5.7,1.07,9.14,4.26,10.06.16,5.76,2.05,9.01,5.54,9.53.69,5.73,2.99,8.74,6.72,8.82,1.21,5.64,3.86,8.35,7.78,7.94,1.71,5.47,4.68,7.83,8.72,6.89,2.19,5.23,5.44,7.17,9.55,5.67,2.65,4.9,6.14,6.36,10.26,4.28,3.07,4.48,6.77,5.41,10.85,2.71,3.47,3.97,7.34,4.31,11.33.97,3.85,3.38,7.83,3.07,11.7-.94,4.18,2.68,8.26,1.67,11.94-3.01Z"/>
        <path class="cls-2" d="m362.02,186.52c-1.29,14.78-38.47,1.31-3.25-6.47,2.06-.35,4.02,1.04,4.36,3.1.22,1.28-.24,2.53-1.11,3.36Z"/>
        <path class="cls-2" d="m347.73,221.4c-29.73-14.57,11.7-18.41,6.6-3.51-.44,1.27-1.2,2.01-2.14,2.39-1.04,1.31-2.86,1.81-4.46,1.12Z"/>
        <path class="cls-2" d="m324.35,240.69c-14.96-29.63,25.43-.46,6.05,2.68-.97.16-1.93-.2-2.8-.7-1.32-.03-2.58-.74-3.25-1.98Z"/>
        <path class="cls-2" d="m304.23,261c-15.02,3.78-3.29-33.21,4.58-5.51.52,2.03-.71,4.09-2.73,4.6-.15.04-.3.07-.45.09-.39.36-.86.64-1.4.81Z"/>
        <path class="cls-2" d="m269.07,257.7c-17.29,7.32,4.43-35.67,6.05-6.77.02,1.43-.76,2.67-1.92,3.33-1.21,1.33-2.43,2.71-4.14,3.43Z"/>
        <path class="cls-2" d="m250.26,238.05c-.44,1.56-1.86,2.72-3.58,2.75l-.31.02c-.93.57-2.19.94-3.27.83-17.23-1.76,23.08-29.22,7.24-3.73l-.09.13Z"/>
        <path class="cls-2" d="m228.78,215.7c22.34-8.33,8.84,15.63-1.02,8.28-1.04-.95-1.42-2.35-1.13-3.64-.6-1.85.32-3.88,2.14-4.65Z"/>
        <path class="cls-2" d="m226.68,189.38c28.44-.9-4.55,23.38-4.34,4.43.08-.92.48-1.72,1.08-2.33.59-1.2,1.82-2.05,3.26-2.1Z"/>
        <path class="cls-2" d="m225.71,173.63c-6.77-15.94,36.76,6.12,6.76,4.55l-.16-.02c-1.58.36-3.29-.32-4.14-1.81l-.16-.27c-.95-.53-1.89-1.46-2.31-2.46Z"/>
        <path class="cls-2" d="m250.52,157.4c-18.84-5.95-5.08-24.1,5.53-5.66,1.09,1.79.53,4.11-1.26,5.2-.7.43-1.48.6-2.24.54-.65.16-1.35.14-2.03-.08Z"/>
        <path class="cls-2" d="m284.86,134.69c-2.29,25.74-20.57-7.74-5.35-8.22,1.48-.05,2.54.53,3.33,1.43,1.27.57,2.17,1.83,2.22,3.32-.01.44-.03.86-.05,1.28.17.76.11,1.52-.15,2.2Z"/>
        <path class="cls-2" d="m314.73,127.8c16.28-5.92-8.03,36.36-4.9,6.51l.02-.15c-.28-1.6.49-3.27,2.03-4.04l.27-.15c.58-.92,1.56-1.8,2.58-2.18Z"/>
        <path class="cls-2" d="m337.14,157.24c7.7-18.18,24.49-2.78,5.12,6.04-1.88.92-4.15.13-5.06-1.75-.36-.73-.46-1.53-.33-2.28-.09-.66,0-1.35.28-2.01Z"/>
        <path class="cls-2" d="m328.54,172.81c.93.22,1.7.77,2.21,1.49.42.33.76.76,1.01,1.27.92,1.88.15,4.15-1.73,5.07-20.8,11.09-13.93-11.55-1.49-7.83Z"/>
        <path class="cls-2" d="m316.4,165.73c-17.98,24.34-10.72-18.31-.67-5.29.07.09.14.18.19.26.06.04.13.08.18.12,1.35.99,1.48,3.19.3,4.91Z"/>
        <path class="cls-2" d="m300.63,162.14c-.36,1.72-1.83,2.92-3.51,3.02-1.11.52-3.08,1.5-3.84.17-6.86-11.98,12.04-25.85,7.35-3.19Z"/>
        <path class="cls-2" d="m276.24,157.21c10.43,12.54.39,15.45-5.63,9.02-3.15-3.41-2.85-8.31,1.07-9.33.04-.06.09-.12.14-.18,1.13-1.29,3.1-1.07,4.42.49Z"/>
        <path class="cls-2" d="m265.62,176.35c2.9,1.51,5.07,5.85,1.39,6.82-10.14,2.68-12.82-1.82-12.43-5.63.35-3.39,2.72-6.37,11.04-1.2Z"/>
        <path class="cls-2" d="m267.86,199.97c-10.92,12.98-26.74-4.15-2.86-7.26,2.06-.34,4.01,1.06,4.35,3.12.2,1.2-.19,2.36-.95,3.19-.13.33-.31.65-.54.95Z"/>
        <path class="cls-2" d="m266.08,220.27c-13.43-11.01,25.29-23.49,6.59.27-1.34,1.6-3.73,1.82-5.33.48-.12-.1-.23-.2-.33-.31-.32-.1-.63-.24-.93-.44Z"/>
        <path class="cls-2" d="m282.5,229.56c-8.3-8.05,10.01-32.54,9.39-3.07-.14,2.09-1.95,3.66-4.04,3.52-.48-.04-.94-.16-1.36-.35-1.29.47-2.9.95-3.99-.1Z"/>
        <path class="cls-2" d="m306.29,223.28c-11.07,9.99-8.32-27.54,2.07-4.05.6,1.47-.11,3.16-1.59,3.76-.09.04-.19.07-.29.1-.06.06-.13.13-.2.19Z"/>
        <path class="cls-2" d="m316.21,216.17c-16.68-18.96,17.68-12.73,6.35-.92-.56.58-1.14.94-1.73,1.13-1.33,1.31-3.36,1.23-4.63-.21Z"/>
        <path class="cls-2" d="m322.54,201.11c-18.68-7.46,18.17-15.81,8.79-1.08-.78,1.23-1.73,1.83-2.81,2.06-.68.35-1.49.46-2.34.26-.39-.11-.76-.23-1.12-.34-.35-.06-.71-.13-1.08-.19-.54-.13-1.03-.38-1.45-.7Z"/>
      </g>
    </g>
  </g>
</svg>