<svg xmlns="http://www.w3.org/2000/svg" xmlns:xlink="http://www.w3.org/1999/xlink" width="1920" zoomAndPan="magnify" viewBox="0 0 1440 809.999993" height="1080" preserveAspectRatio="xMidYMid meet" version="1.0"><defs><g/><clipPath id="e4bb0e377c"><path d="M 352 284.085938 L 428.445312 284.085938 L 428.445312 800.273438 L 352 800.273438 Z M 352 284.085938 " clip-rule="nonzero"/></clipPath><clipPath id="557ca30151"><path d="M 240 133.324219 L 518.675781 133.324219 L 518.675781 403 L 240 403 Z M 240 133.324219 " clip-rule="nonzero"/></clipPath><clipPath id="88838822fc"><path d="M 372.585938 473.359375 L 518.675781 473.359375 L 518.675781 643.105469 L 372.585938 643.105469 Z M 372.585938 473.359375 " clip-rule="nonzero"/></clipPath><clipPath id="a27cc0e87b"><path d="M 184.9375 414 L 363 414 L 363 550 L 184.9375 550 Z M 184.9375 414 " clip-rule="nonzero"/></clipPath></defs><g clip-path="url(#e4bb0e377c)"><path fill="#7b8643" d="M 424.3125 800.273438 C 422.984375 800.273438 421.703125 799.589844 420.992188 798.359375 C 419.933594 796.542969 316.144531 612.652344 365.167969 287.6875 C 365.484375 285.59375 367.441406 284.160156 369.535156 284.464844 C 371.628906 284.78125 373.070312 286.738281 372.757812 288.832031 C 324.160156 610.921875 426.585938 792.71875 427.625 794.519531 C 428.6875 796.351562 428.058594 798.703125 426.230469 799.757812 C 425.625 800.113281 424.960938 800.273438 424.3125 800.273438 " fill-opacity="1" fill-rule="nonzero"/></g><g clip-path="url(#557ca30151)"><path fill="#fccd66" d="M 364.539062 239.292969 C 364.539062 239.292969 376.519531 117.292969 425.902344 135.097656 C 475.285156 152.902344 414.238281 254.339844 414.238281 254.339844 C 414.238281 254.339844 513.792969 234.183594 518.515625 279.078125 C 523.238281 323.972656 424.472656 305.617188 424.472656 305.617188 C 424.472656 305.617188 478.421875 378.316406 435.019531 400.128906 C 391.621094 421.941406 367.878906 308.828125 367.878906 308.828125 C 367.878906 308.828125 296.867188 404.371094 250.5625 355.382812 C 204.25 306.386719 327.121094 277.726562 327.121094 277.726562 C 327.121094 277.726562 229.144531 278.351562 255.847656 224.402344 C 282.550781 170.449219 364.539062 239.292969 364.539062 239.292969 " fill-opacity="1" fill-rule="nonzero"/></g><path fill="#ffffff" d="M 361.226562 276.863281 C 361.382812 301.355469 402.65625 308.210938 404.191406 281.117188 C 405.730469 254.027344 361.070312 252.367188 361.226562 276.863281 " fill-opacity="1" fill-rule="nonzero"/><g clip-path="url(#88838822fc)"><path fill="#a0a971" d="M 372.820312 643.101562 C 372.820312 643.101562 369.273438 496.347656 518.679688 473.464844 C 518.679688 473.464844 503.65625 626.511719 372.820312 643.101562 " fill-opacity="1" fill-rule="nonzero"/><path fill="#7b8643" d="M 378.09375 642.339844 C 390.992188 624.519531 459.679688 531.050781 517.902344 479.28125 C 518.46875 475.570312 518.683594 473.464844 518.683594 473.464844 C 516.257812 473.835938 513.878906 474.242188 511.539062 474.675781 C 454.296875 526.039062 387.816406 615.902344 372.980469 636.34375 C 372.761719 640.644531 372.820312 643.101562 372.820312 643.101562 C 374.601562 642.875 376.355469 642.613281 378.09375 642.339844 " fill-opacity="1" fill-rule="nonzero"/></g><g clip-path="url(#a27cc0e87b)"><path fill="#a0a971" d="M 362.890625 549.703125 C 362.890625 549.703125 216.59375 561.902344 184.9375 414.105469 C 184.9375 414.105469 338.609375 420.074219 362.890625 549.703125 " fill-opacity="1" fill-rule="nonzero"/><path fill="#7b8643" d="M 361.816406 544.484375 C 343.261719 532.660156 245.90625 469.605469 190.792969 414.542969 C 187.054688 414.191406 184.9375 414.105469 184.9375 414.105469 C 185.453125 416.5 186 418.851562 186.570312 421.164062 C 241.21875 475.277344 334.851562 536.339844 356.128906 549.945312 C 360.4375 549.90625 362.890625 549.703125 362.890625 549.703125 C 362.558594 547.9375 362.191406 546.203125 361.816406 544.484375 " fill-opacity="1" fill-rule="nonzero"/></g><g fill="#7b8643" fill-opacity="0.7686"><g transform="translate(538.845863, 400.473524)"><g><path d="M 142.632812 -101.019531 C 135.492188 -66.828125 122.101562 -50.777344 109.933594 -48.992188 C 104.796875 -48.238281 101.113281 -50.738281 100.519531 -54.792969 C 100.359375 -55.875 100.433594 -57.265625 100.816406 -58.425781 L 113.75 -124.683594 C 114.886719 -130.097656 114.714844 -135.042969 114.042969 -139.640625 C 110.871094 -161.273438 91.375 -175.539062 69.472656 -172.328125 C 62.984375 -171.378906 58.003906 -169.542969 52.683594 -166.277344 L 62.421875 -218.527344 C 63.140625 -223.054688 63.894531 -227.308594 63.378906 -230.824219 C 61.714844 -242.179688 51.839844 -247.359375 42.917969 -246.050781 C 32.371094 -244.503906 26.792969 -237.335938 23.757812 -222.25 L -14.175781 -28.859375 C -14.972656 -24.875 -14.996094 -21.28125 -14.523438 -18.035156 C -12.738281 -5.867188 -2.703125 0.398438 6.488281 -0.953125 C 14.332031 -2.101562 21.730469 -8.160156 24.121094 -20.109375 L 43.277344 -117.386719 C 47.449219 -128.496094 55.492188 -137.683594 63.875 -138.914062 C 69.285156 -139.707031 73.664062 -136.207031 74.378906 -131.339844 C 74.617188 -129.714844 74.582031 -128.054688 74.011719 -126.3125 L 62.558594 -66.902344 C 61.347656 -60.097656 61.136719 -53.988281 61.929688 -48.582031 C 65.65625 -23.164062 89.234375 -13.085938 112.21875 -16.457031 C 137.90625 -20.222656 165.042969 -40.5 176.261719 -99.597656 C 176.527344 -101.570312 176.558594 -103.234375 176.320312 -104.855469 C 175.089844 -113.238281 166.1875 -117.457031 157.53125 -116.1875 C 150.773438 -115.195312 144.027344 -110.339844 142.632812 -101.019531 Z M 142.632812 -101.019531 "/></g></g></g><g fill="#7b8643" fill-opacity="0.7686"><g transform="translate(683.77937, 379.21987)"><g><path d="M 125.644531 -96.320312 C 118.34375 -63.207031 91.816406 -46.335938 68.832031 -42.964844 C 49.09375 -40.070312 35.265625 -47.710938 33.441406 -60.148438 C 33.085938 -62.582031 32.996094 -65.054688 33.683594 -67.917969 L 35.09375 -73.371094 C 43.648438 -69.65625 53.859375 -67.835938 64.675781 -69.425781 C 89.28125 -73.03125 108.652344 -91.617188 112.386719 -117.023438 C 112.984375 -122.359375 113.042969 -127.617188 112.367188 -132.214844 C 108.601562 -157.902344 85.425781 -174.667969 54.871094 -170.1875 C 30.804688 -166.660156 9.339844 -149.148438 3.84375 -120.71875 L -5.332031 -72.140625 C -6.542969 -65.332031 -6.941406 -58.644531 -6.03125 -52.425781 C -1.3125 -20.246094 31.90625 -4.679688 71.386719 -10.46875 C 108.972656 -15.980469 149 -40.632812 159.273438 -94.898438 C 159.769531 -97.179688 159.761719 -99.113281 159.523438 -100.734375 C 158.292969 -109.117188 150.046875 -112.605469 141.9375 -111.414062 C 134.363281 -110.304688 126.847656 -105.058594 125.644531 -96.320312 Z M 58.738281 -138.160156 C 66.308594 -139.269531 72.089844 -133.765625 73.238281 -125.921875 C 73.554688 -123.761719 73.601562 -121.558594 73.109375 -119.273438 C 71.714844 -109.957031 64.078125 -105.519531 55.964844 -104.332031 C 50.828125 -103.578125 45.53125 -103.90625 41.429688 -105.515625 L 44.726562 -122.570312 C 46.472656 -131.390625 52.519531 -137.25 58.738281 -138.160156 Z M 58.738281 -138.160156 "/></g></g></g><g fill="#7b8643" fill-opacity="0.7686"><g transform="translate(811.948176, 360.424662)"><g><path d="M 30.496094 -51.980469 L 48.019531 -141.5625 C 48.664062 -144.695312 48.808594 -147.476562 48.414062 -150.179688 C 46.785156 -161.269531 35.941406 -167.410156 25.9375 -165.945312 C 18.367188 -164.835938 10.929688 -159.046875 8.726562 -147.675781 L -10.351562 -49.859375 C -11.488281 -44.445312 -11.546875 -39.1875 -10.832031 -34.320312 C -8.136719 -15.933594 6.785156 -4.585938 24.878906 -3.648438 C -7.042969 8.492188 -37.777344 26.808594 -32.902344 60.070312 C -29.054688 86.296875 -2.179688 100.035156 24.320312 96.148438 C 51.089844 92.222656 74.136719 74.203125 80.894531 41.171875 C 83.011719 29.257812 85.59375 16.726562 88.023438 5.046875 C 124.910156 -12.792969 161.566406 -39.714844 171.894531 -99.234375 C 172.390625 -101.515625 172.34375 -103.71875 172.066406 -105.613281 C 170.71875 -114.804688 162.894531 -119.183594 154.78125 -117.992188 C 147.480469 -116.921875 140.3125 -111.175781 138.074219 -100.074219 C 132.113281 -71.027344 116.375 -52.144531 96.871094 -38.238281 L 118.859375 -153.882812 C 119.3125 -156.433594 119.265625 -158.636719 118.988281 -160.53125 C 117.363281 -171.617188 106.519531 -177.761719 96.511719 -176.292969 C 88.941406 -175.183594 81.503906 -169.398438 79.304688 -158.027344 L 61.609375 -62.070312 C 55.097656 -46.199219 46.425781 -39.402344 39.125 -38.332031 C 34.257812 -37.617188 30.847656 -40.15625 30.136719 -45.023438 C 29.855469 -46.917969 30.042969 -49.429688 30.496094 -51.980469 Z M 40.367188 24.742188 L 36.570312 44.082031 C 34.253906 54.640625 26.625 61.007812 18.511719 62.195312 C 12.292969 63.109375 9.035156 59.71875 8.320312 54.851562 C 8.082031 53.230469 8.035156 51.027344 8.570312 49.015625 C 10.964844 38.996094 23.464844 31.914062 40.367188 24.742188 Z M 40.367188 24.742188 "/></g></g></g><g fill="#e9edc9" fill-opacity="1"><g transform="translate(531.183573, 393.162166)"><g><path d="M 142.632812 -101.019531 C 135.492188 -66.828125 122.101562 -50.777344 109.933594 -48.992188 C 104.796875 -48.238281 101.113281 -50.738281 100.519531 -54.792969 C 100.359375 -55.875 100.433594 -57.265625 100.816406 -58.425781 L 113.75 -124.683594 C 114.886719 -130.097656 114.714844 -135.042969 114.042969 -139.640625 C 110.871094 -161.273438 91.375 -175.539062 69.472656 -172.328125 C 62.984375 -171.378906 58.003906 -169.542969 52.683594 -166.277344 L 62.421875 -218.527344 C 63.140625 -223.054688 63.894531 -227.308594 63.378906 -230.824219 C 61.714844 -242.179688 51.839844 -247.359375 42.917969 -246.050781 C 32.371094 -244.503906 26.792969 -237.335938 23.757812 -222.25 L -14.175781 -28.859375 C -14.972656 -24.875 -14.996094 -21.28125 -14.523438 -18.035156 C -12.738281 -5.867188 -2.703125 0.398438 6.488281 -0.953125 C 14.332031 -2.101562 21.730469 -8.160156 24.121094 -20.109375 L 43.277344 -117.386719 C 47.449219 -128.496094 55.492188 -137.683594 63.875 -138.914062 C 69.285156 -139.707031 73.664062 -136.207031 74.378906 -131.339844 C 74.617188 -129.714844 74.582031 -128.054688 74.011719 -126.3125 L 62.558594 -66.902344 C 61.347656 -60.097656 61.136719 -53.988281 61.929688 -48.582031 C 65.65625 -23.164062 89.234375 -13.085938 112.21875 -16.457031 C 137.90625 -20.222656 165.042969 -40.5 176.261719 -99.597656 C 176.527344 -101.570312 176.558594 -103.234375 176.320312 -104.855469 C 175.089844 -113.238281 166.1875 -117.457031 157.53125 -116.1875 C 150.773438 -115.195312 144.027344 -110.339844 142.632812 -101.019531 Z M 142.632812 -101.019531 "/></g></g></g><g fill="#e9edc9" fill-opacity="1"><g transform="translate(676.11708, 371.908513)"><g><path d="M 125.644531 -96.320312 C 118.34375 -63.207031 91.816406 -46.335938 68.832031 -42.964844 C 49.09375 -40.070312 35.265625 -47.710938 33.441406 -60.148438 C 33.085938 -62.582031 32.996094 -65.054688 33.683594 -67.917969 L 35.09375 -73.371094 C 43.648438 -69.65625 53.859375 -67.835938 64.675781 -69.425781 C 89.28125 -73.03125 108.652344 -91.617188 112.386719 -117.023438 C 112.984375 -122.359375 113.042969 -127.617188 112.367188 -132.214844 C 108.601562 -157.902344 85.425781 -174.667969 54.871094 -170.1875 C 30.804688 -166.660156 9.339844 -149.148438 3.84375 -120.71875 L -5.332031 -72.140625 C -6.542969 -65.332031 -6.941406 -58.644531 -6.03125 -52.425781 C -1.3125 -20.246094 31.90625 -4.679688 71.386719 -10.46875 C 108.972656 -15.980469 149 -40.632812 159.273438 -94.898438 C 159.769531 -97.179688 159.761719 -99.113281 159.523438 -100.734375 C 158.292969 -109.117188 150.046875 -112.605469 141.9375 -111.414062 C 134.363281 -110.304688 126.847656 -105.058594 125.644531 -96.320312 Z M 58.738281 -138.160156 C 66.308594 -139.269531 72.089844 -133.765625 73.238281 -125.921875 C 73.554688 -123.761719 73.601562 -121.558594 73.109375 -119.273438 C 71.714844 -109.957031 64.078125 -105.519531 55.964844 -104.332031 C 50.828125 -103.578125 45.53125 -103.90625 41.429688 -105.515625 L 44.726562 -122.570312 C 46.472656 -131.390625 52.519531 -137.25 58.738281 -138.160156 Z M 58.738281 -138.160156 "/></g></g></g><g fill="#e9edc9" fill-opacity="1"><g transform="translate(804.285886, 353.113305)"><g><path d="M 30.496094 -51.980469 L 48.019531 -141.5625 C 48.664062 -144.695312 48.808594 -147.476562 48.414062 -150.179688 C 46.785156 -161.269531 35.941406 -167.410156 25.9375 -165.945312 C 18.367188 -164.835938 10.929688 -159.046875 8.726562 -147.675781 L -10.351562 -49.859375 C -11.488281 -44.445312 -11.546875 -39.1875 -10.832031 -34.320312 C -8.136719 -15.933594 6.785156 -4.585938 24.878906 -3.648438 C -7.042969 8.492188 -37.777344 26.808594 -32.902344 60.070312 C -29.054688 86.296875 -2.179688 100.035156 24.320312 96.148438 C 51.089844 92.222656 74.136719 74.203125 80.894531 41.171875 C 83.011719 29.257812 85.59375 16.726562 88.023438 5.046875 C 124.910156 -12.792969 161.566406 -39.714844 171.894531 -99.234375 C 172.390625 -101.515625 172.34375 -103.71875 172.066406 -105.613281 C 170.71875 -114.804688 162.894531 -119.183594 154.78125 -117.992188 C 147.480469 -116.921875 140.3125 -111.175781 138.074219 -100.074219 C 132.113281 -71.027344 116.375 -52.144531 96.871094 -38.238281 L 118.859375 -153.882812 C 119.3125 -156.433594 119.265625 -158.636719 118.988281 -160.53125 C 117.363281 -171.617188 106.519531 -177.761719 96.511719 -176.292969 C 88.941406 -175.183594 81.503906 -169.398438 79.304688 -158.027344 L 61.609375 -62.070312 C 55.097656 -46.199219 46.425781 -39.402344 39.125 -38.332031 C 34.257812 -37.617188 30.847656 -40.15625 30.136719 -45.023438 C 29.855469 -46.917969 30.042969 -49.429688 30.496094 -51.980469 Z M 40.367188 24.742188 L 36.570312 44.082031 C 34.253906 54.640625 26.625 61.007812 18.511719 62.195312 C 12.292969 63.109375 9.035156 59.71875 8.320312 54.851562 C 8.082031 53.230469 8.035156 51.027344 8.570312 49.015625 C 10.964844 38.996094 23.464844 31.914062 40.367188 24.742188 Z M 40.367188 24.742188 "/></g></g></g><g fill="#7b8643" fill-opacity="0.7686"><g transform="translate(393.517367, 661.381139)"><g><path d="M 7.941406 -130.433594 L -34.4375 83.496094 C -35.082031 86.628906 -35.1875 89.683594 -34.789062 92.386719 C -33.125 103.746094 -22.589844 109.65625 -12.585938 108.191406 C -4.203125 106.960938 3.695312 100.554688 6.160156 87.210938 L 49.585938 -136.542969 L 69.285156 -139.707031 C 81.953125 -141.839844 86.554688 -151.90625 85.402344 -159.75 C 84.292969 -167.320312 77.585938 -173.519531 67.578125 -172.050781 L 56.492188 -170.425781 L 65.410156 -215.097656 C 66.621094 -221.90625 71.164062 -226.714844 75.761719 -227.390625 C 81.441406 -228.222656 84.078125 -225.296875 84.753906 -220.699219 C 84.992188 -219.074219 84.957031 -217.414062 84.695312 -215.441406 C 83.738281 -212.539062 83.554688 -210.027344 83.914062 -207.59375 C 85.300781 -198.128906 95.445312 -192.988281 104.910156 -194.375 C 113.5625 -195.644531 121.695312 -202.359375 122.726562 -216.046875 C 122.980469 -219.949219 123.007812 -223.546875 122.492188 -227.0625 C 119 -250.855469 97.996094 -266.007812 74.472656 -262.558594 C 51.488281 -259.1875 30.40625 -242.835938 24.523438 -213.246094 L 14.851562 -164.320312 L 7.820312 -163.289062 C -8.945312 -160.828125 -14.585938 -150.335938 -13.320312 -141.679688 C -12.207031 -134.109375 -6.117188 -128.375 2.261719 -129.601562 Z M 7.941406 -130.433594 "/></g></g></g><g fill="#7b8643" fill-opacity="0.7686"><g transform="translate(480.044839, 648.69239)"><g><path d="M 125.597656 -98.523438 C 119.207031 -70.515625 108.308594 -48.753906 96.953125 -47.085938 C 93.167969 -46.53125 90.757812 -49.769531 90.203125 -53.554688 C 89.964844 -55.179688 89.917969 -57.382812 90.414062 -59.664062 L 99.863281 -106.347656 C 100.695312 -111.996094 101.0625 -117.019531 100.386719 -121.617188 C 96.621094 -147.308594 62.585938 -153.363281 46.769531 -155.742188 C 47.261719 -158.023438 47.175781 -160.496094 46.859375 -162.660156 C 45.035156 -175.097656 32.402344 -184.019531 20.234375 -182.234375 C 4.28125 -179.894531 -3.121094 -164.445312 -0.863281 -149.03125 C 0.128906 -142.273438 3.59375 -135.597656 8.714844 -130.824219 L -3.214844 -74.660156 C -3.4375 -72.417969 -3.390625 -70.214844 -3.152344 -68.59375 C -1.84375 -59.667969 5.859375 -56.101562 13.429688 -57.214844 C 21.003906 -58.324219 28.210938 -63.800781 30.1875 -72.929688 L 39.378906 -115.710938 C 47.308594 -114.386719 57.589844 -113.960938 58.941406 -104.769531 C 59.136719 -103.414062 59.105469 -101.753906 58.84375 -99.78125 L 51.78125 -65.046875 C 50.53125 -58.511719 50.28125 -52.671875 51.074219 -47.265625 C 54.523438 -23.742188 75.441406 -11.0625 97.886719 -14.355469 C 127.359375 -18.675781 150.285156 -48.832031 159.535156 -96.871094 C 159.839844 -98.570312 159.910156 -99.964844 159.714844 -101.316406 C 158.523438 -109.425781 148.808594 -113.527344 140.15625 -112.257812 C 133.125 -111.226562 126.839844 -106.992188 125.597656 -98.523438 Z M 125.597656 -98.523438 "/></g></g></g><g fill="#7b8643" fill-opacity="0.7686"><g transform="translate(607.943248, 629.936834)"><g><path d="M 45.8125 -194.273438 C 57.984375 -196.054688 66.519531 -207.527344 64.695312 -219.964844 C 62.910156 -232.136719 51.480469 -240.402344 39.3125 -238.617188 C 27.144531 -236.832031 18.566406 -225.632812 20.351562 -213.464844 C 22.175781 -201.023438 33.644531 -192.488281 45.8125 -194.273438 Z M 29.53125 -51.011719 L 46.828125 -140.28125 C 47.390625 -143.953125 48.1875 -147.9375 47.792969 -150.644531 C 46.046875 -162.539062 36.210938 -167.453125 27.019531 -166.101562 C 18.636719 -164.875 10.585938 -157.617188 8.121094 -144.273438 C 3.195312 -117.585938 -3.441406 -83.742188 -8.40625 -57.324219 C -9.234375 -51.679688 -10.328125 -44.0625 -9.65625 -39.464844 C -5.925781 -14.046875 17.304688 -2.539062 42.183594 -6.1875 C 68.683594 -10.070312 95.507812 -30.578125 106.226562 -89.328125 C 106.53125 -91.03125 106.5625 -92.691406 106.324219 -94.316406 C 105.09375 -102.695312 96.230469 -106.644531 88.117188 -105.457031 C 80.816406 -104.386719 74.070312 -99.527344 72.054688 -90.671875 C 64.5 -53.652344 51.796875 -40.464844 40.980469 -38.878906 C 34.761719 -37.96875 30.109375 -41.429688 29.355469 -46.566406 C 29.15625 -47.917969 29.230469 -49.308594 29.53125 -51.011719 Z M 29.53125 -51.011719 "/></g></g></g><g fill="#7b8643" fill-opacity="0.7686"><g transform="translate(682.573195, 618.992788)"><g><path d="M 125.644531 -96.320312 C 118.34375 -63.207031 91.816406 -46.335938 68.832031 -42.964844 C 49.09375 -40.070312 35.265625 -47.710938 33.441406 -60.148438 C 33.085938 -62.582031 32.996094 -65.054688 33.683594 -67.917969 L 35.09375 -73.371094 C 43.648438 -69.65625 53.859375 -67.835938 64.675781 -69.425781 C 89.28125 -73.03125 108.652344 -91.617188 112.386719 -117.023438 C 112.984375 -122.359375 113.042969 -127.617188 112.367188 -132.214844 C 108.601562 -157.902344 85.425781 -174.667969 54.871094 -170.1875 C 30.804688 -166.660156 9.339844 -149.148438 3.84375 -120.71875 L -5.332031 -72.140625 C -6.542969 -65.332031 -6.941406 -58.644531 -6.03125 -52.425781 C -1.3125 -20.246094 31.90625 -4.679688 71.386719 -10.46875 C 108.972656 -15.980469 149 -40.632812 159.273438 -94.898438 C 159.769531 -97.179688 159.761719 -99.113281 159.523438 -100.734375 C 158.292969 -109.117188 150.046875 -112.605469 141.9375 -111.414062 C 134.363281 -110.304688 126.847656 -105.058594 125.644531 -96.320312 Z M 58.738281 -138.160156 C 66.308594 -139.269531 72.089844 -133.765625 73.238281 -125.921875 C 73.554688 -123.761719 73.601562 -121.558594 73.109375 -119.273438 C 71.714844 -109.957031 64.078125 -105.519531 55.964844 -104.332031 C 50.828125 -103.578125 45.53125 -103.90625 41.429688 -105.515625 L 44.726562 -122.570312 C 46.472656 -131.390625 52.519531 -137.25 58.738281 -138.160156 Z M 58.738281 -138.160156 "/></g></g></g><g fill="#7b8643" fill-opacity="0.7686"><g transform="translate(810.742001, 600.19758)"><g><path d="M 139.464844 -100.003906 C 132.328125 -65.808594 119.398438 -50.378906 106.6875 -48.515625 C 101.820312 -47.800781 98.761719 -49.839844 98.085938 -54.4375 C 97.808594 -56.328125 98.03125 -58.570312 98.445312 -61.394531 L 110.734375 -124.515625 C 111.835938 -130.203125 112.203125 -135.226562 111.527344 -139.824219 C 108.355469 -161.457031 87.589844 -174.984375 65.957031 -171.8125 C 55.410156 -170.265625 47.386719 -166.605469 41.109375 -160.433594 C 38.773438 -165.066406 31.617188 -166.777344 24.316406 -165.707031 C 16.742188 -164.597656 9.957031 -160.011719 8.363281 -152.042969 L -18.273438 -19.140625 C -18.730469 -16.589844 -18.683594 -14.386719 -18.367188 -12.222656 C -16.898438 -2.21875 -8.304688 1.769531 0.351562 0.5 C 9.8125 -0.886719 19.757812 -8.421875 22.03125 -21.183594 C 27.648438 -48.800781 35.195312 -87.75 40.582031 -115.058594 C 45.898438 -129.648438 54.410156 -137.527344 61.984375 -138.636719 C 66.851562 -139.351562 70.839844 -136.621094 71.59375 -131.484375 C 71.871094 -129.589844 71.6875 -127.078125 71.234375 -124.523438 L 59.664062 -65.925781 C 58.414062 -59.390625 57.933594 -53.242188 58.765625 -47.566406 C 62.414062 -22.6875 84.90625 -12.449219 107.890625 -15.820312 C 135.472656 -19.867188 162.210938 -42.847656 173.136719 -98.3125 C 173.628906 -100.59375 173.855469 -102.835938 173.578125 -104.730469 C 172.308594 -113.382812 163.792969 -116.828125 155.679688 -115.640625 C 148.378906 -114.570312 140.859375 -109.324219 139.464844 -100.003906 Z M 139.464844 -100.003906 "/></g></g></g><g fill="#7b8643" fill-opacity="0.7686"><g transform="translate(952.70115, 579.380098)"><g><path d="M 158.652344 -116.074219 C 151.351562 -115.003906 144.335938 -110.109375 143.171875 -101.097656 C 135.761719 -66.867188 123.183594 -50.933594 111.015625 -49.148438 C 105.605469 -48.355469 102.078125 -51.707031 101.441406 -56.03125 C 101.203125 -57.65625 101.238281 -59.316406 101.84375 -62.71875 L 133.648438 -230.078125 C 134.253906 -233.480469 134.933594 -238.277344 134.496094 -241.25 C 132.792969 -252.878906 122.414062 -257.710938 112.953125 -256.324219 C 104.570312 -255.09375 97.640625 -247.722656 94.832031 -232.949219 L 80.457031 -159.578125 C 71.035156 -167.308594 58.386719 -170.703125 45.675781 -168.839844 C 28.101562 -166.261719 10.601562 -153.75 6.3125 -132.128906 L -8.667969 -55.355469 C -9.808594 -49.9375 -9.828125 -44.410156 -9.113281 -39.542969 C -5.625 -15.75 15.953125 -2.339844 39.207031 -5.75 C 51.917969 -7.613281 65.34375 -14 74.613281 -26.132812 C 84.34375 -18.167969 98.15625 -14.394531 111.675781 -16.375 C 138.445312 -20.300781 166.457031 -44.023438 176.804688 -99.679688 C 177.066406 -101.648438 177.328125 -103.621094 177.089844 -105.246094 C 175.863281 -113.628906 167.035156 -117.304688 158.652344 -116.074219 Z M 39.050781 -48.265625 C 33.714844 -48.863281 31.769531 -52.722656 31.132812 -57.046875 C 30.617188 -60.5625 30.953125 -63.925781 31.40625 -66.480469 L 40.199219 -113.898438 C 43.265625 -130.644531 50.171875 -134.417969 54.5 -135.054688 C 59.636719 -135.804688 66.066406 -131.5 67.417969 -122.308594 C 68.011719 -118.25 67.953125 -112.996094 66.511719 -105.878906 L 59.984375 -73.15625 C 54.804688 -51.957031 44.347656 -47.9375 39.050781 -48.265625 Z M 39.050781 -48.265625 "/></g></g></g><g fill="#e9edc9" fill-opacity="1"><g transform="translate(385.855077, 654.06978)"><g><path d="M 7.941406 -130.433594 L -34.4375 83.496094 C -35.082031 86.628906 -35.1875 89.683594 -34.789062 92.386719 C -33.125 103.746094 -22.589844 109.65625 -12.585938 108.191406 C -4.203125 106.960938 3.695312 100.554688 6.160156 87.210938 L 49.585938 -136.542969 L 69.285156 -139.707031 C 81.953125 -141.839844 86.554688 -151.90625 85.402344 -159.75 C 84.292969 -167.320312 77.585938 -173.519531 67.578125 -172.050781 L 56.492188 -170.425781 L 65.410156 -215.097656 C 66.621094 -221.90625 71.164062 -226.714844 75.761719 -227.390625 C 81.441406 -228.222656 84.078125 -225.296875 84.753906 -220.699219 C 84.992188 -219.074219 84.957031 -217.414062 84.695312 -215.441406 C 83.738281 -212.539062 83.554688 -210.027344 83.914062 -207.59375 C 85.300781 -198.128906 95.445312 -192.988281 104.910156 -194.375 C 113.5625 -195.644531 121.695312 -202.359375 122.726562 -216.046875 C 122.980469 -219.949219 123.007812 -223.546875 122.492188 -227.0625 C 119 -250.855469 97.996094 -266.007812 74.472656 -262.558594 C 51.488281 -259.1875 30.40625 -242.835938 24.523438 -213.246094 L 14.851562 -164.320312 L 7.820312 -163.289062 C -8.945312 -160.828125 -14.585938 -150.335938 -13.320312 -141.679688 C -12.207031 -134.109375 -6.117188 -128.375 2.261719 -129.601562 Z M 7.941406 -130.433594 "/></g></g></g><g fill="#e9edc9" fill-opacity="1"><g transform="translate(472.382549, 641.38103)"><g><path d="M 125.597656 -98.523438 C 119.207031 -70.515625 108.308594 -48.753906 96.953125 -47.085938 C 93.167969 -46.53125 90.757812 -49.769531 90.203125 -53.554688 C 89.964844 -55.179688 89.917969 -57.382812 90.414062 -59.664062 L 99.863281 -106.347656 C 100.695312 -111.996094 101.0625 -117.019531 100.386719 -121.617188 C 96.621094 -147.308594 62.585938 -153.363281 46.769531 -155.742188 C 47.261719 -158.023438 47.175781 -160.496094 46.859375 -162.660156 C 45.035156 -175.097656 32.402344 -184.019531 20.234375 -182.234375 C 4.28125 -179.894531 -3.121094 -164.445312 -0.863281 -149.03125 C 0.128906 -142.273438 3.59375 -135.597656 8.714844 -130.824219 L -3.214844 -74.660156 C -3.4375 -72.417969 -3.390625 -70.214844 -3.152344 -68.59375 C -1.84375 -59.667969 5.859375 -56.101562 13.429688 -57.214844 C 21.003906 -58.324219 28.210938 -63.800781 30.1875 -72.929688 L 39.378906 -115.710938 C 47.308594 -114.386719 57.589844 -113.960938 58.941406 -104.769531 C 59.136719 -103.414062 59.105469 -101.753906 58.84375 -99.78125 L 51.78125 -65.046875 C 50.53125 -58.511719 50.28125 -52.671875 51.074219 -47.265625 C 54.523438 -23.742188 75.441406 -11.0625 97.886719 -14.355469 C 127.359375 -18.675781 150.285156 -48.832031 159.535156 -96.871094 C 159.839844 -98.570312 159.910156 -99.964844 159.714844 -101.316406 C 158.523438 -109.425781 148.808594 -113.527344 140.15625 -112.257812 C 133.125 -111.226562 126.839844 -106.992188 125.597656 -98.523438 Z M 125.597656 -98.523438 "/></g></g></g><g fill="#e9edc9" fill-opacity="1"><g transform="translate(600.280958, 622.625474)"><g><path d="M 45.8125 -194.273438 C 57.984375 -196.054688 66.519531 -207.527344 64.695312 -219.964844 C 62.910156 -232.136719 51.480469 -240.402344 39.3125 -238.617188 C 27.144531 -236.832031 18.566406 -225.632812 20.351562 -213.464844 C 22.175781 -201.023438 33.644531 -192.488281 45.8125 -194.273438 Z M 29.53125 -51.011719 L 46.828125 -140.28125 C 47.390625 -143.953125 48.1875 -147.9375 47.792969 -150.644531 C 46.046875 -162.539062 36.210938 -167.453125 27.019531 -166.101562 C 18.636719 -164.875 10.585938 -157.617188 8.121094 -144.273438 C 3.195312 -117.585938 -3.441406 -83.742188 -8.40625 -57.324219 C -9.234375 -51.679688 -10.328125 -44.0625 -9.65625 -39.464844 C -5.925781 -14.046875 17.304688 -2.539062 42.183594 -6.1875 C 68.683594 -10.070312 95.507812 -30.578125 106.226562 -89.328125 C 106.53125 -91.03125 106.5625 -92.691406 106.324219 -94.316406 C 105.09375 -102.695312 96.230469 -106.644531 88.117188 -105.457031 C 80.816406 -104.386719 74.070312 -99.527344 72.054688 -90.671875 C 64.5 -53.652344 51.796875 -40.464844 40.980469 -38.878906 C 34.761719 -37.96875 30.109375 -41.429688 29.355469 -46.566406 C 29.15625 -47.917969 29.230469 -49.308594 29.53125 -51.011719 Z M 29.53125 -51.011719 "/></g></g></g><g fill="#e9edc9" fill-opacity="1"><g transform="translate(674.910905, 611.681428)"><g><path d="M 125.644531 -96.320312 C 118.34375 -63.207031 91.816406 -46.335938 68.832031 -42.964844 C 49.09375 -40.070312 35.265625 -47.710938 33.441406 -60.148438 C 33.085938 -62.582031 32.996094 -65.054688 33.683594 -67.917969 L 35.09375 -73.371094 C 43.648438 -69.65625 53.859375 -67.835938 64.675781 -69.425781 C 89.28125 -73.03125 108.652344 -91.617188 112.386719 -117.023438 C 112.984375 -122.359375 113.042969 -127.617188 112.367188 -132.214844 C 108.601562 -157.902344 85.425781 -174.667969 54.871094 -170.1875 C 30.804688 -166.660156 9.339844 -149.148438 3.84375 -120.71875 L -5.332031 -72.140625 C -6.542969 -65.332031 -6.941406 -58.644531 -6.03125 -52.425781 C -1.3125 -20.246094 31.90625 -4.679688 71.386719 -10.46875 C 108.972656 -15.980469 149 -40.632812 159.273438 -94.898438 C 159.769531 -97.179688 159.761719 -99.113281 159.523438 -100.734375 C 158.292969 -109.117188 150.046875 -112.605469 141.9375 -111.414062 C 134.363281 -110.304688 126.847656 -105.058594 125.644531 -96.320312 Z M 58.738281 -138.160156 C 66.308594 -139.269531 72.089844 -133.765625 73.238281 -125.921875 C 73.554688 -123.761719 73.601562 -121.558594 73.109375 -119.273438 C 71.714844 -109.957031 64.078125 -105.519531 55.964844 -104.332031 C 50.828125 -103.578125 45.53125 -103.90625 41.429688 -105.515625 L 44.726562 -122.570312 C 46.472656 -131.390625 52.519531 -137.25 58.738281 -138.160156 Z M 58.738281 -138.160156 "/></g></g></g><g fill="#e9edc9" fill-opacity="1"><g transform="translate(803.079711, 592.88622)"><g><path d="M 139.464844 -100.003906 C 132.328125 -65.808594 119.398438 -50.378906 106.6875 -48.515625 C 101.820312 -47.800781 98.761719 -49.839844 98.085938 -54.4375 C 97.808594 -56.328125 98.03125 -58.570312 98.445312 -61.394531 L 110.734375 -124.515625 C 111.835938 -130.203125 112.203125 -135.226562 111.527344 -139.824219 C 108.355469 -161.457031 87.589844 -174.984375 65.957031 -171.8125 C 55.410156 -170.265625 47.386719 -166.605469 41.109375 -160.433594 C 38.773438 -165.066406 31.617188 -166.777344 24.316406 -165.707031 C 16.742188 -164.597656 9.957031 -160.011719 8.363281 -152.042969 L -18.273438 -19.140625 C -18.730469 -16.589844 -18.683594 -14.386719 -18.367188 -12.222656 C -16.898438 -2.21875 -8.304688 1.769531 0.351562 0.5 C 9.8125 -0.886719 19.757812 -8.421875 22.03125 -21.183594 C 27.648438 -48.800781 35.195312 -87.75 40.582031 -115.058594 C 45.898438 -129.648438 54.410156 -137.527344 61.984375 -138.636719 C 66.851562 -139.351562 70.839844 -136.621094 71.59375 -131.484375 C 71.871094 -129.589844 71.6875 -127.078125 71.234375 -124.523438 L 59.664062 -65.925781 C 58.414062 -59.390625 57.933594 -53.242188 58.765625 -47.566406 C 62.414062 -22.6875 84.90625 -12.449219 107.890625 -15.820312 C 135.472656 -19.867188 162.210938 -42.847656 173.136719 -98.3125 C 173.628906 -100.59375 173.855469 -102.835938 173.578125 -104.730469 C 172.308594 -113.382812 163.792969 -116.828125 155.679688 -115.640625 C 148.378906 -114.570312 140.859375 -109.324219 139.464844 -100.003906 Z M 139.464844 -100.003906 "/></g></g></g><g fill="#e9edc9" fill-opacity="1"><g transform="translate(945.03886, 572.068739)"><g><path d="M 158.652344 -116.074219 C 151.351562 -115.003906 144.335938 -110.109375 143.171875 -101.097656 C 135.761719 -66.867188 123.183594 -50.933594 111.015625 -49.148438 C 105.605469 -48.355469 102.078125 -51.707031 101.441406 -56.03125 C 101.203125 -57.65625 101.238281 -59.316406 101.84375 -62.71875 L 133.648438 -230.078125 C 134.253906 -233.480469 134.933594 -238.277344 134.496094 -241.25 C 132.792969 -252.878906 122.414062 -257.710938 112.953125 -256.324219 C 104.570312 -255.09375 97.640625 -247.722656 94.832031 -232.949219 L 80.457031 -159.578125 C 71.035156 -167.308594 58.386719 -170.703125 45.675781 -168.839844 C 28.101562 -166.261719 10.601562 -153.75 6.3125 -132.128906 L -8.667969 -55.355469 C -9.808594 -49.9375 -9.828125 -44.410156 -9.113281 -39.542969 C -5.625 -15.75 15.953125 -2.339844 39.207031 -5.75 C 51.917969 -7.613281 65.34375 -14 74.613281 -26.132812 C 84.34375 -18.167969 98.15625 -14.394531 111.675781 -16.375 C 138.445312 -20.300781 166.457031 -44.023438 176.804688 -99.679688 C 177.066406 -101.648438 177.328125 -103.621094 177.089844 -105.246094 C 175.863281 -113.628906 167.035156 -117.304688 158.652344 -116.074219 Z M 39.050781 -48.265625 C 33.714844 -48.863281 31.769531 -52.722656 31.132812 -57.046875 C 30.617188 -60.5625 30.953125 -63.925781 31.40625 -66.480469 L 40.199219 -113.898438 C 43.265625 -130.644531 50.171875 -134.417969 54.5 -135.054688 C 59.636719 -135.804688 66.066406 -131.5 67.417969 -122.308594 C 68.011719 -118.25 67.953125 -112.996094 66.511719 -105.878906 L 59.984375 -73.15625 C 54.804688 -51.957031 44.347656 -47.9375 39.050781 -48.265625 Z M 39.050781 -48.265625 "/></g></g></g></svg>